<svg xmlns="http://www.w3.org/2000/svg" xmlns:xlink="http://www.w3.org/1999/xlink" width="610" height="261" viewBox="0 0 610 261">
  <defs>
    <clipPath id="clip-path">
      <rect id="Rectángulo_382693" data-name="Rectángulo 382693" width="70.683" height="67.169" fill="#273a89"/>
    </clipPath>
    <clipPath id="clip-path-2">
      <rect id="Rectángulo_382694" data-name="Rectángulo 382694" width="31.983" height="59.517" fill="none"/>
    </clipPath>
    <clipPath id="clip-path-3">
      <rect id="Rectángulo_382695" data-name="Rectángulo 382695" width="96.81" height="93.863" fill="#273a89"/>
    </clipPath>
    <clipPath id="clip-path-4">
      <rect id="Rectángulo_382696" data-name="Rectángulo 382696" width="79.534" height="42.863" fill="#1682fb"/>
    </clipPath>
    <clipPath id="clip-path-5">
      <rect id="Rectángulo_382697" data-name="Rectángulo 382697" width="11.412" height="21.224" fill="none"/>
    </clipPath>
    <clipPath id="clip-path-6">
      <rect id="Rectángulo_382699" data-name="Rectángulo 382699" width="55.489" height="56.061" fill="none"/>
    </clipPath>
    <clipPath id="clip-path-7">
      <rect id="Rectángulo_382700" data-name="Rectángulo 382700" width="8.399" height="18.911" fill="none"/>
    </clipPath>
    <clipPath id="clip-path-8">
      <rect id="Rectángulo_382701" data-name="Rectángulo 382701" width="76.566" height="72.958" fill="#273a89"/>
    </clipPath>
    <clipPath id="clip-path-9">
      <rect id="Rectángulo_382702" data-name="Rectángulo 382702" width="6.777" height="19.038" fill="none"/>
    </clipPath>
    <clipPath id="clip-path-10">
      <rect id="Rectángulo_382705" data-name="Rectángulo 382705" width="403.914" height="8.56" fill="none"/>
    </clipPath>
    <clipPath id="clip-path-11">
      <rect id="Rectángulo_382707" data-name="Rectángulo 382707" width="83.812" height="61.535" fill="none"/>
    </clipPath>
    <clipPath id="clip-path-12">
      <rect id="Rectángulo_382708" data-name="Rectángulo 382708" width="83.844" height="58.801" fill="#ffce00"/>
    </clipPath>
    <clipPath id="clip-path-13">
      <rect id="Rectángulo_382709" data-name="Rectángulo 382709" width="75.902" height="26.55" fill="none"/>
    </clipPath>
    <clipPath id="clip-path-14">
      <rect id="Rectángulo_382710" data-name="Rectángulo 382710" width="83.242" height="27.001" fill="#ffce00"/>
    </clipPath>
    <clipPath id="clip-path-15">
      <rect id="Rectángulo_382712" data-name="Rectángulo 382712" width="173.889" height="7.669" fill="none"/>
    </clipPath>
    <clipPath id="clip-path-16">
      <rect id="Rectángulo_382713" data-name="Rectángulo 382713" width="117.796" height="7.669" fill="none"/>
    </clipPath>
    <clipPath id="clip-path-17">
      <rect id="Rectángulo_382714" data-name="Rectángulo 382714" width="133.698" height="98.163" fill="#1682fb"/>
    </clipPath>
    <clipPath id="clip-path-18">
      <rect id="Rectángulo_382715" data-name="Rectángulo 382715" width="22.395" height="27.57" fill="none"/>
    </clipPath>
    <clipPath id="clip-path-19">
      <rect id="Rectángulo_382749" data-name="Rectángulo 382749" width="174.945" height="131.241" fill="none"/>
    </clipPath>
    <clipPath id="clip-path-21">
      <rect id="Rectángulo_382718" data-name="Rectángulo 382718" width="91.798" height="66.447" fill="none"/>
    </clipPath>
    <clipPath id="clip-path-22">
      <rect id="Rectángulo_382720" data-name="Rectángulo 382720" width="12.786" height="66.447" fill="none"/>
    </clipPath>
    <clipPath id="clip-path-24">
      <rect id="Rectángulo_382723" data-name="Rectángulo 382723" width="55.127" height="40.627" fill="none"/>
    </clipPath>
    <clipPath id="clip-path-25">
      <rect id="Rectángulo_382724" data-name="Rectángulo 382724" width="2.569" height="2.569" fill="none"/>
    </clipPath>
    <clipPath id="clip-path-28">
      <rect id="Rectángulo_382727" data-name="Rectángulo 382727" width="1.516" height="40.627" fill="none"/>
    </clipPath>
    <clipPath id="clip-path-30">
      <rect id="Rectángulo_382731" data-name="Rectángulo 382731" width="120.291" height="77.019" fill="none"/>
    </clipPath>
    <clipPath id="clip-path-31">
      <rect id="Rectángulo_382733" data-name="Rectángulo 382733" width="18.763" height="77.019" fill="none"/>
    </clipPath>
    <clipPath id="clip-path-33">
      <rect id="Rectángulo_382736" data-name="Rectángulo 382736" width="9.651" height="40.627" fill="none"/>
    </clipPath>
    <clipPath id="clip-path-34">
      <rect id="Rectángulo_382737" data-name="Rectángulo 382737" width="14.121" height="1.499" fill="none"/>
    </clipPath>
    <clipPath id="clip-path-35">
      <rect id="Rectángulo_382738" data-name="Rectángulo 382738" width="45.17" height="1.499" fill="none"/>
    </clipPath>
    <clipPath id="clip-path-36">
      <rect id="Rectángulo_382739" data-name="Rectángulo 382739" width="28.996" height="1.499" fill="none"/>
    </clipPath>
    <clipPath id="clip-path-37">
      <rect id="Rectángulo_382740" data-name="Rectángulo 382740" width="22.396" height="1.499" fill="none"/>
    </clipPath>
    <clipPath id="clip-path-38">
      <rect id="Rectángulo_382741" data-name="Rectángulo 382741" width="14.961" height="1.499" fill="none"/>
    </clipPath>
    <clipPath id="clip-path-39">
      <rect id="Rectángulo_382742" data-name="Rectángulo 382742" width="27.324" height="1.499" fill="none"/>
    </clipPath>
    <clipPath id="clip-path-40">
      <rect id="Rectángulo_382743" data-name="Rectángulo 382743" width="16.617" height="1.499" fill="none"/>
    </clipPath>
    <clipPath id="clip-path-41">
      <rect id="Rectángulo_382744" data-name="Rectángulo 382744" width="20.897" height="1.499" fill="none"/>
    </clipPath>
  </defs>
  <g id="_26" data-name="26" transform="translate(-810 -5726)">
    <g id="Grupo_1074444" data-name="Grupo 1074444">
      <g id="Grupo_1074370" data-name="Grupo 1074370" transform="translate(0 7.629)">
        <rect id="Rectángulo_382685" data-name="Rectángulo 382685" width="37.205" height="0.281" transform="translate(1284.696 5960.467)" fill="#ebebeb"/>
        <rect id="Rectángulo_382686" data-name="Rectángulo 382686" width="9.765" height="0.281" transform="translate(1178.825 5963.515)" fill="#ebebeb"/>
        <rect id="Rectángulo_382687" data-name="Rectángulo 382687" width="21.559" height="0.281" transform="translate(1262.013 5950.037)" fill="#ebebeb"/>
        <rect id="Rectángulo_382688" data-name="Rectángulo 382688" width="48.518" height="0.281" transform="translate(875.464 5951.924)" fill="#ebebeb"/>
        <rect id="Rectángulo_382689" data-name="Rectángulo 382689" width="7.114" height="0.281" transform="translate(933.983 5951.924)" fill="#ebebeb"/>
        <rect id="Rectángulo_382690" data-name="Rectángulo 382690" width="105.224" height="0.28" transform="translate(964.216 5956.667)" fill="#ebebeb"/>
        <path id="Trazado_821177" data-name="Trazado 821177" d="M113.556,301.133c1.8.548,2.622,1.683,2.622,4.384v6.262a2.575,2.575,0,0,0,2.856,2.9h.707v4.774H117.47c-4.892,0-7.4-2.5-7.4-7.007v-7.082a1.6,1.6,0,0,0-1.723-1.841h-1.292v-4.774h1.292a1.6,1.6,0,0,0,1.723-1.841v-7.085c0-4.5,2.5-7,7.4-7h2.271v4.774h-.707a2.575,2.575,0,0,0-2.856,2.9v6.262c0,2.7-.822,3.836-2.622,4.384" transform="translate(829.735 5609.439)" fill="#e0e0e0"/>
        <path id="Trazado_821178" data-name="Trazado 821178" d="M141.949,298.746v4.774h-1.291a1.605,1.605,0,0,0-1.724,1.841v7.083c0,4.5-2.5,7.006-7.4,7.006h-2.271v-4.774h.707a2.575,2.575,0,0,0,2.856-2.9v-6.262c0-2.7.821-3.836,2.622-4.384-1.8-.548-2.622-1.683-2.622-4.383v-6.263a2.574,2.574,0,0,0-2.856-2.9h-.707v-4.774h2.271c4.892,0,7.4,2.5,7.4,7v7.086a1.6,1.6,0,0,0,1.724,1.84Z" transform="translate(832.473 5609.439)" fill="#e0e0e0"/>
        <path id="Trazado_821185" data-name="Trazado 821185" d="M204.991,308.658l24.111-1.185-2.344,20.974s-16.738,3.2-24.2-8.712Z" transform="translate(841.508 5612.479)" fill="#ebb376"/>
        <path id="Trazado_821186" data-name="Trazado 821186" d="M242,314.785,236.505,330l-12.4-1.554,2.344-20.974Z" transform="translate(844.164 5612.479)" fill="#ebb376"/>
        <path id="Trazado_821187" data-name="Trazado 821187" d="M189.148,346.2a98.547,98.547,0,0,0,24.8-18.417L212.3,312.163c-22.792,3.324-35.934,8.19-35.934,8.19s8.439-30.279.717-41.31l-21.216,3.846s-22.544,46.861-7.383,63.312Z" transform="translate(834.196 5608.974)" fill="#407bff"/>
        <g id="Grupo_1074312" data-name="Grupo 1074312" transform="translate(977.45 5888.006)" opacity="0.7" style="isolation: isolate">
          <g id="Grupo_1074311" data-name="Grupo 1074311" transform="translate(0 0)">
            <g id="Grupo_1074310" data-name="Grupo 1074310" clip-path="url(#clip-path)">
              <path id="Trazado_821188" data-name="Trazado 821188" d="M189.116,346.2a98.644,98.644,0,0,0,24.819-18.408l-1.643-15.637c-22.057,3.235-35.1,7.883-35.9,8.165.282-1.1,8.267-30.453.693-41.289l-21.21,3.852a164.2,164.2,0,0,0-10.348,29.273c-3.032,12.792-3.926,26.567,2.977,34.045Z" transform="translate(-143.253 -279.034)" fill="#273a89"/>
            </g>
          </g>
        </g>
        <g id="Grupo_1074315" data-name="Grupo 1074315" transform="translate(977.45 5895.659)" opacity="0.2">
          <g id="Grupo_1074314" data-name="Grupo 1074314" transform="translate(0 0)">
            <g id="Grupo_1074313" data-name="Grupo 1074313" clip-path="url(#clip-path-2)">
              <path id="Trazado_821189" data-name="Trazado 821189" d="M171.673,345.363c7.489-47.479.845-59.518.845-59.518l-26.987,25.473c-3.032,12.792-3.926,26.567,2.977,34.045Z" transform="translate(-143.253 -285.846)"/>
            </g>
          </g>
        </g>
        <path id="Trazado_821190" data-name="Trazado 821190" d="M173.891,349.133c5.05-24,10.724-61.565,10.1-67.158-.905-8.127-45.139-42.974-83.525-17.607-7.84,5.182-11.875,61.035-13.246,84.766Z" transform="translate(827.29 5606.043)" fill="#407bff"/>
        <g id="Grupo_1074318" data-name="Grupo 1074318" transform="translate(914.523 5861.313)" opacity="0.7" style="isolation: isolate">
          <g id="Grupo_1074317" data-name="Grupo 1074317" transform="translate(0 0)">
            <g id="Grupo_1074316" data-name="Grupo 1074316" clip-path="url(#clip-path-3)">
              <path id="Trazado_821191" data-name="Trazado 821191" d="M173.89,349.132c5.053-24,10.725-61.566,10.106-67.17-.9-8.113-45.141-42.957-83.529-17.588-2.85,1.9-5.186,10.476-7.113,21.8-2.568,15.407-4.339,35.872-5.392,51.3-.3,4.371-.539,8.321-.731,11.655Z" transform="translate(-87.231 -255.269)" fill="#273a89"/>
            </g>
          </g>
        </g>
        <path id="Trazado_821192" data-name="Trazado 821192" d="M152.753,171.692c-13.312-5.379-44.7,13.932-47.447,48.362s14.7,24.886,14.7,24.886,3.1,13.138,15.82,9.081c0,0,10.5,11.9,20.28,7.056,0,0,12.161,12.671,18.688,5.981,0,0,7.1,8.108,13.586,1.967s24.994-68.747-4.063-83.221-31.569-14.112-31.569-14.112" transform="translate(829.483 5595.63)" fill="#263238"/>
        <path id="Trazado_821193" data-name="Trazado 821193" d="M147.913,299.721l-1.279-.115c1.476-16.575-2.17-23.916-2.207-23.988l1.14-.589c.158.306,3.861,7.684,2.347,24.691" transform="translate(834.342 5608.479)" fill="#263238"/>
        <path id="Trazado_821194" data-name="Trazado 821194" d="M153.286,300.014c-8.809-20.777,1.1-25.612,1.525-25.807l.535,1.167-.267-.583.271.582c-.092.044-9.166,4.6-.881,24.141Z" transform="translate(834.986 5608.378)" fill="#263238"/>
        <path id="Trazado_821195" data-name="Trazado 821195" d="M151.376,283.165s-17.017-13.459-43.434-21.073l-8.465,3.973s-14.221-17.607,9.482-23.363S164.9,252.777,173,266.4s-14.062,17.945-14.062,17.945-2.068-2.734-7.562-1.185" transform="translate(828.279 5604.344)" fill="#407bff"/>
        <g id="Grupo_1074321" data-name="Grupo 1074321" transform="translate(923.526 5845.832)" opacity="0.6" style="isolation: isolate">
          <g id="Grupo_1074320" data-name="Grupo 1074320" transform="translate(0 0)">
            <g id="Grupo_1074319" data-name="Grupo 1074319" clip-path="url(#clip-path-4)">
              <path id="Trazado_821196" data-name="Trazado 821196" d="M151.376,283.165s-17.017-13.459-43.434-21.073l-8.465,3.973s-14.221-17.607,9.482-23.363S164.9,252.777,173,266.4s-14.062,17.945-14.062,17.945-2.068-2.734-7.562-1.185" transform="translate(-95.247 -241.487)" fill="#1682fb"/>
            </g>
          </g>
        </g>
        <path id="Trazado_821197" data-name="Trazado 821197" d="M154.605,297.083a1.121,1.121,0,1,1-1.121-1.121,1.122,1.122,0,0,1,1.121,1.121" transform="translate(835.32 5611.06)" fill="#fff"/>
        <path id="Trazado_821198" data-name="Trazado 821198" d="M148.112,297.083a1.122,1.122,0,1,1-1.122-1.121,1.122,1.122,0,0,1,1.122,1.121" transform="translate(834.52 5611.06)" fill="#fff"/>
        <path id="Trazado_821199" data-name="Trazado 821199" d="M138.764,222.014c-1.036,12.062-4.73,33.507-14.536,38.23,0,0,10.968,2.233,28.063,23.941,9.739-6.835,6.056-11.491,6.056-11.491-11.395-7.47-8.439-16.684-3.831-24.667Z" transform="translate(831.852 5601.944)" fill="#ebb376"/>
        <g id="Grupo_1074324" data-name="Grupo 1074324" transform="translate(974.949 5834.569)" opacity="0.2">
          <g id="Grupo_1074323" data-name="Grupo 1074323" transform="translate(0 0)">
            <g id="Grupo_1074322" data-name="Grupo 1074322" clip-path="url(#clip-path-5)">
              <path id="Trazado_821200" data-name="Trazado 821200" d="M143.113,231.461l9.325,15.388a36.268,36.268,0,0,0-2.81,5.837c-4.481-2.4-9.414-10.017-8.489-15.229a17.461,17.461,0,0,1,1.974-5.995" transform="translate(-141.026 -231.461)"/>
            </g>
          </g>
        </g>
        <path id="Trazado_821201" data-name="Trazado 821201" d="M136.281,201.683c-3.137,18.942-4.859,26.872,2.153,39.065,10.548,18.341,33.921,19.2,42.513,1.86,7.735-15.61,11.566-43.963-4.564-56.482-15.892-12.332-36.965-3.386-40.1,15.556" transform="translate(833.001 5596.82)" fill="#ebb376"/>
        <path id="Trazado_821202" data-name="Trazado 821202" d="M176.163,176.728c12.272,6.815,23.964,28.091,6.5,22.772-2.633,5.109-12.04.432-17.505-5.705-.92,4.252-10.995,8.523-18.4,1.931,3.581,5.169-2.512,18.213-8.865,15.963s-20.592-5.2-7.966-25.31,33.13-16.932,46.243-9.651" transform="translate(831.931 5595.672)" fill="#263238"/>
        <path id="Trazado_821203" data-name="Trazado 821203" d="M166.809,215.267s1.13,7.52,3.259,11.6c-2.4,1.379-5.6-.47-5.6-.47Z" transform="translate(836.813 5601.112)" fill="#d58745"/>
        <path id="Trazado_821204" data-name="Trazado 821204" d="M156.41,229.052a15,15,0,0,0,2.482.946.431.431,0,0,0,.54-.339.505.505,0,0,0-.346-.589,13.384,13.384,0,0,1-8.716-7.649.45.45,0,1,0-.849.293,14.088,14.088,0,0,0,6.888,7.338" transform="translate(834.967 5601.83)" fill="#263238"/>
        <path id="Trazado_821205" data-name="Trazado 821205" d="M127.529,212.57a15.387,15.387,0,0,0,7.164,9.341c4.576,2.507,7.917-1.786,7.527-7.129-.352-4.809-3.155-11.908-8.172-12.19-4.944-.277-7.884,4.987-6.52,9.978" transform="translate(832.218 5599.548)" fill="#ebb376"/>
        <path id="Trazado_821206" data-name="Trazado 821206" d="M154.575,200.126a.856.856,0,0,0,.712-.039,6.9,6.9,0,0,1,6.541-.109.862.862,0,0,0,1.227-.338,1.02,1.02,0,0,0-.379-1.315,8.6,8.6,0,0,0-8.27.039.96.96,0,0,0-.353,1.287.986.986,0,0,0,.521.475" transform="translate(835.515 5598.896)" fill="#263238"/>
        <path id="Trazado_821207" data-name="Trazado 821207" d="M182,207.238a.874.874,0,0,0,.674.072.93.93,0,0,0,.565-1.191,9.863,9.863,0,0,0-5.848-6.5.858.858,0,0,0-1.1.639,1.02,1.02,0,0,0,.655,1.2,7.877,7.877,0,0,1,4.577,5.2,1.01,1.01,0,0,0,.479.584" transform="translate(838.267 5599.178)" fill="#263238"/>
        <path id="Trazado_821208" data-name="Trazado 821208" d="M160.3,211.23c-.55,1.5-1.805,2.412-2.8,2.045s-1.36-1.878-.81-3.374,1.805-2.412,2.8-2.046,1.36,1.878.81,3.374" transform="translate(835.822 5600.188)" fill="#263238"/>
        <path id="Trazado_821209" data-name="Trazado 821209" d="M158.76,207.784l3.724-.08s-2.627,2.143-3.724.08" transform="translate(836.109 5600.18)" fill="#263238"/>
        <path id="Trazado_821210" data-name="Trazado 821210" d="M177.1,216.552c-.55,1.5-1.805,2.412-2.8,2.045s-1.36-1.877-.81-3.374,1.805-2.412,2.8-2.044,1.36,1.877.81,3.373" transform="translate(837.892 5600.845)" fill="#263238"/>
        <path id="Trazado_821211" data-name="Trazado 821211" d="M175.556,213.107l3.724-.08s-2.627,2.143-3.724.08" transform="translate(838.18 5600.836)" fill="#263238"/>
        <path id="Trazado_821212" data-name="Trazado 821212" d="M159.228,222.532a8.159,8.159,0,0,1-3.344-.712,8.532,8.532,0,0,1-4.658-5.439,11.392,11.392,0,0,1,5.95-13.312,8.368,8.368,0,0,1,11.819,5.284,11.388,11.388,0,0,1-5.95,13.312,9.1,9.1,0,0,1-3.817.867m1.765-19.046a7.819,7.819,0,0,0-3.279.748A10.111,10.111,0,0,0,152.452,216a7.088,7.088,0,0,0,10.053,4.494,9.778,9.778,0,0,0,4.753-4.938l.585.262-.585-.262a9.779,9.779,0,0,0,.51-6.833,7.281,7.281,0,0,0-3.956-4.644,6.886,6.886,0,0,0-2.819-.6" transform="translate(835.125 5599.501)" fill="#263238"/>
        <path id="Trazado_821213" data-name="Trazado 821213" d="M175.87,227.626a8.105,8.105,0,0,1-3.328-.705,8.537,8.537,0,0,1-4.658-5.44,11.389,11.389,0,0,1,5.95-13.311,8.368,8.368,0,0,1,11.819,5.283,11.057,11.057,0,0,1-.565,7.734,10.436,10.436,0,0,1-9.218,6.44m1.78-19.04a7.811,7.811,0,0,0-3.278.748,10.106,10.106,0,0,0-5.261,11.771,7.273,7.273,0,0,0,3.955,4.644c3.938,1.764,8.806-.522,10.849-5.087a9.767,9.767,0,0,0,.51-6.833,7.279,7.279,0,0,0-3.955-4.644,6.886,6.886,0,0,0-2.819-.6" transform="translate(837.178 5600.13)" fill="#263238"/>
        <path id="Trazado_821214" data-name="Trazado 821214" d="M168.062,215.157a.569.569,0,0,0-.331-.361,2.285,2.285,0,0,0-1.448.216l-.565-1.152a3.491,3.491,0,0,1,2.472-.262,1.852,1.852,0,0,1,1.065,1.085Z" transform="translate(836.967 5600.889)" fill="#263238"/>
        <rect id="Rectángulo_382698" data-name="Rectángulo 382698" width="1.284" height="15.833" transform="matrix(0.296, -0.955, 0.955, 0.296, 971.904, 5804.969)" fill="#263238"/>
        <g id="Grupo_1074327" data-name="Grupo 1074327" transform="translate(915.253 5887.519)" opacity="0.2">
          <g id="Grupo_1074326" data-name="Grupo 1074326" transform="translate(0 0)">
            <g id="Grupo_1074325" data-name="Grupo 1074325" clip-path="url(#clip-path-6)">
              <path id="Trazado_821215" data-name="Trazado 821215" d="M143.371,313.315S113.815,335.962,87.882,334.6c1.051-15.433,2.824-35.9,5.392-51.3,2.644-2.926,4.392-4.7,4.392-4.7l15.765,11.761-3.826,4.8s23.8-1.206,32.1,0Z" transform="translate(-87.882 -278.599)"/>
            </g>
          </g>
        </g>
        <path id="Trazado_821216" data-name="Trazado 821216" d="M140.077,293.877l23.655-4.817.853,21.087s-16.062,5.69-25.242-4.954Z" transform="translate(833.715 5610.209)" fill="#ebb376"/>
        <path id="Trazado_821217" data-name="Trazado 821217" d="M177.531,293.937,174.4,309.808l-12.5.339-.853-21.087Z" transform="translate(836.392 5610.209)" fill="#ebb376"/>
        <path id="Trazado_821218" data-name="Trazado 821218" d="M140.791,293.348l1.157,16.271-5.883,2.641-2.516-18.911Z" transform="translate(833.001 5610.738)" fill="#407bff"/>
        <g id="Grupo_1074330" data-name="Grupo 1074330" transform="translate(966.55 5904.085)" opacity="0.6" style="isolation: isolate">
          <g id="Grupo_1074329" data-name="Grupo 1074329" transform="translate(0 0)">
            <g id="Grupo_1074328" data-name="Grupo 1074328" clip-path="url(#clip-path-7)">
              <path id="Trazado_821219" data-name="Trazado 821219" d="M140.791,293.348l1.157,16.271-5.883,2.641-2.516-18.911Z" transform="translate(-133.549 -293.348)" fill="#fff"/>
            </g>
          </g>
        </g>
        <path id="Trazado_821220" data-name="Trazado 821220" d="M111.348,259.831a27.328,27.328,0,0,0-16.227,9.391C87.985,277.6,62.843,302.49,68.43,322.805s59.34,5.2,75.763-6.415l-2.516-18.91-37.24,2.734,11.483-7.551c7.872-21.918-4.572-32.832-4.572-32.832" transform="translate(824.874 5606.606)" fill="#407bff"/>
        <g id="Grupo_1074333" data-name="Grupo 1074333" transform="translate(892.501 5866.437)" opacity="0.7" style="isolation: isolate">
          <g id="Grupo_1074332" data-name="Grupo 1074332" transform="translate(0 0)">
            <g id="Grupo_1074331" data-name="Grupo 1074331" clip-path="url(#clip-path-8)">
              <path id="Trazado_821221" data-name="Trazado 821221" d="M111.348,259.831a27.328,27.328,0,0,0-16.227,9.391C87.985,277.6,62.843,302.49,68.43,322.805s59.34,5.2,75.763-6.415l-2.516-18.91-37.24,2.734,11.483-7.551c7.872-21.918-4.572-32.832-4.572-32.832" transform="translate(-67.627 -259.831)" fill="#273a89"/>
            </g>
          </g>
        </g>
        <path id="Trazado_821222" data-name="Trazado 821222" d="M202.555,308.975l6.777-1.141v18.16l-5.364.877Z" transform="translate(841.508 5612.523)" fill="#407bff"/>
        <g id="Grupo_1074336" data-name="Grupo 1074336" transform="translate(1044.063 5920.356)" opacity="0.6" style="isolation: isolate">
          <g id="Grupo_1074335" data-name="Grupo 1074335" transform="translate(0 0)">
            <g id="Grupo_1074334" data-name="Grupo 1074334" clip-path="url(#clip-path-9)">
              <path id="Trazado_821223" data-name="Trazado 821223" d="M202.555,308.975l6.777-1.141v18.16l-5.364.877Z" transform="translate(-202.555 -307.833)" fill="#fff"/>
            </g>
          </g>
        </g>
        <path id="Trazado_821224" data-name="Trazado 821224" d="M192.126,324.8a21.061,21.061,0,0,1,.146-2.977l.2-1.5-1.45.856-.864.509a8.454,8.454,0,0,1-.874.335,2.62,2.62,0,0,1-1.575.034,2.982,2.982,0,0,1-1.263-.915,5.319,5.319,0,0,1-.887-1.53l-1.267-3.542-.9,3.745c-.089.373-.148.75-.22,1.126-.088.363-.218.694-.318,1.046a3.4,3.4,0,0,1-1.048,1.423,2.237,2.237,0,0,1-1.7.151,6.752,6.752,0,0,1-2.006-.883l-1.951-1.217.793,1.984a18.22,18.22,0,0,1,.805,2.609,8.441,8.441,0,0,1,.182,1.349,2.182,2.182,0,0,1-.294,1.322,2.173,2.173,0,0,0,.763-1.26,6.245,6.245,0,0,0,.2-1.485,11.369,11.369,0,0,0-.04-1.176,7.825,7.825,0,0,0,1.008.49,3.969,3.969,0,0,0,3.2-.07,4.8,4.8,0,0,0,2.1-2.385c.017-.048.035-.1.052-.147a4.476,4.476,0,0,0,2.257,1.346,4.381,4.381,0,0,0,2.742-.281,6.84,6.84,0,0,0,.951-.519c.006.043.01.084.016.127a11.708,11.708,0,0,0,.327,1.573,7.489,7.489,0,0,0,.561,1.514,3.461,3.461,0,0,0,.976,1.265,3.915,3.915,0,0,1-.491-1.428,10.863,10.863,0,0,1-.136-1.491" transform="translate(838.254 5613.539)" fill="#407bff"/>
        <path id="Trazado_821225" data-name="Trazado 821225" d="M228.65,302.157a6.42,6.42,0,0,1-2.591-.275,9.356,9.356,0,0,1-2.445-1.177,7.17,7.17,0,0,1-1.805-1.939,10.346,10.346,0,0,1-1.2-2.414l-.736-2.223-1.26,1.985a11.009,11.009,0,0,1-1.931,2.239,3.575,3.575,0,0,1-2.259,1.027l-.272-.016c-.1-.013-.227-.045-.339-.066a6.663,6.663,0,0,1-.693-.176,8.15,8.15,0,0,1-1.355-.582,11.454,11.454,0,0,1-2.422-1.793l-1.955-1.876.4,2.57a20.435,20.435,0,0,1,.267,4.152,5.8,5.8,0,0,1-.394,1.911,1.256,1.256,0,0,1-1.368.789l-.511-.039.158.414c.321.845.664,1.683,1.014,2.52-.11-.749-.234-1.5-.363-2.24l.208.033a3.289,3.289,0,0,0,.669-.118,4.2,4.2,0,0,0,.594-.355c.148-.158.3-.324.44-.5a5.976,5.976,0,0,0,.839-2.245,14.051,14.051,0,0,0,.252-2.275c0-.012,0-.024,0-.036a12.476,12.476,0,0,0,1.158.824,10.176,10.176,0,0,0,1.665.828,6.135,6.135,0,0,0,1.946.439,5.7,5.7,0,0,0,3.755-1.489,10.008,10.008,0,0,0,1.222-1.217,11.267,11.267,0,0,0,.724,1.148,9.187,9.187,0,0,0,2.462,2.345,9.561,9.561,0,0,0,3.117,1.214,8.62,8.62,0,0,0,2.14.157c-.087.231-.186.456-.264.69a14.253,14.253,0,0,0-.465,1.981,8.047,8.047,0,0,0-.087,2.032,4.024,4.024,0,0,0,.592,1.908,4.222,4.222,0,0,1-.14-1.905,9.128,9.128,0,0,1,.434-1.846,18.158,18.158,0,0,1,1.63-3.426l.707-1.2Z" transform="translate(841.906 5610.834)" fill="#407bff"/>
        <path id="Trazado_821226" data-name="Trazado 821226" d="M76.045,362.25H469.982a4.988,4.988,0,0,0,4.988-4.988V345.129H71.057v12.132a4.988,4.988,0,0,0,4.988,4.988" transform="translate(825.297 5617.121)" fill="#bae9d9"/>
        <g id="Grupo_1074341" data-name="Grupo 1074341" transform="translate(896.355 5962.25)" opacity="0.2" style="isolation: isolate">
          <g id="Grupo_1074340" data-name="Grupo 1074340" transform="translate(0 0)">
            <g id="Grupo_1074339" data-name="Grupo 1074339" clip-path="url(#clip-path-10)">
              <rect id="Rectángulo_382704" data-name="Rectángulo 382704" width="403.914" height="8.56" transform="translate(0 0)"/>
            </g>
          </g>
        </g>
        <path id="Trazado_821227" data-name="Trazado 821227" d="M64.046,348.175H484.9a4.823,4.823,0,1,0,0-9.646H64.046a4.823,4.823,0,1,0,0,9.646" transform="translate(823.838 5616.307)" fill="#3ee2a8"/>
        <path id="Trazado_821228" data-name="Trazado 821228" d="M422.225,286.376l-12.288,55.732a4.176,4.176,0,0,1-3.99,3.168H338.829a2.7,2.7,0,0,1-2.522-3.5l12.272-55.308a3.833,3.833,0,0,1,3.989-2.726h67.119c1.8,0,2.936.817,2.538,2.635" transform="translate(857.986 5609.553)" fill="#263238"/>
        <g id="Grupo_1074346" data-name="Grupo 1074346" transform="translate(1196.479 5893.294)" opacity="0.4" style="isolation: isolate">
          <g id="Grupo_1074345" data-name="Grupo 1074345" transform="translate(0 0)">
            <g id="Grupo_1074344" data-name="Grupo 1074344" clip-path="url(#clip-path-11)">
              <path id="Trazado_821229" data-name="Trazado 821229" d="M421.975,286.376l-12.288,55.732a4.176,4.176,0,0,1-3.99,3.168H340.861a2.714,2.714,0,0,1-2.538-3.5l12.289-55.308a3.821,3.821,0,0,1,3.989-2.726h64.837c1.8,0,2.936.817,2.538,2.635" transform="translate(-338.244 -283.741)" fill="#fff"/>
            </g>
          </g>
        </g>
        <path id="Trazado_821230" data-name="Trazado 821230" d="M411.111,343.336l12.226-55.453c.4-1.819-.735-2.635-2.537-2.635H355.963a3.823,3.823,0,0,0-3.99,2.726l-12.409,56.083Z" transform="translate(858.398 5609.739)" fill="#407bff"/>
        <g id="Grupo_1074349" data-name="Grupo 1074349" transform="translate(1197.968 5894.992)" style="isolation: isolate">
          <g id="Grupo_1074348" data-name="Grupo 1074348" transform="translate(0 0)">
            <g id="Grupo_1074347" data-name="Grupo 1074347" clip-path="url(#clip-path-12)">
              <path id="Trazado_821231" data-name="Trazado 821231" d="M423.328,287.871l-6.445,29.3-5.777,26.164-38.311.385-33.227.334,12.4-56.078a3.816,3.816,0,0,1,3.98-2.722h64.861c1.8,0,2.927.821,2.516,2.618" transform="translate(-339.569 -285.252)" fill="#ffce00"/>
            </g>
          </g>
        </g>
        <g id="Grupo_1074352" data-name="Grupo 1074352" transform="translate(1199.38 5926.909)" opacity="0.2" style="isolation: isolate">
          <g id="Grupo_1074351" data-name="Grupo 1074351" transform="translate(0 0)">
            <g id="Grupo_1074350" data-name="Grupo 1074350" clip-path="url(#clip-path-13)">
              <path id="Trazado_821232" data-name="Trazado 821232" d="M416.728,313.667l-5.777,26.166-38.311.384H340.826l5.205-23.922a3.338,3.338,0,0,1,3.261-2.627Z" transform="translate(-340.826 -313.667)"/>
            </g>
          </g>
        </g>
        <path id="Trazado_821233" data-name="Trazado 821233" d="M417.99,317.211a3.82,3.82,0,0,0-3.99-2.726H349.164c-1.8,0-2.936.816-2.536,2.635l4.915,22.3H340.6a1.033,1.033,0,1,0,0,2.067h79.86a2.347,2.347,0,0,0,2.29-2.857Z" transform="translate(858.398 5613.343)" fill="#407bff"/>
        <g id="Grupo_1074355" data-name="Grupo 1074355" transform="translate(1197.962 5927.828)" style="isolation: isolate">
          <g id="Grupo_1074354" data-name="Grupo 1074354" transform="translate(0 0)">
            <g id="Grupo_1074353" data-name="Grupo 1074353" clip-path="url(#clip-path-14)">
              <path id="Trazado_821234" data-name="Trazado 821234" d="M417.99,317.211a3.82,3.82,0,0,0-3.99-2.726H349.164c-1.8,0-2.936.816-2.536,2.635l4.915,22.3H340.6a1.033,1.033,0,1,0,0,2.067h79.86a2.347,2.347,0,0,0,2.29-2.857Z" transform="translate(-339.564 -314.485)" fill="#ffce00"/>
            </g>
          </g>
        </g>
        <path id="Trazado_821235" data-name="Trazado 821235" d="M339.216,328.957h-3.767l-.465,2.032h3.663Z" transform="translate(857.833 5615.127)"/>
        <path id="Trazado_821236" data-name="Trazado 821236" d="M318.839,339.928H308a.642.642,0,1,1,0-1.284h10.839a11.849,11.849,0,0,0,9.274-4.439,13.129,13.129,0,0,1,10.273-4.918h1.908a.642.642,0,0,1,0,1.284h-1.908a11.849,11.849,0,0,0-9.274,4.439,13.131,13.131,0,0,1-10.273,4.918" transform="translate(854.428 5615.168)"/>
        <path id="Trazado_821237" data-name="Trazado 821237" d="M156.779,331.7v4.69c0,2.114,2.545,2.979,4.658,2.979H326.09c2.087,0,4.576-.865,4.576-2.979V331.7Z" transform="translate(835.865 5615.465)" fill="#263238"/>
        <g id="Grupo_1074360" data-name="Grupo 1074360" transform="translate(992.644 5947.161)" opacity="0.4" style="isolation: isolate">
          <g id="Grupo_1074359" data-name="Grupo 1074359" transform="translate(0 0)">
            <g id="Grupo_1074358" data-name="Grupo 1074358" clip-path="url(#clip-path-15)">
              <path id="Trazado_821238" data-name="Trazado 821238" d="M156.779,331.7v4.69c0,2.114,2.545,2.979,4.658,2.979H326.09c2.087,0,4.576-.865,4.576-2.979V331.7Z" transform="translate(-156.779 -331.696)" fill="#fff"/>
            </g>
          </g>
        </g>
        <g id="Grupo_1074363" data-name="Grupo 1074363" transform="translate(1048.737 5947.161)" opacity="0.2" style="isolation: isolate">
          <g id="Grupo_1074362" data-name="Grupo 1074362" transform="translate(0 0)">
            <g id="Grupo_1074361" data-name="Grupo 1074361" clip-path="url(#clip-path-16)">
              <path id="Trazado_821239" data-name="Trazado 821239" d="M206.716,331.7v4.69c0,2.114,2.508,2.979,4.621,2.979h108.6c2.087,0,4.576-.865,4.576-2.979V331.7Z" transform="translate(-206.716 -331.696)"/>
            </g>
          </g>
        </g>
        <path id="Trazado_821240" data-name="Trazado 821240" d="M351.166,252.84l-19.6,88.906A6.664,6.664,0,0,1,325.2,346.8H218.13c-2.852,0-4.684-2.658-4.022-5.585l19.576-88.229c.662-2.9,3.488-4.348,6.363-4.348H347.118c2.877,0,4.683,1.3,4.047,4.2" transform="translate(842.915 5605.226)" fill="#263238"/>
        <g id="Grupo_1074366" data-name="Grupo 1074366" transform="translate(1060.511 5853.862)" style="isolation: isolate">
          <g id="Grupo_1074365" data-name="Grupo 1074365" transform="translate(0 0)">
            <g id="Grupo_1074364" data-name="Grupo 1074364" clip-path="url(#clip-path-17)">
              <path id="Trazado_821241" data-name="Trazado 821241" d="M350.768,252.84l-19.6,88.906A6.664,6.664,0,0,1,324.8,346.8H221.373c-2.878,0-4.685-2.658-4.048-5.585l19.6-88.229c.636-2.9,3.487-4.348,6.363-4.348h103.43c2.877,0,4.683,1.3,4.047,4.2" transform="translate(-217.198 -248.636)" fill="#1682fb"/>
            </g>
          </g>
        </g>
        <g id="Grupo_1074369" data-name="Grupo 1074369" transform="translate(1118.896 5889.508)" opacity="0.2" style="isolation: isolate">
          <g id="Grupo_1074368" data-name="Grupo 1074368" transform="translate(0 0)">
            <g id="Grupo_1074367" data-name="Grupo 1074367" clip-path="url(#clip-path-18)">
              <path id="Trazado_821242" data-name="Trazado 821242" d="M291.57,294.117v.026c0,7.611-8.162,13.8-14.144,13.8s-9.528-6.186-7.822-13.8c1.706-7.46,7.658-13.543,13.513-13.772-1.705,7.611,1.949,13.772,7.906,13.772a3.07,3.07,0,0,0,.548-.026" transform="translate(-269.175 -280.37)"/>
            </g>
          </g>
        </g>
      </g>
      <g id="Grupo_1074443" data-name="Grupo 1074443" transform="translate(1153 5748.907)">
        <g id="Grupo_1074442" data-name="Grupo 1074442" clip-path="url(#clip-path-19)">
          <rect id="Rectángulo_382716" data-name="Rectángulo 382716" width="91.799" height="66.448" transform="translate(0 0)"/>
          <g id="Grupo_1074378" data-name="Grupo 1074378">
            <g id="Grupo_1074377" data-name="Grupo 1074377" clip-path="url(#clip-path-19)">
              <g id="Grupo_1074373" data-name="Grupo 1074373" opacity="0.9" style="isolation: isolate">
                <g id="Grupo_1074372" data-name="Grupo 1074372">
                  <g id="Grupo_1074371" data-name="Grupo 1074371" clip-path="url(#clip-path-21)">
                    <rect id="Rectángulo_382717" data-name="Rectángulo 382717" width="91.798" height="66.448" transform="translate(0 0)" fill="#fff"/>
                  </g>
                </g>
              </g>
              <g id="Grupo_1074376" data-name="Grupo 1074376" opacity="0.1">
                <g id="Grupo_1074375" data-name="Grupo 1074375">
                  <g id="Grupo_1074374" data-name="Grupo 1074374" clip-path="url(#clip-path-22)">
                    <rect id="Rectángulo_382719" data-name="Rectángulo 382719" width="12.786" height="66.448" transform="translate(0 0)"/>
                  </g>
                </g>
              </g>
            </g>
          </g>
          <rect id="Rectángulo_382722" data-name="Rectángulo 382722" width="91.799" height="6.212" fill="#407bff"/>
          <g id="Grupo_1074395" data-name="Grupo 1074395">
            <g id="Grupo_1074394" data-name="Grupo 1074394" clip-path="url(#clip-path-19)">
              <g id="Grupo_1074381" data-name="Grupo 1074381" transform="translate(19.364 14.086)" opacity="0.2">
                <g id="Grupo_1074380" data-name="Grupo 1074380">
                  <g id="Grupo_1074379" data-name="Grupo 1074379" clip-path="url(#clip-path-24)">
                    <path id="Trazado_821243" data-name="Trazado 821243" d="M43.315,20.3H26.592a.749.749,0,0,1,0-1.5H43.315a.749.749,0,1,1,0,1.5" transform="translate(-25.843 -18.798)"/>
                    <path id="Trazado_821244" data-name="Trazado 821244" d="M87.3,20.3H54.843a.749.749,0,1,1,0-1.5H87.3a.749.749,0,1,1,0,1.5" transform="translate(-32.925 -18.798)"/>
                    <path id="Trazado_821245" data-name="Trazado 821245" d="M73.266,26.824H29.594a.749.749,0,0,1,0-1.5H73.266a.749.749,0,0,1,0,1.5" transform="translate(-26.595 -20.434)"/>
                    <path id="Trazado_821246" data-name="Trazado 821246" d="M54.728,33.351H26.592a.749.749,0,0,1,0-1.5H54.728a.749.749,0,0,1,0,1.5" transform="translate(-25.843 -22.07)"/>
                    <path id="Trazado_821247" data-name="Trazado 821247" d="M91.419,33.351H71.261a.749.749,0,0,1,0-1.5H91.419a.749.749,0,1,1,0,1.5" transform="translate(-37.041 -22.07)"/>
                    <path id="Trazado_821248" data-name="Trazado 821248" d="M42.129,39.879H26.592a.749.749,0,1,1,0-1.5H42.129a.749.749,0,0,1,0,1.5" transform="translate(-25.843 -23.707)"/>
                    <path id="Trazado_821249" data-name="Trazado 821249" d="M78.508,39.879H54.052a.749.749,0,1,1,0-1.5H78.508a.749.749,0,1,1,0,1.5" transform="translate(-32.727 -23.707)"/>
                    <path id="Trazado_821250" data-name="Trazado 821250" d="M50.493,46.407h-20.9a.749.749,0,0,1,0-1.5h20.9a.749.749,0,1,1,0,1.5" transform="translate(-26.595 -25.343)"/>
                    <path id="Trazado_821251" data-name="Trazado 821251" d="M53.109,52.934H29.594a.749.749,0,0,1,0-1.5H53.109a.749.749,0,0,1,0,1.5" transform="translate(-26.595 -26.98)"/>
                    <path id="Trazado_821252" data-name="Trazado 821252" d="M90.129,52.934H66.118a.749.749,0,0,1,0-1.5H90.129a.749.749,0,1,1,0,1.5" transform="translate(-35.752 -26.98)"/>
                    <path id="Trazado_821253" data-name="Trazado 821253" d="M40.054,59.461H26.592a.749.749,0,0,1,0-1.5H40.054a.749.749,0,0,1,0,1.5" transform="translate(-25.843 -28.616)"/>
                    <path id="Trazado_821254" data-name="Trazado 821254" d="M86.261,59.461H50.689a.749.749,0,0,1,0-1.5H86.261a.749.749,0,1,1,0,1.5" transform="translate(-31.884 -28.616)"/>
                    <path id="Trazado_821255" data-name="Trazado 821255" d="M52.96,65.989H29.594a.749.749,0,0,1,0-1.5H52.96a.749.749,0,0,1,0,1.5" transform="translate(-26.595 -30.252)"/>
                    <path id="Trazado_821256" data-name="Trazado 821256" d="M80.247,65.989H65.129a.749.749,0,0,1,0-1.5H80.247a.749.749,0,0,1,0,1.5" transform="translate(-35.504 -30.252)"/>
                    <path id="Trazado_821257" data-name="Trazado 821257" d="M56.491,72.516h-26.9a.749.749,0,0,1,0-1.5h26.9a.749.749,0,1,1,0,1.5" transform="translate(-26.595 -31.889)"/>
                  </g>
                </g>
              </g>
              <g id="Grupo_1074384" data-name="Grupo 1074384" transform="translate(86.561 1.864)" opacity="0.4">
                <g id="Grupo_1074383" data-name="Grupo 1074383">
                  <g id="Grupo_1074382" data-name="Grupo 1074382" clip-path="url(#clip-path-25)">
                    <path id="Trazado_821258" data-name="Trazado 821258" d="M115.521,3.772a1.285,1.285,0,1,0,1.284-1.284,1.284,1.284,0,0,0-1.284,1.284" transform="translate(-115.521 -2.488)" fill="#fff"/>
                  </g>
                </g>
              </g>
              <g id="Grupo_1074387" data-name="Grupo 1074387" transform="translate(82.063 1.864)" opacity="0.4">
                <g id="Grupo_1074386" data-name="Grupo 1074386">
                  <g id="Grupo_1074385" data-name="Grupo 1074385" clip-path="url(#clip-path-25)">
                    <path id="Trazado_821259" data-name="Trazado 821259" d="M109.518,3.772A1.285,1.285,0,1,0,110.8,2.488a1.284,1.284,0,0,0-1.284,1.284" transform="translate(-109.518 -2.488)" fill="#fff"/>
                  </g>
                </g>
              </g>
              <g id="Grupo_1074390" data-name="Grupo 1074390" transform="translate(77.564 1.864)" opacity="0.4">
                <g id="Grupo_1074389" data-name="Grupo 1074389">
                  <g id="Grupo_1074388" data-name="Grupo 1074388" clip-path="url(#clip-path-25)">
                    <path id="Trazado_821260" data-name="Trazado 821260" d="M103.514,3.772A1.285,1.285,0,1,0,104.8,2.488a1.284,1.284,0,0,0-1.284,1.284" transform="translate(-103.514 -2.488)" fill="#fff"/>
                  </g>
                </g>
              </g>
              <g id="Grupo_1074393" data-name="Grupo 1074393" transform="translate(5.834 14.086)" opacity="0.2">
                <g id="Grupo_1074392" data-name="Grupo 1074392">
                  <g id="Grupo_1074391" data-name="Grupo 1074391" clip-path="url(#clip-path-28)">
                    <path id="Trazado_821261" data-name="Trazado 821261" d="M8.57,20.3H8.535a.749.749,0,1,1,0-1.5.764.764,0,0,1,.767.749.735.735,0,0,1-.732.749" transform="translate(-7.786 -18.798)"/>
                    <path id="Trazado_821262" data-name="Trazado 821262" d="M8.57,26.824H8.535a.749.749,0,1,1,0-1.5.764.764,0,0,1,.767.749.735.735,0,0,1-.732.749" transform="translate(-7.786 -20.434)"/>
                    <path id="Trazado_821263" data-name="Trazado 821263" d="M8.57,33.351H8.535a.749.749,0,1,1,0-1.5A.764.764,0,0,1,9.3,32.6a.735.735,0,0,1-.732.749" transform="translate(-7.786 -22.07)"/>
                    <path id="Trazado_821264" data-name="Trazado 821264" d="M8.57,39.879H8.535a.749.749,0,1,1,0-1.5.764.764,0,0,1,.767.749.735.735,0,0,1-.732.749" transform="translate(-7.786 -23.707)"/>
                    <path id="Trazado_821265" data-name="Trazado 821265" d="M8.57,46.407H8.535a.749.749,0,1,1,0-1.5.764.764,0,0,1,.767.749.735.735,0,0,1-.732.749" transform="translate(-7.786 -25.343)"/>
                    <path id="Trazado_821266" data-name="Trazado 821266" d="M8.57,52.934H8.535a.749.749,0,1,1,0-1.5.764.764,0,0,1,.767.749.735.735,0,0,1-.732.749" transform="translate(-7.786 -26.98)"/>
                    <path id="Trazado_821267" data-name="Trazado 821267" d="M8.57,59.461H8.535a.749.749,0,0,1,0-1.5.764.764,0,0,1,.767.749.735.735,0,0,1-.732.749" transform="translate(-7.786 -28.616)"/>
                    <path id="Trazado_821268" data-name="Trazado 821268" d="M8.57,65.989H8.535a.749.749,0,1,1,0-1.5.764.764,0,0,1,.767.749.735.735,0,0,1-.732.749" transform="translate(-7.786 -30.252)"/>
                    <path id="Trazado_821269" data-name="Trazado 821269" d="M8.57,72.516H8.535a.749.749,0,1,1,0-1.5.764.764,0,0,1,.767.749.735.735,0,0,1-.732.749" transform="translate(-7.786 -31.889)"/>
                  </g>
                </g>
              </g>
            </g>
          </g>
          <rect id="Rectángulo_382729" data-name="Rectángulo 382729" width="120.29" height="77.018" transform="translate(54.655 54.223)" fill="#263238"/>
          <g id="Grupo_1074403" data-name="Grupo 1074403">
            <g id="Grupo_1074402" data-name="Grupo 1074402" clip-path="url(#clip-path-19)">
              <g id="Grupo_1074398" data-name="Grupo 1074398" transform="translate(54.655 54.222)" opacity="0.9" style="isolation: isolate">
                <g id="Grupo_1074397" data-name="Grupo 1074397">
                  <g id="Grupo_1074396" data-name="Grupo 1074396" clip-path="url(#clip-path-30)">
                    <rect id="Rectángulo_382730" data-name="Rectángulo 382730" width="120.29" height="77.019" transform="translate(0)" fill="#fff"/>
                  </g>
                </g>
              </g>
              <g id="Grupo_1074401" data-name="Grupo 1074401" transform="translate(54.655 54.222)" opacity="0.1">
                <g id="Grupo_1074400" data-name="Grupo 1074400">
                  <g id="Grupo_1074399" data-name="Grupo 1074399" clip-path="url(#clip-path-31)">
                    <rect id="Rectángulo_382732" data-name="Rectángulo 382732" width="18.764" height="77.019" transform="translate(0)"/>
                  </g>
                </g>
              </g>
            </g>
          </g>
          <rect id="Rectángulo_382735" data-name="Rectángulo 382735" width="120.29" height="6.212" transform="translate(54.655 54.223)" fill="#407bff"/>
          <path id="Trazado_821270" data-name="Trazado 821270" d="M83.326,89.489l-2,.731,2,.725v.749l-2.852-1.084v-.779l2.852-1.085Z" transform="translate(-20.174 -22.247)" fill="#fff"/>
          <path id="Trazado_821271" data-name="Trazado 821271" d="M86.485,86.779h.832l-1.977,5.644h-.832Z" transform="translate(-21.185 -21.754)" fill="#fff"/>
          <path id="Trazado_821272" data-name="Trazado 821272" d="M91.257,89.831v.779L88.4,91.694v-.749L90.4,90.22,88.4,89.489v-.743Z" transform="translate(-22.162 -22.247)" fill="#fff"/>
          <g id="Grupo_1074441" data-name="Grupo 1074441">
            <g id="Grupo_1074440" data-name="Grupo 1074440" clip-path="url(#clip-path-19)">
              <g id="Grupo_1074406" data-name="Grupo 1074406" transform="translate(59.773 74.306)" opacity="0.2">
                <g id="Grupo_1074405" data-name="Grupo 1074405">
                  <g id="Grupo_1074404" data-name="Grupo 1074404" clip-path="url(#clip-path-33)">
                    <path id="Trazado_821273" data-name="Trazado 821273" d="M88.672,100.664H80.52a.749.749,0,0,1,0-1.5h8.152a.749.749,0,0,1,0,1.5" transform="translate(-79.77 -99.165)"/>
                    <path id="Trazado_821274" data-name="Trazado 821274" d="M88.672,107.192H80.52a.749.749,0,0,1,0-1.5h8.152a.749.749,0,1,1,0,1.5" transform="translate(-79.77 -100.802)"/>
                    <path id="Trazado_821275" data-name="Trazado 821275" d="M88.672,113.719H80.52a.749.749,0,0,1,0-1.5h8.152a.749.749,0,1,1,0,1.5" transform="translate(-79.77 -102.438)"/>
                    <path id="Trazado_821276" data-name="Trazado 821276" d="M88.672,120.247H80.52a.749.749,0,0,1,0-1.5h8.152a.749.749,0,1,1,0,1.5" transform="translate(-79.77 -104.075)"/>
                    <path id="Trazado_821277" data-name="Trazado 821277" d="M88.672,126.774H80.52a.749.749,0,0,1,0-1.5h8.152a.749.749,0,1,1,0,1.5" transform="translate(-79.77 -105.711)"/>
                    <path id="Trazado_821278" data-name="Trazado 821278" d="M88.672,133.3H80.52a.749.749,0,1,1,0-1.5h8.152a.749.749,0,0,1,0,1.5" transform="translate(-79.77 -107.347)"/>
                    <path id="Trazado_821279" data-name="Trazado 821279" d="M88.672,139.829H80.52a.749.749,0,1,1,0-1.5h8.152a.749.749,0,0,1,0,1.5" transform="translate(-79.77 -108.983)"/>
                    <path id="Trazado_821280" data-name="Trazado 821280" d="M88.672,146.356H80.52a.749.749,0,0,1,0-1.5h8.152a.749.749,0,0,1,0,1.5" transform="translate(-79.77 -110.62)"/>
                    <path id="Trazado_821281" data-name="Trazado 821281" d="M88.672,152.884H80.52a.749.749,0,1,1,0-1.5h8.152a.749.749,0,1,1,0,1.5" transform="translate(-79.77 -112.256)"/>
                  </g>
                </g>
              </g>
              <path id="Trazado_821282" data-name="Trazado 821282" d="M117.255,100.664H100.532a.749.749,0,0,1,0-1.5h16.722a.749.749,0,0,1,0,1.5" transform="translate(-25.014 -24.859)" fill="#407bff"/>
              <path id="Trazado_821283" data-name="Trazado 821283" d="M172.359,100.664H128.783a.749.749,0,0,1,0-1.5h43.576a.749.749,0,0,1,0,1.5" transform="translate(-32.096 -24.859)" fill="#263238"/>
              <g id="Grupo_1074409" data-name="Grupo 1074409" transform="translate(146.776 74.306)" opacity="0.2">
                <g id="Grupo_1074408" data-name="Grupo 1074408">
                  <g id="Grupo_1074407" data-name="Grupo 1074407" clip-path="url(#clip-path-34)">
                    <path id="Trazado_821284" data-name="Trazado 821284" d="M209.252,100.664H196.629a.749.749,0,0,1,0-1.5h12.623a.749.749,0,0,1,0,1.5" transform="translate(-195.881 -99.165)" fill="#263238"/>
                  </g>
                </g>
              </g>
              <g id="Grupo_1074412" data-name="Grupo 1074412" transform="translate(77.018 79.197)" opacity="0.2">
                <g id="Grupo_1074411" data-name="Grupo 1074411">
                  <g id="Grupo_1074410" data-name="Grupo 1074410" clip-path="url(#clip-path-35)">
                    <path id="Trazado_821285" data-name="Trazado 821285" d="M147.206,107.192H103.534a.749.749,0,0,1,0-1.5h43.672a.749.749,0,1,1,0,1.5" transform="translate(-102.785 -105.693)" fill="#263238"/>
                  </g>
                </g>
              </g>
              <path id="Trazado_821286" data-name="Trazado 821286" d="M207.862,107.192h-40.7a.749.749,0,0,1,0-1.5h40.7a.749.749,0,0,1,0,1.5" transform="translate(-41.716 -26.496)" fill="#407bff"/>
              <path id="Trazado_821287" data-name="Trazado 821287" d="M129.42,113.719H103.534a.749.749,0,0,1,0-1.5H129.42a.749.749,0,1,1,0,1.5" transform="translate(-25.767 -28.132)" fill="#263238"/>
              <path id="Trazado_821288" data-name="Trazado 821288" d="M170.694,113.719H145.2a.749.749,0,1,1,0-1.5h25.493a.749.749,0,1,1,0,1.5" transform="translate(-36.212 -28.132)" fill="#407bff"/>
              <path id="Trazado_821289" data-name="Trazado 821289" d="M212.275,113.719H184.761a.749.749,0,0,1,0-1.5h27.514a.749.749,0,1,1,0,1.5" transform="translate(-46.129 -28.132)" fill="#263238"/>
              <path id="Trazado_821290" data-name="Trazado 821290" d="M136.081,120.247H120.544a.749.749,0,0,1,0-1.5h15.537a.749.749,0,0,1,0,1.5" transform="translate(-30.031 -29.768)" fill="#263238"/>
              <path id="Trazado_821291" data-name="Trazado 821291" d="M164.962,120.247H148a.749.749,0,1,1,0-1.5h16.958a.749.749,0,0,1,0,1.5" transform="translate(-36.915 -29.768)" fill="#263238"/>
              <g id="Grupo_1074415" data-name="Grupo 1074415" transform="translate(131.152 88.98)" opacity="0.2">
                <g id="Grupo_1074414" data-name="Grupo 1074414">
                  <g id="Grupo_1074413" data-name="Grupo 1074413" clip-path="url(#clip-path-36)">
                    <path id="Trazado_821292" data-name="Trazado 821292" d="M203.276,120.247h-27.5a.749.749,0,0,1,0-1.5h27.5a.749.749,0,1,1,0,1.5" transform="translate(-175.029 -118.748)" fill="#263238"/>
                  </g>
                </g>
              </g>
              <g id="Grupo_1074418" data-name="Grupo 1074418" transform="translate(77.018 93.871)" opacity="0.2">
                <g id="Grupo_1074417" data-name="Grupo 1074417">
                  <g id="Grupo_1074416" data-name="Grupo 1074416" clip-path="url(#clip-path-37)">
                    <path id="Trazado_821293" data-name="Trazado 821293" d="M124.432,126.774h-20.9a.749.749,0,0,1,0-1.5h20.9a.749.749,0,0,1,0,1.5" transform="translate(-102.785 -125.275)" fill="#263238"/>
                  </g>
                </g>
              </g>
              <path id="Trazado_821294" data-name="Trazado 821294" d="M127.049,133.3H103.534a.749.749,0,0,1,0-1.5h23.514a.749.749,0,1,1,0,1.5" transform="translate(-25.767 -33.041)" fill="#407bff"/>
              <path id="Trazado_821295" data-name="Trazado 821295" d="M175.482,133.3H140.058a.749.749,0,1,1,0-1.5h35.424a.749.749,0,0,1,0,1.5" transform="translate(-34.923 -33.041)" fill="#263238"/>
              <path id="Trazado_821296" data-name="Trazado 821296" d="M214.358,133.3H193.069a.749.749,0,0,1,0-1.5h21.289a.749.749,0,1,1,0,1.5" transform="translate(-48.212 -33.041)" fill="#263238"/>
              <g id="Grupo_1074421" data-name="Grupo 1074421" transform="translate(84.516 103.653)" opacity="0.2">
                <g id="Grupo_1074420" data-name="Grupo 1074420">
                  <g id="Grupo_1074419" data-name="Grupo 1074419" clip-path="url(#clip-path-38)">
                    <path id="Trazado_821297" data-name="Trazado 821297" d="M127,139.829H113.541a.749.749,0,1,1,0-1.5H127a.749.749,0,0,1,0,1.5" transform="translate(-112.791 -138.33)" fill="#263238"/>
                  </g>
                </g>
              </g>
              <g id="Grupo_1074424" data-name="Grupo 1074424" transform="translate(102.572 103.653)" opacity="0.2">
                <g id="Grupo_1074423" data-name="Grupo 1074423">
                  <g id="Grupo_1074422" data-name="Grupo 1074422" clip-path="url(#clip-path-39)">
                    <path id="Trazado_821298" data-name="Trazado 821298" d="M163.463,139.829H137.638a.749.749,0,0,1,0-1.5h25.824a.749.749,0,0,1,0,1.5" transform="translate(-136.888 -138.33)" fill="#263238"/>
                  </g>
                </g>
              </g>
              <path id="Trazado_821299" data-name="Trazado 821299" d="M204.04,139.829H178.828a.749.749,0,1,1,0-1.5H204.04a.749.749,0,1,1,0,1.5" transform="translate(-44.642 -34.677)" fill="#263238"/>
              <path id="Trazado_821300" data-name="Trazado 821300" d="M139.415,146.356H123.546a.749.749,0,0,1,0-1.5h15.868a.749.749,0,1,1,0,1.5" transform="translate(-30.784 -36.314)" fill="#263238"/>
              <g id="Grupo_1074427" data-name="Grupo 1074427" transform="translate(111.143 108.544)" opacity="0.2">
                <g id="Grupo_1074426" data-name="Grupo 1074426">
                  <g id="Grupo_1074425" data-name="Grupo 1074425" clip-path="url(#clip-path-40)">
                    <path id="Trazado_821301" data-name="Trazado 821301" d="M164.193,146.356H149.075a.749.749,0,0,1,0-1.5h15.118a.749.749,0,1,1,0,1.5" transform="translate(-148.326 -144.857)" fill="#263238"/>
                  </g>
                </g>
              </g>
              <path id="Trazado_821302" data-name="Trazado 821302" d="M203.227,146.356H175.581a.749.749,0,0,1,0-1.5h27.645a.749.749,0,1,1,0,1.5" transform="translate(-43.828 -36.314)" fill="#407bff"/>
              <g id="Grupo_1074430" data-name="Grupo 1074430" transform="translate(92.014 113.435)" opacity="0.2">
                <g id="Grupo_1074429" data-name="Grupo 1074429">
                  <g id="Grupo_1074428" data-name="Grupo 1074428" clip-path="url(#clip-path-41)">
                    <path id="Trazado_821303" data-name="Trazado 821303" d="M142.945,152.884h-19.4a.749.749,0,1,1,0-1.5h19.4a.749.749,0,0,1,0,1.5" transform="translate(-122.798 -151.385)" fill="#263238"/>
                  </g>
                </g>
              </g>
              <g id="Grupo_1074433" data-name="Grupo 1074433" transform="translate(169.708 56.086)" opacity="0.4">
                <g id="Grupo_1074432" data-name="Grupo 1074432">
                  <g id="Grupo_1074431" data-name="Grupo 1074431" clip-path="url(#clip-path-25)">
                    <path id="Trazado_821304" data-name="Trazado 821304" d="M226.485,76.135a1.284,1.284,0,1,0,1.284-1.284,1.284,1.284,0,0,0-1.284,1.284" transform="translate(-226.485 -74.85)" fill="#fff"/>
                  </g>
                </g>
              </g>
              <g id="Grupo_1074436" data-name="Grupo 1074436" transform="translate(165.209 56.086)" opacity="0.4">
                <g id="Grupo_1074435" data-name="Grupo 1074435">
                  <g id="Grupo_1074434" data-name="Grupo 1074434" clip-path="url(#clip-path-25)">
                    <path id="Trazado_821305" data-name="Trazado 821305" d="M220.481,76.135a1.285,1.285,0,1,0,1.284-1.284,1.284,1.284,0,0,0-1.284,1.284" transform="translate(-220.481 -74.85)" fill="#fff"/>
                  </g>
                </g>
              </g>
              <g id="Grupo_1074439" data-name="Grupo 1074439" transform="translate(160.711 56.086)" opacity="0.4">
                <g id="Grupo_1074438" data-name="Grupo 1074438">
                  <g id="Grupo_1074437" data-name="Grupo 1074437" clip-path="url(#clip-path-25)">
                    <path id="Trazado_821306" data-name="Trazado 821306" d="M214.477,76.135a1.285,1.285,0,1,0,1.284-1.284,1.284,1.284,0,0,0-1.284,1.284" transform="translate(-214.477 -74.85)" fill="#fff"/>
                  </g>
                </g>
              </g>
            </g>
          </g>
        </g>
      </g>
      <rect id="Rectángulo_382750" data-name="Rectángulo 382750" width="610" height="261" transform="translate(810 5726)" fill="none"/>
    </g>
    <g id="noun-delete-6412043" transform="translate(1310.972 5676.001)">
      <path id="Trazado_821307" data-name="Trazado 821307" d="M38.435,6.751a1.235,1.235,0,1,1,0,2.471h0a.248.248,0,0,0-.254.254l-.908,24.309a3.354,3.354,0,0,1-3.343,3.2H17.941a3.354,3.354,0,0,1-3.343-3.2L13.69,9.477a.248.248,0,0,0-.254-.254h0a1.235,1.235,0,1,1,0-2.471h6.1a.349.349,0,0,0,.327-.254l.4-1.417A3.7,3.7,0,0,1,23.682,2.5h4.506A3.666,3.666,0,0,1,31.6,5.08L32,6.5a.349.349,0,0,0,.327.254h6.1ZM24.918,13.764V30.77a1.017,1.017,0,0,0,2.035,0V13.764a1.016,1.016,0,0,0-1.017-1.017A1.04,1.04,0,0,0,24.918,13.764Zm-5.487.036.509,17.005a1,1,0,1,0,2-.036l-.509-17.005a1.008,1.008,0,0,0-1.017-.981.986.986,0,0,0-.981,1.017Zm11.01-.073-.509,17.005a1,1,0,0,0,2,.036l.509-17.005a1,1,0,1,0-2-.036ZM22.629,6.751h6.613a.184.184,0,0,0,.182-.254l-.218-.727a1.184,1.184,0,0,0-1.017-.763H23.682a1.246,1.246,0,0,0-1.017.763l-.218.727A.184.184,0,0,0,22.629,6.751Z" transform="translate(-67 81.608)" fill="#3ee2a8"/>
    </g>
  </g>
</svg>
