<svg xmlns="http://www.w3.org/2000/svg" width="86" height="86" viewBox="0 0 86 86">
  <g id="_41" data-name="41" transform="translate(-326 -3483)">
    <circle id="Elipse_9884" data-name="Elipse 9884" cx="43" cy="43" r="43" transform="translate(326 3483)" fill="#ffce00"/>
    <path id="Trazado_820988" data-name="Trazado 820988" d="M18.576,27.629c10.263,0,18.577-2.1,18.577-4.7V16.5c0,2.6-8.315,4.7-18.577,4.7S0,19.1,0,16.5v6.426c0,2.6,8.316,4.7,18.576,4.7" transform="translate(350 3511.23)" fill="#273a89"/>
    <path id="Trazado_820989" data-name="Trazado 820989" d="M18.576,20.979c10.263,0,18.577-2.1,18.577-4.7V9.852c0,2.6-8.315,4.7-18.577,4.7S0,12.448,0,9.852V16.28c0,2.6,8.316,4.7,18.576,4.7" transform="translate(350 3508.015)" fill="#273a89"/>
    <path id="Trazado_820990" data-name="Trazado 820990" d="M18.576,15.831c10.263,0,18.577-2.1,18.577-4.7V4.7c0-2.6-8.315-4.7-18.577-4.7S0,2.107,0,4.7v6.425c0,2.6,8.316,4.7,18.576,4.7m0-13.562c8.46,0,13.91,1.409,15.791,2.434-1.881,1.024-7.331,2.431-15.791,2.431S4.668,5.728,2.787,4.7C4.668,3.679,10.116,2.27,18.576,2.27" transform="translate(350 3503.252)" fill="#273a89"/>
    <path id="Trazado_820991" data-name="Trazado 820991" d="M37.153,29.607V23.182c0,2.6-8.315,4.7-18.577,4.7S0,25.778,0,23.182v6.425c0,2.463,7.466,4.476,16.975,4.68H20c9.594-.181,17.15-2.2,17.15-4.682" transform="translate(350 3514.459)" fill="#273a89"/>
  </g>
</svg>
