<svg xmlns="http://www.w3.org/2000/svg" width="400" height="230" viewBox="0 0 400 230">
  <g id="_67" data-name="67" transform="translate(-600 -2665)">
    <rect id="Rect치ngulo_382983" data-name="Rect치ngulo 382983" width="400" height="230" rx="8" transform="translate(600 2665)" fill="#f3f9ff"/>
    <g id="Elipse_9915" data-name="Elipse 9915" transform="translate(636 2685)" fill="none" stroke="#273a89" stroke-width="2">
      <circle cx="95" cy="95" r="95" stroke="none"/>
      <circle cx="95" cy="95" r="94" fill="none"/>
    </g>
    <g id="Elipse_9916" data-name="Elipse 9916" transform="translate(775 2685)" fill="none" stroke="#273a89" stroke-width="2">
      <circle cx="95" cy="95" r="95" stroke="none"/>
      <circle cx="95" cy="95" r="94" fill="none"/>
    </g>
    <g id="Intersecci칩n_1" data-name="Intersecci칩n 1" transform="translate(11016 -9015)" fill="#ffce00">
      <path d="M -10215.5 11858.2919921875 C -10231.30859375 11840.9462890625 -10240.0009765625 11818.5146484375 -10240.0009765625 11795.001953125 C -10240.0009765625 11771.4873046875 -10231.30859375 11749.0537109375 -10215.5 11731.7080078125 C -10199.69140625 11749.0537109375 -10190.9990234375 11771.4873046875 -10190.9990234375 11795.001953125 C -10190.9990234375 11818.5146484375 -10199.69140625 11840.9462890625 -10215.5 11858.2919921875 Z" stroke="none"/>
      <path d="M -10215.5 11856.7978515625 C -10200.328125 11839.7529296875 -10191.9990234375 11817.8955078125 -10191.9990234375 11795.001953125 C -10191.9990234375 11772.1064453125 -10200.328125 11750.2470703125 -10215.5 11733.2021484375 C -10230.671875 11750.2470703125 -10239.0009765625 11772.1064453125 -10239.0009765625 11795.001953125 C -10239.0009765625 11817.8955078125 -10230.671875 11839.7529296875 -10215.5 11856.7978515625 M -10215.5 11859.767578125 C -10231.3203125 11842.798828125 -10241.0009765625 11820.0302734375 -10241.0009765625 11795.001953125 C -10241.0009765625 11769.9716796875 -10231.3203125 11747.201171875 -10215.5 11730.232421875 C -10199.6796875 11747.201171875 -10189.9990234375 11769.9716796875 -10189.9990234375 11795.001953125 C -10189.9990234375 11820.0302734375 -10199.6796875 11842.798828125 -10215.5 11859.767578125 Z" stroke="none" fill="#273a89"/>
    </g>
    <path id="Trazado_824445" data-name="Trazado 824445" d="M7.859-4.93h-4.5v3.047H8.641V0H1.016V-11.375H8.625v1.9H3.359v2.711h4.5Zm4.125-3.523.07.945a2.971,2.971,0,0,1,2.43-1.1A2.255,2.255,0,0,1,16.727-7.32a2.9,2.9,0,0,1,2.539-1.289,2.521,2.521,0,0,1,2.047.8,3.681,3.681,0,0,1,.672,2.41V0H19.719V-5.391a1.61,1.61,0,0,0-.281-1.051,1.246,1.246,0,0,0-.992-.332,1.409,1.409,0,0,0-1.406.969L17.047,0H14.789V-5.383A1.59,1.59,0,0,0,14.5-6.445a1.259,1.259,0,0,0-.984-.328,1.463,1.463,0,0,0-1.391.8V0H9.867V-8.453Zm19.344,4.3a5.07,5.07,0,0,1-.887,3.129A2.843,2.843,0,0,1,28.047.156a2.633,2.633,0,0,1-2.07-.891V3.25H23.719v-11.7h2.094l.078.828a2.654,2.654,0,0,1,2.141-.984,2.862,2.862,0,0,1,2.43,1.156,5.207,5.207,0,0,1,.867,3.188ZM29.07-4.312a3.327,3.327,0,0,0-.418-1.82,1.361,1.361,0,0,0-1.215-.641,1.478,1.478,0,0,0-1.461.813V-2.5a1.5,1.5,0,0,0,1.477.836Q29.07-1.664,29.07-4.312ZM35.109,0H32.844V-12h2.266Zm5.75.156A4.15,4.15,0,0,1,37.832-.984a4.054,4.054,0,0,1-1.168-3.039v-.219a5.106,5.106,0,0,1,.492-2.277,3.612,3.612,0,0,1,1.395-1.547,3.914,3.914,0,0,1,2.059-.543,3.508,3.508,0,0,1,2.73,1.094,4.444,4.444,0,0,1,1,3.1v.922H38.953a2.1,2.1,0,0,0,.66,1.328,2,2,0,0,0,1.395.5,2.437,2.437,0,0,0,2.039-.945l1.109,1.242A3.389,3.389,0,0,1,42.781-.246,4.511,4.511,0,0,1,40.859.156ZM40.6-6.789a1.411,1.411,0,0,0-1.09.455,2.357,2.357,0,0,0-.535,1.3h3.141v-.181a1.681,1.681,0,0,0-.406-1.165A1.456,1.456,0,0,0,40.6-6.789ZM50.516,0a2.507,2.507,0,0,1-.227-.758,2.732,2.732,0,0,1-2.133.914A3,3,0,0,1,46.1-.562a2.312,2.312,0,0,1-.816-1.812,2.389,2.389,0,0,1,1-2.062,4.915,4.915,0,0,1,2.879-.727H50.2v-.484a1.393,1.393,0,0,0-.3-.937,1.183,1.183,0,0,0-.949-.352,1.345,1.345,0,0,0-.895.273.929.929,0,0,0-.324.75H45.469a2.268,2.268,0,0,1,.453-1.359,3,3,0,0,1,1.281-.98,4.669,4.669,0,0,1,1.859-.355,3.689,3.689,0,0,1,2.48.785,2.747,2.747,0,0,1,.918,2.207v3.664A4.041,4.041,0,0,0,52.8-.133V0ZM48.648-1.57a1.945,1.945,0,0,0,.922-.223,1.462,1.462,0,0,0,.625-.6V-3.844h-.844q-1.7,0-1.8,1.172l-.008.133a.9.9,0,0,0,.3.7A1.153,1.153,0,0,0,48.648-1.57Zm5.2-2.719a5.094,5.094,0,0,1,.887-3.148,2.877,2.877,0,0,1,2.426-1.172,2.589,2.589,0,0,1,2.039.922V-12h2.266V0H59.422l-.109-.9A2.657,2.657,0,0,1,57.141.156,2.869,2.869,0,0,1,54.746-1.02,5.258,5.258,0,0,1,53.844-4.289Zm2.258.168A3.337,3.337,0,0,0,56.516-2.3a1.349,1.349,0,0,0,1.2.634A1.511,1.511,0,0,0,59.2-2.548V-5.889a1.489,1.489,0,0,0-1.461-.884Q56.1-6.773,56.1-4.121ZM62.859-4.3a5.013,5.013,0,0,1,.484-2.242A3.546,3.546,0,0,1,64.738-8.07a4.069,4.069,0,0,1,2.113-.539,3.849,3.849,0,0,1,2.793,1.047,4.2,4.2,0,0,1,1.207,2.844l.016.578A4.418,4.418,0,0,1,69.781-1.02,3.775,3.775,0,0,1,66.867.156a3.793,3.793,0,0,1-2.918-1.172A4.5,4.5,0,0,1,62.859-4.2Zm2.258.16A3.16,3.16,0,0,0,65.57-2.3a1.5,1.5,0,0,0,1.3.638,1.5,1.5,0,0,0,1.281-.63,3.457,3.457,0,0,0,.461-2.015,3.128,3.128,0,0,0-.461-1.831,1.5,1.5,0,0,0-1.3-.649,1.474,1.474,0,0,0-1.281.646A3.516,3.516,0,0,0,65.117-4.144ZM76.836-2.336a.727.727,0,0,0-.41-.652,4.659,4.659,0,0,0-1.316-.426q-3.016-.633-3.016-2.562a2.323,2.323,0,0,1,.934-1.879,3.766,3.766,0,0,1,2.441-.754,4.053,4.053,0,0,1,2.574.758,2.388,2.388,0,0,1,.965,1.969H76.75a1.092,1.092,0,0,0-.312-.8A1.322,1.322,0,0,0,75.461-7a1.351,1.351,0,0,0-.883.258.814.814,0,0,0-.312.656.7.7,0,0,0,.355.605,3.657,3.657,0,0,0,1.2.4,9.8,9.8,0,0,1,1.422.379A2.336,2.336,0,0,1,79.031-2.43a2.2,2.2,0,0,1-.992,1.871,4.28,4.28,0,0,1-2.562.715A4.47,4.47,0,0,1,73.59-.223,3.166,3.166,0,0,1,72.3-1.262a2.414,2.414,0,0,1-.469-1.426h2.141a1.179,1.179,0,0,0,.445.922,1.766,1.766,0,0,0,1.109.32,1.635,1.635,0,0,0,.98-.246A.766.766,0,0,0,76.836-2.336Z" transform="translate(672 2786)" fill="#12263f"/>
    <path id="Trazado_824444" data-name="Trazado 824444" d="M7.438-2.344H3.328L2.547,0H.055L4.289-11.375H6.461L10.719,0H8.227Zm-3.477-1.9H6.8L5.375-8.5ZM16.383-6.336A6.134,6.134,0,0,0,15.57-6.4a1.654,1.654,0,0,0-1.68.867V0H11.633V-8.453h2.133l.063,1.008a2.092,2.092,0,0,1,1.883-1.164,2.366,2.366,0,0,1,.7.1ZM21.359.156A4.15,4.15,0,0,1,18.332-.984a4.054,4.054,0,0,1-1.168-3.039v-.219a5.106,5.106,0,0,1,.492-2.277,3.612,3.612,0,0,1,1.395-1.547,3.914,3.914,0,0,1,2.059-.543,3.508,3.508,0,0,1,2.73,1.094,4.444,4.444,0,0,1,1,3.1v.922H19.453a2.1,2.1,0,0,0,.66,1.328,2,2,0,0,0,1.395.5,2.437,2.437,0,0,0,2.039-.945l1.109,1.242A3.389,3.389,0,0,1,23.281-.246,4.511,4.511,0,0,1,21.359.156ZM21.1-6.789a1.411,1.411,0,0,0-1.09.455,2.357,2.357,0,0,0-.535,1.3h3.141v-.181a1.681,1.681,0,0,0-.406-1.165A1.456,1.456,0,0,0,21.1-6.789ZM31.016,0a2.507,2.507,0,0,1-.227-.758,2.732,2.732,0,0,1-2.133.914A3,3,0,0,1,26.6-.562a2.312,2.312,0,0,1-.816-1.812,2.389,2.389,0,0,1,1-2.062,4.915,4.915,0,0,1,2.879-.727H30.7v-.484a1.393,1.393,0,0,0-.3-.937,1.183,1.183,0,0,0-.949-.352,1.345,1.345,0,0,0-.895.273.929.929,0,0,0-.324.75H25.969a2.268,2.268,0,0,1,.453-1.359,3,3,0,0,1,1.281-.98,4.669,4.669,0,0,1,1.859-.355,3.689,3.689,0,0,1,2.48.785,2.747,2.747,0,0,1,.918,2.207v3.664A4.041,4.041,0,0,0,33.3-.133V0ZM29.148-1.57a1.945,1.945,0,0,0,.922-.223,1.462,1.462,0,0,0,.625-.6V-3.844h-.844q-1.7,0-1.8,1.172l-.008.133a.9.9,0,0,0,.3.7A1.153,1.153,0,0,0,29.148-1.57Zm10.125-.766a.727.727,0,0,0-.41-.652,4.659,4.659,0,0,0-1.316-.426q-3.016-.633-3.016-2.562a2.323,2.323,0,0,1,.934-1.879,3.766,3.766,0,0,1,2.441-.754,4.053,4.053,0,0,1,2.574.758,2.388,2.388,0,0,1,.965,1.969H39.188a1.092,1.092,0,0,0-.312-.8A1.322,1.322,0,0,0,37.9-7a1.351,1.351,0,0,0-.883.258.814.814,0,0,0-.312.656.7.7,0,0,0,.355.605,3.657,3.657,0,0,0,1.2.4A9.8,9.8,0,0,1,39.68-4.7,2.336,2.336,0,0,1,41.469-2.43a2.2,2.2,0,0,1-.992,1.871,4.28,4.28,0,0,1-2.562.715,4.47,4.47,0,0,1-1.887-.379,3.166,3.166,0,0,1-1.293-1.039,2.414,2.414,0,0,1-.469-1.426h2.141a1.179,1.179,0,0,0,.445.922,1.766,1.766,0,0,0,1.109.32,1.635,1.635,0,0,0,.98-.246A.766.766,0,0,0,39.273-2.336Z" transform="translate(866 2786)" fill="#12263f"/>
  </g>
</svg>
