<svg xmlns="http://www.w3.org/2000/svg" width="1030" height="759" viewBox="0 0 1030 759">
  <g id="_69" data-name="69" transform="translate(-286 -3521)">
    <rect id="Rectángulo_382984" data-name="Rectángulo 382984" width="1030" height="759" transform="translate(286 3521)" fill="#f3f9ff"/>
    <g id="Elipse_9917" data-name="Elipse 9917" transform="translate(353 3594)" fill="#ffce00" stroke="#000" stroke-width="1.5">
      <circle cx="61" cy="61" r="61" stroke="none"/>
      <circle cx="61" cy="61" r="60.25" fill="none"/>
    </g>
    <g id="Elipse_9918" data-name="Elipse 9918" transform="translate(440 3594)" fill="none" stroke="#000" stroke-width="1.5">
      <circle cx="61" cy="61" r="61" stroke="none"/>
      <circle cx="61" cy="61" r="60.25" fill="none"/>
    </g>
    <path id="Trazado_824466" data-name="Trazado 824466" d="M7.438-2.344H3.328L2.547,0H.055L4.289-11.375H6.461L10.719,0H8.227Zm-3.477-1.9H6.8L5.375-8.5Z" transform="translate(403 3661)" fill="#12263f"/>
    <path id="Trazado_824454" data-name="Trazado 824454" d="M1.016,0V-11.375H5a5.232,5.232,0,0,1,3.141.793,2.712,2.712,0,0,1,1.07,2.324,2.57,2.57,0,0,1-.43,1.473,2.482,2.482,0,0,1-1.2.934,2.4,2.4,0,0,1,1.379.883,2.61,2.61,0,0,1,.5,1.625A3,3,0,0,1,8.422-.859,4.713,4.713,0,0,1,5.438,0ZM3.359-4.953v3.07H5.367A1.938,1.938,0,0,0,6.66-2.277a1.353,1.353,0,0,0,.465-1.09A1.428,1.428,0,0,0,5.508-4.953Zm0-1.656H5.094q1.773-.031,1.773-1.414a1.307,1.307,0,0,0-.449-1.113A2.363,2.363,0,0,0,5-9.477H3.359Z" transform="translate(503 3661)" fill="#12263f"/>
    <path id="Trazado_824446" data-name="Trazado 824446" d="M2.781-1.883H7.609L7.281,0H.164L2.141-11.375H4.43ZM16.156-4.93H11.8l-.531,3.047h5.125L16.063,0H8.648l1.977-11.375h7.4l-.336,1.9h-5.1l-.477,2.711h4.375Zm8.758.281H20.555L19.742,0H17.453L19.43-11.375h7.2l-.336,1.9H21.391l-.516,2.938H25.25ZM36.148-9.477H32.773L31.133,0H28.844l1.641-9.477H27.148l.336-1.9h9Zm9.641-1.9h2.289L46.742-3.5a4.4,4.4,0,0,1-.719,1.93,3.85,3.85,0,0,1-1.484,1.3,4.184,4.184,0,0,1-1.992.43,3.357,3.357,0,0,1-2.484-.953,3.446,3.446,0,0,1-.828-2.578l2.3.008q-.117,1.609,1.133,1.633a1.5,1.5,0,0,0,1.156-.453,2.358,2.358,0,0,0,.617-1.32ZM52.664.156a4.008,4.008,0,0,1-2-.535A3.612,3.612,0,0,1,49.3-1.855a5.468,5.468,0,0,1-.582-2.215A8.9,8.9,0,0,1,48.992-6.8a7.3,7.3,0,0,1,1.156-2.555,5.256,5.256,0,0,1,1.871-1.648,4.844,4.844,0,0,1,2.324-.523,3.966,3.966,0,0,1,2.008.543A3.587,3.587,0,0,1,57.7-9.5a5.532,5.532,0,0,1,.563,2.207,9.188,9.188,0,0,1-.3,2.828A7.177,7.177,0,0,1,56.8-1.945,5.216,5.216,0,0,1,54.957-.352,4.83,4.83,0,0,1,52.664.156ZM55.906-6l.063-.742A3.626,3.626,0,0,0,55.6-8.852a1.567,1.567,0,0,0-1.363-.75,2.473,2.473,0,0,0-2.27,1.266,7.455,7.455,0,0,0-.949,3.672,3.762,3.762,0,0,0,.367,2.129,1.563,1.563,0,0,0,1.383.777A2.345,2.345,0,0,0,54.8-2.715a5.79,5.79,0,0,0,1.055-2.863Zm5.422,6H59.039l1.969-11.375H63.3ZM72.484,0H70.266L67.1-7.586,65.781,0H63.492l1.977-11.375H67.68l3.172,7.6,1.32-7.6h2.281Z" transform="translate(419 3748)" fill="#12263f"/>
    <g id="Elipse_9920" data-name="Elipse 9920" transform="translate(1087 3594)" fill="#ffce00" stroke="#000" stroke-width="1.5">
      <circle cx="61" cy="61" r="61" stroke="none"/>
      <circle cx="61" cy="61" r="60.25" fill="none"/>
    </g>
    <path id="Trazado_824452" data-name="Trazado 824452" d="M7.438-2.344H3.328L2.547,0H.055L4.289-11.375H6.461L10.719,0H8.227Zm-3.477-1.9H6.8L5.375-8.5Z" transform="translate(1050 3661)" fill="#12263f"/>
    <path id="Trazado_824453" data-name="Trazado 824453" d="M1.016,0V-11.375H5a5.232,5.232,0,0,1,3.141.793,2.712,2.712,0,0,1,1.07,2.324,2.57,2.57,0,0,1-.43,1.473,2.482,2.482,0,0,1-1.2.934,2.4,2.4,0,0,1,1.379.883,2.61,2.61,0,0,1,.5,1.625A3,3,0,0,1,8.422-.859,4.713,4.713,0,0,1,5.438,0ZM3.359-4.953v3.07H5.367A1.938,1.938,0,0,0,6.66-2.277a1.353,1.353,0,0,0,.465-1.09A1.428,1.428,0,0,0,5.508-4.953Zm0-1.656H5.094q1.773-.031,1.773-1.414a1.307,1.307,0,0,0-.449-1.113A2.363,2.363,0,0,0,5-9.477H3.359Z" transform="translate(1150 3661)" fill="#12263f"/>
    <path id="Trazado_824449" data-name="Trazado 824449" d="M5.039-4.164H3.18L2.453,0H.164L2.141-11.375l3.766.008a4.289,4.289,0,0,1,2.91.891A2.817,2.817,0,0,1,9.719-8a3.574,3.574,0,0,1-2.5,3.258L8.82-.125V0H6.383Zm-1.531-1.9,1.7.016a2.386,2.386,0,0,0,1.5-.488A1.933,1.933,0,0,0,7.414-7.82a1.473,1.473,0,0,0-.242-1.187,1.442,1.442,0,0,0-1.117-.461L4.1-9.477ZM12.586,0H10.3l1.969-11.375h2.289ZM23.867-1.437A3.837,3.837,0,0,1,22.082-.246,7.523,7.523,0,0,1,19.43.148a4.114,4.114,0,0,1-2.047-.512,3.572,3.572,0,0,1-1.391-1.449,5.128,5.128,0,0,1-.578-2.156,9.841,9.841,0,0,1,.238-2.645,7.438,7.438,0,0,1,1.086-2.664,5.076,5.076,0,0,1,1.848-1.711,4.868,4.868,0,0,1,2.391-.543,3.954,3.954,0,0,1,2.789,1,4.165,4.165,0,0,1,1.148,2.785l-2.2-.008A2.331,2.331,0,0,0,22.2-9.156a1.731,1.731,0,0,0-1.258-.484,2.467,2.467,0,0,0-2.277,1.27,7.9,7.9,0,0,0-.949,3.816,3.355,3.355,0,0,0,.41,2.07,1.7,1.7,0,0,0,1.488.75A3.171,3.171,0,0,0,21.6-2.289l.383-1.961H19.906l.3-1.727h4.344ZM34.4,0H32.109l.844-4.875H28.539L27.688,0H25.4l1.977-11.375h2.289l-.8,4.609h4.422l.8-4.609h2.289ZM46.18-9.477H42.8L41.164,0H38.875l1.641-9.477H37.18l.336-1.9h9Zm9.641-1.9h2.289L56.773-3.5a4.4,4.4,0,0,1-.719,1.93,3.85,3.85,0,0,1-1.484,1.3,4.184,4.184,0,0,1-1.992.43,3.357,3.357,0,0,1-2.484-.953,3.446,3.446,0,0,1-.828-2.578l2.3.008Q51.453-1.75,52.7-1.727a1.5,1.5,0,0,0,1.156-.453,2.358,2.358,0,0,0,.617-1.32ZM62.7.156a4.008,4.008,0,0,1-2-.535,3.612,3.612,0,0,1-1.367-1.477A5.468,5.468,0,0,1,58.75-4.07,8.9,8.9,0,0,1,59.023-6.8,7.3,7.3,0,0,1,60.18-9.359a5.256,5.256,0,0,1,1.871-1.648,4.844,4.844,0,0,1,2.324-.523,3.966,3.966,0,0,1,2.008.543A3.587,3.587,0,0,1,67.734-9.5,5.532,5.532,0,0,1,68.3-7.289,9.188,9.188,0,0,1,68-4.461a7.177,7.177,0,0,1-1.164,2.516A5.216,5.216,0,0,1,64.988-.352,4.83,4.83,0,0,1,62.7.156ZM65.938-6,66-6.742a3.626,3.626,0,0,0-.371-2.109,1.567,1.567,0,0,0-1.363-.75A2.473,2.473,0,0,0,62-8.336a7.455,7.455,0,0,0-.949,3.672,3.762,3.762,0,0,0,.367,2.129,1.563,1.563,0,0,0,1.383.777,2.345,2.345,0,0,0,2.031-.957,5.79,5.79,0,0,0,1.055-2.863Zm5.422,6H69.07l1.969-11.375h2.289ZM82.516,0H80.3L77.133-7.586,75.813,0H73.523L75.5-11.375h2.211l3.172,7.6,1.32-7.6h2.281Z" transform="translate(1061 3748)" fill="#12263f"/>
    <g id="Elipse_9919" data-name="Elipse 9919" transform="translate(1000 3594)" fill="none" stroke="#000" stroke-width="1.5">
      <circle cx="61" cy="61" r="61" stroke="none"/>
      <circle cx="61" cy="61" r="60.25" fill="none"/>
    </g>
    <g id="Elipse_9921" data-name="Elipse 9921" transform="translate(696 3716)" fill="#ffce00" stroke="#000" stroke-width="1.5">
      <circle cx="61" cy="61" r="61" stroke="none"/>
      <circle cx="61" cy="61" r="60.25" fill="none"/>
    </g>
    <g id="Elipse_9922" data-name="Elipse 9922" transform="translate(783 3716)" fill="#ffce00" stroke="#000" stroke-width="1.5">
      <circle cx="61" cy="61" r="61" stroke="none"/>
      <circle cx="61" cy="61" r="60.25" fill="none"/>
    </g>
    <path id="Trazado_824464" data-name="Trazado 824464" d="M7.438-2.344H3.328L2.547,0H.055L4.289-11.375H6.461L10.719,0H8.227Zm-3.477-1.9H6.8L5.375-8.5Z" transform="translate(746 3783)" fill="#12263f"/>
    <path id="Trazado_824465" data-name="Trazado 824465" d="M1.016,0V-11.375H5a5.232,5.232,0,0,1,3.141.793,2.712,2.712,0,0,1,1.07,2.324,2.57,2.57,0,0,1-.43,1.473,2.482,2.482,0,0,1-1.2.934,2.4,2.4,0,0,1,1.379.883,2.61,2.61,0,0,1,.5,1.625A3,3,0,0,1,8.422-.859,4.713,4.713,0,0,1,5.438,0ZM3.359-4.953v3.07H5.367A1.938,1.938,0,0,0,6.66-2.277a1.353,1.353,0,0,0,.465-1.09A1.428,1.428,0,0,0,5.508-4.953Zm0-1.656H5.094q1.773-.031,1.773-1.414a1.307,1.307,0,0,0-.449-1.113A2.363,2.363,0,0,0,5-9.477H3.359Z" transform="translate(846 3783)" fill="#12263f"/>
    <path id="Trazado_824447" data-name="Trazado 824447" d="M7.625-4.648H3.266L2.453,0H.164L2.141-11.375h7.2l-.336,1.9H4.1L3.586-6.539H7.961Zm11.492-6.727-1.281,7.5A4.571,4.571,0,0,1,16.273-.9,4.7,4.7,0,0,1,13.055.164a4.335,4.335,0,0,1-2.09-.527A3.077,3.077,0,0,1,9.656-1.785a3.855,3.855,0,0,1-.289-2.082l1.273-7.508H12.93L11.656-3.859a3.339,3.339,0,0,0-.008.82,1.385,1.385,0,0,0,1.508,1.313,2.154,2.154,0,0,0,1.586-.531,2.721,2.721,0,0,0,.8-1.609l1.281-7.508Zm2.539,9.492h4.828L26.156,0H19.039l1.977-11.375H23.3Zm8.484,0h4.828L34.641,0H27.523L29.5-11.375h2.289ZM44.523.156a4.008,4.008,0,0,1-2-.535A3.612,3.612,0,0,1,41.16-1.855a5.468,5.468,0,0,1-.582-2.215A8.9,8.9,0,0,1,40.852-6.8a7.3,7.3,0,0,1,1.156-2.555,5.256,5.256,0,0,1,1.871-1.648,4.844,4.844,0,0,1,2.324-.523,3.966,3.966,0,0,1,2.008.543A3.587,3.587,0,0,1,49.563-9.5a5.532,5.532,0,0,1,.563,2.207,9.188,9.188,0,0,1-.3,2.828,7.177,7.177,0,0,1-1.164,2.516A5.216,5.216,0,0,1,46.816-.352,4.83,4.83,0,0,1,44.523.156ZM47.766-6l.063-.742a3.626,3.626,0,0,0-.371-2.109,1.567,1.567,0,0,0-1.363-.75,2.473,2.473,0,0,0-2.27,1.266,7.455,7.455,0,0,0-.949,3.672,3.762,3.762,0,0,0,.367,2.129,1.563,1.563,0,0,0,1.383.777,2.345,2.345,0,0,0,2.031-.957,5.79,5.79,0,0,0,1.055-2.863Zm13.359-5.375-1.281,7.5A4.571,4.571,0,0,1,58.281-.9,4.7,4.7,0,0,1,55.063.164a4.335,4.335,0,0,1-2.09-.527,3.077,3.077,0,0,1-1.309-1.422,3.855,3.855,0,0,1-.289-2.082l1.273-7.508h2.289L53.664-3.859a3.339,3.339,0,0,0-.008.82,1.385,1.385,0,0,0,1.508,1.313,2.154,2.154,0,0,0,1.586-.531,2.721,2.721,0,0,0,.8-1.609l1.281-7.508Zm9.883,1.9H67.633L65.992,0H63.7l1.641-9.477H62.008l.336-1.9h9ZM78.234-4.93H73.875l-.531,3.047h5.125L78.141,0H70.727L72.7-11.375h7.4l-.336,1.9h-5.1l-.477,2.711h4.375Zm6.172.766H82.547L81.82,0H79.531l1.977-11.375,3.766.008a4.289,4.289,0,0,1,2.91.891A2.817,2.817,0,0,1,89.086-8a3.574,3.574,0,0,1-2.5,3.258l1.6,4.617V0H85.75Zm-1.531-1.9,1.7.016a2.386,2.386,0,0,0,1.5-.488,1.933,1.933,0,0,0,.707-1.285,1.473,1.473,0,0,0-.242-1.187,1.442,1.442,0,0,0-1.117-.461l-1.953-.008Zm17.031-5.312H102.2L100.859-3.5a4.4,4.4,0,0,1-.719,1.93,3.85,3.85,0,0,1-1.484,1.3,4.184,4.184,0,0,1-1.992.43A3.357,3.357,0,0,1,94.18-.789a3.446,3.446,0,0,1-.828-2.578l2.3.008q-.117,1.609,1.133,1.633a1.5,1.5,0,0,0,1.156-.453,2.358,2.358,0,0,0,.617-1.32ZM106.781.156a4.008,4.008,0,0,1-2-.535,3.612,3.612,0,0,1-1.367-1.477,5.468,5.468,0,0,1-.582-2.215,8.9,8.9,0,0,1,.273-2.734,7.3,7.3,0,0,1,1.156-2.555,5.256,5.256,0,0,1,1.871-1.648,4.844,4.844,0,0,1,2.324-.523,3.966,3.966,0,0,1,2.008.543A3.587,3.587,0,0,1,111.82-9.5a5.532,5.532,0,0,1,.563,2.207,9.188,9.188,0,0,1-.3,2.828,7.177,7.177,0,0,1-1.164,2.516,5.216,5.216,0,0,1-1.848,1.594A4.83,4.83,0,0,1,106.781.156ZM110.023-6l.063-.742a3.626,3.626,0,0,0-.371-2.109,1.567,1.567,0,0,0-1.363-.75,2.473,2.473,0,0,0-2.27,1.266,7.455,7.455,0,0,0-.949,3.672,3.762,3.762,0,0,0,.367,2.129,1.563,1.563,0,0,0,1.383.777,2.345,2.345,0,0,0,2.031-.957,5.79,5.79,0,0,0,1.055-2.863Zm5.422,6h-2.289l1.969-11.375h2.289ZM126.6,0h-2.219l-3.164-7.586L119.9,0h-2.289l1.977-11.375H121.8l3.172,7.6,1.32-7.6h2.281Z" transform="translate(735 3870)" fill="#12263f"/>
    <g id="Intersección_2" data-name="Intersección 2" transform="translate(11076 -7983.5)" fill="#ffce00">
      <path d="M -10275.5 11802.6865234375 C -10277.962890625 11800.1171875 -10280.20703125 11797.3203125 -10282.17578125 11794.3642578125 C -10284.3076171875 11791.1650390625 -10286.1376953125 11787.7490234375 -10287.6162109375 11784.2109375 C -10290.6904296875 11776.853515625 -10292.2490234375 11769.044921875 -10292.2490234375 11761.0009765625 C -10292.2490234375 11752.95703125 -10290.6904296875 11745.1484375 -10287.6162109375 11737.791015625 C -10286.1376953125 11734.2529296875 -10284.3076171875 11730.8369140625 -10282.17578125 11727.6376953125 C -10280.20703125 11724.681640625 -10277.962890625 11721.884765625 -10275.5 11719.3154296875 C -10273.037109375 11721.884765625 -10270.79296875 11724.681640625 -10268.82421875 11727.6376953125 C -10266.6923828125 11730.8369140625 -10264.8623046875 11734.2529296875 -10263.3837890625 11737.791015625 C -10260.3095703125 11745.1484375 -10258.7509765625 11752.95703125 -10258.7509765625 11761.0009765625 C -10258.7509765625 11769.044921875 -10260.3095703125 11776.853515625 -10263.3837890625 11784.2109375 C -10264.8623046875 11787.7490234375 -10266.6923828125 11791.1650390625 -10268.82421875 11794.3642578125 C -10270.79296875 11797.3203125 -10273.037109375 11800.1171875 -10275.5 11802.6865234375 Z" stroke="none"/>
      <path d="M -10275.5 11720.40625 C -10277.720703125 11722.7861328125 -10279.751953125 11725.3525390625 -10281.5517578125 11728.0537109375 C -10283.6572265625 11731.212890625 -10285.46484375 11734.5869140625 -10286.923828125 11738.080078125 C -10289.9599609375 11745.3447265625 -10291.4990234375 11753.056640625 -10291.4990234375 11761.0009765625 C -10291.4990234375 11768.9453125 -10289.9599609375 11776.6572265625 -10286.923828125 11783.921875 C -10285.46484375 11787.4150390625 -10283.6572265625 11790.7890625 -10281.5517578125 11793.9482421875 C -10279.751953125 11796.6494140625 -10277.720703125 11799.2158203125 -10275.5 11801.595703125 C -10273.279296875 11799.2158203125 -10271.248046875 11796.6494140625 -10269.4482421875 11793.9482421875 C -10267.3427734375 11790.7890625 -10265.53515625 11787.4150390625 -10264.076171875 11783.921875 C -10261.0400390625 11776.6572265625 -10259.5009765625 11768.9453125 -10259.5009765625 11761.0009765625 C -10259.5009765625 11753.056640625 -10261.0400390625 11745.3447265625 -10264.076171875 11738.080078125 C -10265.53515625 11734.5869140625 -10267.3427734375 11731.212890625 -10269.4482421875 11728.0537109375 C -10271.248046875 11725.3525390625 -10273.279296875 11722.7861328125 -10275.5 11720.40625 M -10275.5 11718.23828125 C -10264.6767578125 11729.2470703125 -10258.0009765625 11744.34375 -10258.0009765625 11761.0009765625 C -10258.0009765625 11777.658203125 -10264.6767578125 11792.7548828125 -10275.5 11803.763671875 C -10286.3232421875 11792.7548828125 -10292.9990234375 11777.658203125 -10292.9990234375 11761.0009765625 C -10292.9990234375 11744.34375 -10286.3232421875 11729.2470703125 -10275.5 11718.23828125 Z" stroke="none" fill="#000"/>
    </g>
    <g id="Elipse_9925" data-name="Elipse 9925" transform="translate(353 3811)" fill="#ffce00" stroke="#000" stroke-width="1.5">
      <circle cx="61" cy="61" r="61" stroke="none"/>
      <circle cx="61" cy="61" r="60.25" fill="none"/>
    </g>
    <g id="Elipse_9926" data-name="Elipse 9926" transform="translate(440 3811)" fill="none" stroke="#000" stroke-width="1.5">
      <circle cx="61" cy="61" r="61" stroke="none"/>
      <circle cx="61" cy="61" r="60.25" fill="none"/>
    </g>
    <path id="Trazado_824456" data-name="Trazado 824456" d="M7.438-2.344H3.328L2.547,0H.055L4.289-11.375H6.461L10.719,0H8.227Zm-3.477-1.9H6.8L5.375-8.5Z" transform="translate(403 3878)" fill="#12263f"/>
    <path id="Trazado_824455" data-name="Trazado 824455" d="M1.016,0V-11.375H5a5.232,5.232,0,0,1,3.141.793,2.712,2.712,0,0,1,1.07,2.324,2.57,2.57,0,0,1-.43,1.473,2.482,2.482,0,0,1-1.2.934,2.4,2.4,0,0,1,1.379.883,2.61,2.61,0,0,1,.5,1.625A3,3,0,0,1,8.422-.859,4.713,4.713,0,0,1,5.438,0ZM3.359-4.953v3.07H5.367A1.938,1.938,0,0,0,6.66-2.277a1.353,1.353,0,0,0,.465-1.09A1.428,1.428,0,0,0,5.508-4.953Zm0-1.656H5.094q1.773-.031,1.773-1.414a1.307,1.307,0,0,0-.449-1.113A2.363,2.363,0,0,0,5-9.477H3.359Z" transform="translate(503 3878)" fill="#12263f"/>
    <path id="Trazado_824463" data-name="Trazado 824463" d="M-80.359-1.883h4.828L-75.859,0h-7.117L-81-11.375h2.289ZM-66.984-4.93h-4.359l-.531,3.047h5.125L-67.078,0h-7.414l1.977-11.375h7.4l-.336,1.9h-5.1l-.477,2.711h4.375Zm8.758.281h-4.359L-63.4,0h-2.289l1.977-11.375h7.2l-.336,1.9H-61.75l-.516,2.938h4.375Zm11.234-4.828h-3.375L-52.008,0H-54.3l1.641-9.477h-3.336l.336-1.9h9Zm9.641-1.9h2.289L-36.4-3.5a4.4,4.4,0,0,1-.719,1.93A3.85,3.85,0,0,1-38.6-.266a4.184,4.184,0,0,1-1.992.43,3.357,3.357,0,0,1-2.484-.953,3.446,3.446,0,0,1-.828-2.578l2.3.008q-.117,1.609,1.133,1.633a1.5,1.5,0,0,0,1.156-.453A2.358,2.358,0,0,0-38.7-3.5ZM-30.477.156a4.008,4.008,0,0,1-2-.535A3.612,3.612,0,0,1-33.84-1.855a5.468,5.468,0,0,1-.582-2.215A8.9,8.9,0,0,1-34.148-6.8a7.3,7.3,0,0,1,1.156-2.555,5.256,5.256,0,0,1,1.871-1.648,4.844,4.844,0,0,1,2.324-.523,3.966,3.966,0,0,1,2.008.543A3.587,3.587,0,0,1-25.437-9.5a5.532,5.532,0,0,1,.563,2.207,9.188,9.188,0,0,1-.3,2.828,7.177,7.177,0,0,1-1.164,2.516A5.216,5.216,0,0,1-28.184-.352,4.83,4.83,0,0,1-30.477.156ZM-27.234-6l.063-.742a3.626,3.626,0,0,0-.371-2.109,1.567,1.567,0,0,0-1.363-.75,2.473,2.473,0,0,0-2.27,1.266,7.455,7.455,0,0,0-.949,3.672,3.762,3.762,0,0,0,.367,2.129,1.563,1.563,0,0,0,1.383.777,2.345,2.345,0,0,0,2.031-.957,5.79,5.79,0,0,0,1.055-2.863Zm5.422,6H-24.1l1.969-11.375h2.289Zm11.156,0h-2.219l-3.164-7.586L-17.359,0h-2.289l1.977-11.375h2.211l3.172,7.6,1.32-7.6h2.281Zm13.5-4.93H-1.516l-.531,3.047H3.078L2.75,0H-4.664l1.977-11.375h7.4l-.336,1.9h-5.1L-1.2-6.766H3.172ZM9.281-7.469l2.68-3.906h2.75l-4.18,5.75L12.891,0H10.359L8.867-3.969,6.125,0H3.344L7.617-5.844,5.328-11.375h2.5ZM23.352-3.8a4.254,4.254,0,0,1-.8,2.09,4.375,4.375,0,0,1-1.75,1.4,5.329,5.329,0,0,1-2.328.465,3.936,3.936,0,0,1-1.961-.52A3.443,3.443,0,0,1,15.191-1.8a5.312,5.312,0,0,1-.543-2.168,10.634,10.634,0,0,1,.2-2.391A7.578,7.578,0,0,1,15.754-8.9,5.666,5.666,0,0,1,17.3-10.656a4.679,4.679,0,0,1,2.891-.875,3.839,3.839,0,0,1,2.8,1.09A4.384,4.384,0,0,1,24.133-7.5l-2.281-.008a2.391,2.391,0,0,0-.43-1.578,1.752,1.752,0,0,0-1.336-.531,2.319,2.319,0,0,0-1.926.836,5.027,5.027,0,0,0-1.012,2.555,14.155,14.155,0,0,0-.219,2.445,2.434,2.434,0,0,0,.461,1.52,1.543,1.543,0,0,0,1.18.512,2.356,2.356,0,0,0,1.676-.5,2.625,2.625,0,0,0,.832-1.535ZM26.93-1.883h4.828L31.43,0H24.313l1.977-11.375h2.289Zm16.055-9.492L41.7-3.875A4.571,4.571,0,0,1,40.141-.9,4.7,4.7,0,0,1,36.922.164a4.335,4.335,0,0,1-2.09-.527,3.077,3.077,0,0,1-1.309-1.422,3.855,3.855,0,0,1-.289-2.082l1.273-7.508H36.8L35.523-3.859a3.339,3.339,0,0,0-.008.82,1.385,1.385,0,0,0,1.508,1.313,2.154,2.154,0,0,0,1.586-.531,2.721,2.721,0,0,0,.8-1.609l1.281-7.508ZM42.906,0l1.977-11.375,3.266.008a4.473,4.473,0,0,1,2.066.52A3.905,3.905,0,0,1,51.7-9.422a4.883,4.883,0,0,1,.688,2.094,6.911,6.911,0,0,1-.016,1.391l-.055.414a6.5,6.5,0,0,1-1.965,4.012A5.558,5.558,0,0,1,46.422,0Zm3.938-9.477-1.32,7.594.953.008a3.127,3.127,0,0,0,2.535-1.156,5.976,5.976,0,0,0,1.1-3.492l.016-.25a3.151,3.151,0,0,0-.492-1.977,1.879,1.879,0,0,0-1.539-.719ZM55.508,0H53.219l1.969-11.375h2.289ZM66.664,0H64.445L61.281-7.586,59.961,0H57.672l1.977-11.375h2.211l3.172,7.6,1.32-7.6h2.281ZM77.828-1.437A3.837,3.837,0,0,1,76.043-.246a7.523,7.523,0,0,1-2.652.395,4.114,4.114,0,0,1-2.047-.512,3.572,3.572,0,0,1-1.391-1.449,5.128,5.128,0,0,1-.578-2.156,9.841,9.841,0,0,1,.238-2.645A7.438,7.438,0,0,1,70.7-9.277a5.076,5.076,0,0,1,1.848-1.711,4.868,4.868,0,0,1,2.391-.543,3.954,3.954,0,0,1,2.789,1,4.165,4.165,0,0,1,1.148,2.785l-2.2-.008a2.331,2.331,0,0,0-.508-1.406,1.731,1.731,0,0,0-1.258-.484,2.467,2.467,0,0,0-2.277,1.27,7.9,7.9,0,0,0-.949,3.816,3.355,3.355,0,0,0,.41,2.07,1.7,1.7,0,0,0,1.488.75,3.171,3.171,0,0,0,1.984-.555l.383-1.961H73.867l.3-1.727h4.344ZM-39.7,24h-2.289l1.969-11.375h2.289Zm11.156,0h-2.219l-3.164-7.586L-35.246,24h-2.289l1.977-11.375h2.211l3.172,7.6,1.32-7.6h2.281ZM-17.5,24h-2.219l-3.164-7.586L-24.207,24H-26.5l1.977-11.375h2.211l3.172,7.6,1.32-7.6h2.281Zm9.555-4.93h-4.359l-.531,3.047h5.125L-8.043,24h-7.414l1.977-11.375h7.4l-.336,1.9h-5.1L-12,17.234h4.375Zm6.172.766H-3.637L-4.363,24H-6.652l1.977-11.375,3.766.008A4.289,4.289,0,0,1,2,13.523,2.817,2.817,0,0,1,2.9,16,3.574,3.574,0,0,1,.4,19.258L2,23.875V24H-.434Zm-1.531-1.9,1.7.016a2.386,2.386,0,0,0,1.5-.488A1.933,1.933,0,0,0,.6,16.18a1.473,1.473,0,0,0-.242-1.187,1.442,1.442,0,0,0-1.117-.461l-1.953-.008Zm17.031-5.312h2.289L14.676,20.5a4.4,4.4,0,0,1-.719,1.93,3.85,3.85,0,0,1-1.484,1.3,4.184,4.184,0,0,1-1.992.43A3.357,3.357,0,0,1,8,23.211a3.446,3.446,0,0,1-.828-2.578l2.3.008q-.117,1.609,1.133,1.633a1.5,1.5,0,0,0,1.156-.453,2.358,2.358,0,0,0,.617-1.32ZM20.6,24.156a4.008,4.008,0,0,1-2-.535,3.612,3.612,0,0,1-1.367-1.477,5.468,5.468,0,0,1-.582-2.215,8.9,8.9,0,0,1,.273-2.734,7.3,7.3,0,0,1,1.156-2.555,5.256,5.256,0,0,1,1.871-1.648,4.844,4.844,0,0,1,2.324-.523,3.966,3.966,0,0,1,2.008.543A3.587,3.587,0,0,1,25.637,14.5a5.532,5.532,0,0,1,.563,2.207,9.188,9.188,0,0,1-.3,2.828,7.177,7.177,0,0,1-1.164,2.516,5.216,5.216,0,0,1-1.848,1.594A4.83,4.83,0,0,1,20.6,24.156ZM23.84,18l.063-.742a3.626,3.626,0,0,0-.371-2.109,1.567,1.567,0,0,0-1.363-.75,2.473,2.473,0,0,0-2.27,1.266,7.455,7.455,0,0,0-.949,3.672,3.762,3.762,0,0,0,.367,2.129,1.563,1.563,0,0,0,1.383.777,2.345,2.345,0,0,0,2.031-.957,5.79,5.79,0,0,0,1.055-2.863Zm5.422,6H26.973l1.969-11.375H31.23Zm11.156,0H38.2l-3.164-7.586L33.715,24H31.426L33.4,12.625h2.211l3.172,7.6,1.32-7.6h2.281Z" transform="translate(455 3973)" fill="#12263f"/>
    <g id="Intersección_3" data-name="Intersección 3" transform="translate(10733 -7888.5)" fill="#fff">
      <path d="M -10275.5 11802.6865234375 C -10277.962890625 11800.1171875 -10280.20703125 11797.3203125 -10282.17578125 11794.3642578125 C -10284.3076171875 11791.1650390625 -10286.1376953125 11787.7490234375 -10287.6162109375 11784.2109375 C -10290.6904296875 11776.853515625 -10292.2490234375 11769.044921875 -10292.2490234375 11761.0009765625 C -10292.2490234375 11752.95703125 -10290.6904296875 11745.1484375 -10287.6162109375 11737.791015625 C -10286.1376953125 11734.2529296875 -10284.3076171875 11730.8369140625 -10282.17578125 11727.6376953125 C -10280.20703125 11724.681640625 -10277.962890625 11721.884765625 -10275.5 11719.3154296875 C -10273.037109375 11721.884765625 -10270.79296875 11724.681640625 -10268.82421875 11727.6376953125 C -10266.6923828125 11730.8369140625 -10264.8623046875 11734.2529296875 -10263.3837890625 11737.791015625 C -10260.3095703125 11745.1484375 -10258.7509765625 11752.95703125 -10258.7509765625 11761.0009765625 C -10258.7509765625 11769.044921875 -10260.3095703125 11776.853515625 -10263.3837890625 11784.2109375 C -10264.8623046875 11787.7490234375 -10266.6923828125 11791.1650390625 -10268.82421875 11794.3642578125 C -10270.79296875 11797.3203125 -10273.037109375 11800.1171875 -10275.5 11802.6865234375 Z" stroke="none"/>
      <path d="M -10275.5 11720.40625 C -10277.720703125 11722.7861328125 -10279.751953125 11725.3525390625 -10281.5517578125 11728.0537109375 C -10283.6572265625 11731.212890625 -10285.46484375 11734.5869140625 -10286.923828125 11738.080078125 C -10289.9599609375 11745.3447265625 -10291.4990234375 11753.056640625 -10291.4990234375 11761.0009765625 C -10291.4990234375 11768.9453125 -10289.9599609375 11776.6572265625 -10286.923828125 11783.921875 C -10285.46484375 11787.4150390625 -10283.6572265625 11790.7890625 -10281.5517578125 11793.9482421875 C -10279.751953125 11796.6494140625 -10277.720703125 11799.2158203125 -10275.5 11801.595703125 C -10273.279296875 11799.2158203125 -10271.248046875 11796.6494140625 -10269.4482421875 11793.9482421875 C -10267.3427734375 11790.7890625 -10265.53515625 11787.4150390625 -10264.076171875 11783.921875 C -10261.0400390625 11776.6572265625 -10259.5009765625 11768.9453125 -10259.5009765625 11761.0009765625 C -10259.5009765625 11753.056640625 -10261.0400390625 11745.3447265625 -10264.076171875 11738.080078125 C -10265.53515625 11734.5869140625 -10267.3427734375 11731.212890625 -10269.4482421875 11728.0537109375 C -10271.248046875 11725.3525390625 -10273.279296875 11722.7861328125 -10275.5 11720.40625 M -10275.5 11718.23828125 C -10264.6767578125 11729.2470703125 -10258.0009765625 11744.34375 -10258.0009765625 11761.0009765625 C -10258.0009765625 11777.658203125 -10264.6767578125 11792.7548828125 -10275.5 11803.763671875 C -10286.3232421875 11792.7548828125 -10292.9990234375 11777.658203125 -10292.9990234375 11761.0009765625 C -10292.9990234375 11744.34375 -10286.3232421875 11729.2470703125 -10275.5 11718.23828125 Z" stroke="none" fill="#000"/>
    </g>
    <g id="Elipse_9929" data-name="Elipse 9929" transform="translate(1000 3811)" fill="#fff" stroke="#000" stroke-width="1.5">
      <circle cx="61" cy="61" r="61" stroke="none"/>
      <circle cx="61" cy="61" r="60.25" fill="none"/>
    </g>
    <g id="Elipse_9930" data-name="Elipse 9930" transform="translate(1087 3811)" fill="#ffce00" stroke="#000" stroke-width="1.5">
      <circle cx="61" cy="61" r="61" stroke="none"/>
      <circle cx="61" cy="61" r="60.25" fill="none"/>
    </g>
    <path id="Trazado_824451" data-name="Trazado 824451" d="M7.438-2.344H3.328L2.547,0H.055L4.289-11.375H6.461L10.719,0H8.227Zm-3.477-1.9H6.8L5.375-8.5Z" transform="translate(1050 3878)" fill="#12263f"/>
    <path id="Trazado_824450" data-name="Trazado 824450" d="M1.016,0V-11.375H5a5.232,5.232,0,0,1,3.141.793,2.712,2.712,0,0,1,1.07,2.324,2.57,2.57,0,0,1-.43,1.473,2.482,2.482,0,0,1-1.2.934,2.4,2.4,0,0,1,1.379.883,2.61,2.61,0,0,1,.5,1.625A3,3,0,0,1,8.422-.859,4.713,4.713,0,0,1,5.438,0ZM3.359-4.953v3.07H5.367A1.938,1.938,0,0,0,6.66-2.277a1.353,1.353,0,0,0,.465-1.09A1.428,1.428,0,0,0,5.508-4.953Zm0-1.656H5.094q1.773-.031,1.773-1.414a1.307,1.307,0,0,0-.449-1.113A2.363,2.363,0,0,0,5-9.477H3.359Z" transform="translate(1150 3878)" fill="#12263f"/>
    <path id="Trazado_824448" data-name="Trazado 824448" d="M-81.145-4.164H-83L-83.73,0H-86.02l1.977-11.375,3.766.008a4.289,4.289,0,0,1,2.91.891A2.817,2.817,0,0,1-76.465-8a3.574,3.574,0,0,1-2.5,3.258l1.6,4.617V0H-79.8Zm-1.531-1.9,1.7.016a2.386,2.386,0,0,0,1.5-.488A1.933,1.933,0,0,0-78.77-7.82a1.473,1.473,0,0,0-.242-1.187,1.442,1.442,0,0,0-1.117-.461l-1.953-.008ZM-73.6,0h-2.289l1.969-11.375h2.289Zm11.281-1.437A3.837,3.837,0,0,1-64.1-.246a7.523,7.523,0,0,1-2.652.395A4.114,4.114,0,0,1-68.8-.363a3.572,3.572,0,0,1-1.391-1.449,5.128,5.128,0,0,1-.578-2.156,9.841,9.841,0,0,1,.238-2.645,7.438,7.438,0,0,1,1.086-2.664A5.076,5.076,0,0,1-67.6-10.988a4.868,4.868,0,0,1,2.391-.543,3.954,3.954,0,0,1,2.789,1A4.165,4.165,0,0,1-61.27-7.742l-2.2-.008a2.331,2.331,0,0,0-.508-1.406,1.731,1.731,0,0,0-1.258-.484,2.467,2.467,0,0,0-2.277,1.27,7.9,7.9,0,0,0-.949,3.816,3.355,3.355,0,0,0,.41,2.07,1.7,1.7,0,0,0,1.488.75,3.171,3.171,0,0,0,1.984-.555L-64.2-4.25h-2.078l.3-1.727h4.344ZM-51.785,0h-2.289l.844-4.875h-4.414L-58.5,0h-2.289l1.977-11.375h2.289l-.8,4.609H-52.9l.8-4.609h2.289ZM-40-9.477h-3.375L-45.02,0h-2.289l1.641-9.477H-49l.336-1.9h9Zm9.641-1.9h2.289L-29.41-3.5a4.4,4.4,0,0,1-.719,1.93,3.85,3.85,0,0,1-1.484,1.3,4.184,4.184,0,0,1-1.992.43A3.357,3.357,0,0,1-36.09-.789a3.446,3.446,0,0,1-.828-2.578l2.3.008Q-34.73-1.75-33.48-1.727a1.5,1.5,0,0,0,1.156-.453,2.358,2.358,0,0,0,.617-1.32ZM-23.488.156a4.008,4.008,0,0,1-2-.535,3.612,3.612,0,0,1-1.367-1.477,5.468,5.468,0,0,1-.582-2.215A8.9,8.9,0,0,1-27.16-6.8,7.3,7.3,0,0,1-26-9.359a5.256,5.256,0,0,1,1.871-1.648,4.844,4.844,0,0,1,2.324-.523,3.966,3.966,0,0,1,2.008.543A3.587,3.587,0,0,1-18.449-9.5a5.532,5.532,0,0,1,.563,2.207,9.188,9.188,0,0,1-.3,2.828,7.177,7.177,0,0,1-1.164,2.516A5.216,5.216,0,0,1-21.2-.352,4.83,4.83,0,0,1-23.488.156ZM-20.246-6l.063-.742a3.626,3.626,0,0,0-.371-2.109,1.567,1.567,0,0,0-1.363-.75,2.473,2.473,0,0,0-2.27,1.266,7.455,7.455,0,0,0-.949,3.672,3.762,3.762,0,0,0,.367,2.129,1.563,1.563,0,0,0,1.383.777,2.345,2.345,0,0,0,2.031-.957A5.79,5.79,0,0,0-20.3-5.578Zm5.422,6h-2.289l1.969-11.375h2.289ZM-3.668,0H-5.887L-9.051-7.586-10.371,0H-12.66l1.977-11.375h2.211l3.172,7.6,1.32-7.6H-1.7Zm13.5-4.93H5.473L4.941-1.883h5.125L9.738,0H2.324L4.3-11.375h7.4l-.336,1.9h-5.1L5.785-6.766H10.16ZM16.27-7.469l2.68-3.906H21.7l-4.18,5.75L19.879,0H17.348L15.855-3.969,13.113,0H10.332l4.273-5.844-2.289-5.531h2.5ZM30.34-3.8a4.254,4.254,0,0,1-.8,2.09,4.375,4.375,0,0,1-1.75,1.4,5.329,5.329,0,0,1-2.328.465A3.936,3.936,0,0,1,23.5-.363,3.443,3.443,0,0,1,22.18-1.8a5.312,5.312,0,0,1-.543-2.168,10.634,10.634,0,0,1,.2-2.391A7.578,7.578,0,0,1,22.742-8.9a5.666,5.666,0,0,1,1.551-1.758,4.679,4.679,0,0,1,2.891-.875,3.839,3.839,0,0,1,2.8,1.09A4.384,4.384,0,0,1,31.121-7.5L28.84-7.508a2.391,2.391,0,0,0-.43-1.578,1.752,1.752,0,0,0-1.336-.531,2.319,2.319,0,0,0-1.926.836,5.027,5.027,0,0,0-1.012,2.555,14.155,14.155,0,0,0-.219,2.445,2.434,2.434,0,0,0,.461,1.52,1.543,1.543,0,0,0,1.18.512,2.356,2.356,0,0,0,1.676-.5,2.625,2.625,0,0,0,.832-1.535Zm3.578,1.914h4.828L38.418,0H31.3l1.977-11.375h2.289Zm16.055-9.492-1.281,7.5A4.571,4.571,0,0,1,47.129-.9,4.7,4.7,0,0,1,43.91.164a4.335,4.335,0,0,1-2.09-.527,3.077,3.077,0,0,1-1.309-1.422,3.855,3.855,0,0,1-.289-2.082L41.5-11.375h2.289L42.512-3.859a3.339,3.339,0,0,0-.008.82,1.385,1.385,0,0,0,1.508,1.313A2.154,2.154,0,0,0,45.6-2.258a2.721,2.721,0,0,0,.8-1.609l1.281-7.508ZM49.895,0l1.977-11.375,3.266.008a4.473,4.473,0,0,1,2.066.52,3.905,3.905,0,0,1,1.488,1.426,4.883,4.883,0,0,1,.688,2.094,6.911,6.911,0,0,1-.016,1.391l-.055.414a6.5,6.5,0,0,1-1.965,4.012A5.558,5.558,0,0,1,53.41,0Zm3.938-9.477-1.32,7.594.953.008A3.127,3.127,0,0,0,56-3.031a5.976,5.976,0,0,0,1.1-3.492l.016-.25a3.151,3.151,0,0,0-.492-1.977,1.879,1.879,0,0,0-1.539-.719ZM62.5,0H60.207l1.969-11.375h2.289ZM73.652,0H71.434L68.27-7.586,66.949,0H64.66l1.977-11.375h2.211l3.172,7.6,1.32-7.6h2.281ZM84.816-1.437A3.837,3.837,0,0,1,83.031-.246a7.523,7.523,0,0,1-2.652.395,4.114,4.114,0,0,1-2.047-.512,3.572,3.572,0,0,1-1.391-1.449,5.128,5.128,0,0,1-.578-2.156A9.841,9.841,0,0,1,76.6-6.613a7.438,7.438,0,0,1,1.086-2.664,5.076,5.076,0,0,1,1.848-1.711,4.868,4.868,0,0,1,2.391-.543,3.954,3.954,0,0,1,2.789,1,4.165,4.165,0,0,1,1.148,2.785l-2.2-.008a2.331,2.331,0,0,0-.508-1.406,1.731,1.731,0,0,0-1.258-.484,2.467,2.467,0,0,0-2.277,1.27,7.9,7.9,0,0,0-.949,3.816,3.355,3.355,0,0,0,.41,2.07,1.7,1.7,0,0,0,1.488.75,3.171,3.171,0,0,0,1.984-.555l.383-1.961H80.855l.3-1.727H85.5ZM-39.7,24h-2.289l1.969-11.375h2.289Zm11.156,0h-2.219l-3.164-7.586L-35.246,24h-2.289l1.977-11.375h2.211l3.172,7.6,1.32-7.6h2.281ZM-17.5,24h-2.219l-3.164-7.586L-24.207,24H-26.5l1.977-11.375h2.211l3.172,7.6,1.32-7.6h2.281Zm9.555-4.93h-4.359l-.531,3.047h5.125L-8.043,24h-7.414l1.977-11.375h7.4l-.336,1.9h-5.1L-12,17.234h4.375Zm6.172.766H-3.637L-4.363,24H-6.652l1.977-11.375,3.766.008A4.289,4.289,0,0,1,2,13.523,2.817,2.817,0,0,1,2.9,16,3.574,3.574,0,0,1,.4,19.258L2,23.875V24H-.434Zm-1.531-1.9,1.7.016a2.386,2.386,0,0,0,1.5-.488A1.933,1.933,0,0,0,.6,16.18a1.473,1.473,0,0,0-.242-1.187,1.442,1.442,0,0,0-1.117-.461l-1.953-.008Zm17.031-5.312h2.289L14.676,20.5a4.4,4.4,0,0,1-.719,1.93,3.85,3.85,0,0,1-1.484,1.3,4.184,4.184,0,0,1-1.992.43A3.357,3.357,0,0,1,8,23.211a3.446,3.446,0,0,1-.828-2.578l2.3.008q-.117,1.609,1.133,1.633a1.5,1.5,0,0,0,1.156-.453,2.358,2.358,0,0,0,.617-1.32ZM20.6,24.156a4.008,4.008,0,0,1-2-.535,3.612,3.612,0,0,1-1.367-1.477,5.468,5.468,0,0,1-.582-2.215,8.9,8.9,0,0,1,.273-2.734,7.3,7.3,0,0,1,1.156-2.555,5.256,5.256,0,0,1,1.871-1.648,4.844,4.844,0,0,1,2.324-.523,3.966,3.966,0,0,1,2.008.543A3.587,3.587,0,0,1,25.637,14.5a5.532,5.532,0,0,1,.563,2.207,9.188,9.188,0,0,1-.3,2.828,7.177,7.177,0,0,1-1.164,2.516,5.216,5.216,0,0,1-1.848,1.594A4.83,4.83,0,0,1,20.6,24.156ZM23.84,18l.063-.742a3.626,3.626,0,0,0-.371-2.109,1.567,1.567,0,0,0-1.363-.75,2.473,2.473,0,0,0-2.27,1.266,7.455,7.455,0,0,0-.949,3.672,3.762,3.762,0,0,0,.367,2.129,1.563,1.563,0,0,0,1.383.777,2.345,2.345,0,0,0,2.031-.957,5.79,5.79,0,0,0,1.055-2.863Zm5.422,6H26.973l1.969-11.375H31.23Zm11.156,0H38.2l-3.164-7.586L33.715,24H31.426L33.4,12.625h2.211l3.172,7.6,1.32-7.6h2.281Z" transform="translate(1102 3973)" fill="#12263f"/>
    <g id="Intersección_4" data-name="Intersección 4" transform="translate(11380 -7888.5)" fill="#fff">
      <path d="M -10275.5 11802.6865234375 C -10277.962890625 11800.1171875 -10280.20703125 11797.3203125 -10282.17578125 11794.3642578125 C -10284.3076171875 11791.1650390625 -10286.1376953125 11787.7490234375 -10287.6162109375 11784.2109375 C -10290.6904296875 11776.853515625 -10292.2490234375 11769.044921875 -10292.2490234375 11761.0009765625 C -10292.2490234375 11752.95703125 -10290.6904296875 11745.1484375 -10287.6162109375 11737.791015625 C -10286.1376953125 11734.2529296875 -10284.3076171875 11730.8369140625 -10282.17578125 11727.6376953125 C -10280.20703125 11724.681640625 -10277.962890625 11721.884765625 -10275.5 11719.3154296875 C -10273.037109375 11721.884765625 -10270.79296875 11724.681640625 -10268.82421875 11727.6376953125 C -10266.6923828125 11730.8369140625 -10264.8623046875 11734.2529296875 -10263.3837890625 11737.791015625 C -10260.3095703125 11745.1484375 -10258.7509765625 11752.95703125 -10258.7509765625 11761.0009765625 C -10258.7509765625 11769.044921875 -10260.3095703125 11776.853515625 -10263.3837890625 11784.2109375 C -10264.8623046875 11787.7490234375 -10266.6923828125 11791.1650390625 -10268.82421875 11794.3642578125 C -10270.79296875 11797.3203125 -10273.037109375 11800.1171875 -10275.5 11802.6865234375 Z" stroke="none"/>
      <path d="M -10275.5 11720.40625 C -10277.720703125 11722.7861328125 -10279.751953125 11725.3525390625 -10281.5517578125 11728.0537109375 C -10283.6572265625 11731.212890625 -10285.46484375 11734.5869140625 -10286.923828125 11738.080078125 C -10289.9599609375 11745.3447265625 -10291.4990234375 11753.056640625 -10291.4990234375 11761.0009765625 C -10291.4990234375 11768.9453125 -10289.9599609375 11776.6572265625 -10286.923828125 11783.921875 C -10285.46484375 11787.4150390625 -10283.6572265625 11790.7890625 -10281.5517578125 11793.9482421875 C -10279.751953125 11796.6494140625 -10277.720703125 11799.2158203125 -10275.5 11801.595703125 C -10273.279296875 11799.2158203125 -10271.248046875 11796.6494140625 -10269.4482421875 11793.9482421875 C -10267.3427734375 11790.7890625 -10265.53515625 11787.4150390625 -10264.076171875 11783.921875 C -10261.0400390625 11776.6572265625 -10259.5009765625 11768.9453125 -10259.5009765625 11761.0009765625 C -10259.5009765625 11753.056640625 -10261.0400390625 11745.3447265625 -10264.076171875 11738.080078125 C -10265.53515625 11734.5869140625 -10267.3427734375 11731.212890625 -10269.4482421875 11728.0537109375 C -10271.248046875 11725.3525390625 -10273.279296875 11722.7861328125 -10275.5 11720.40625 M -10275.5 11718.23828125 C -10264.6767578125 11729.2470703125 -10258.0009765625 11744.34375 -10258.0009765625 11761.0009765625 C -10258.0009765625 11777.658203125 -10264.6767578125 11792.7548828125 -10275.5 11803.763671875 C -10286.3232421875 11792.7548828125 -10292.9990234375 11777.658203125 -10292.9990234375 11761.0009765625 C -10292.9990234375 11744.34375 -10286.3232421875 11729.2470703125 -10275.5 11718.23828125 Z" stroke="none" fill="#000"/>
    </g>
    <g id="Elipse_9933" data-name="Elipse 9933" transform="translate(529 4016)" fill="none" stroke="#000" stroke-width="1.5">
      <circle cx="61" cy="61" r="61" stroke="none"/>
      <circle cx="61" cy="61" r="60.25" fill="none"/>
    </g>
    <g id="Elipse_9934" data-name="Elipse 9934" transform="translate(616 4016)" fill="none" stroke="#000" stroke-width="1.5">
      <circle cx="61" cy="61" r="61" stroke="none"/>
      <circle cx="61" cy="61" r="60.25" fill="none"/>
    </g>
    <path id="Trazado_824457" data-name="Trazado 824457" d="M7.438-2.344H3.328L2.547,0H.055L4.289-11.375H6.461L10.719,0H8.227Zm-3.477-1.9H6.8L5.375-8.5Z" transform="translate(579 4083)" fill="#12263f"/>
    <path id="Trazado_824458" data-name="Trazado 824458" d="M1.016,0V-11.375H5a5.232,5.232,0,0,1,3.141.793,2.712,2.712,0,0,1,1.07,2.324,2.57,2.57,0,0,1-.43,1.473,2.482,2.482,0,0,1-1.2.934,2.4,2.4,0,0,1,1.379.883,2.61,2.61,0,0,1,.5,1.625A3,3,0,0,1,8.422-.859,4.713,4.713,0,0,1,5.438,0ZM3.359-4.953v3.07H5.367A1.938,1.938,0,0,0,6.66-2.277a1.353,1.353,0,0,0,.465-1.09A1.428,1.428,0,0,0,5.508-4.953Zm0-1.656H5.094q1.773-.031,1.773-1.414a1.307,1.307,0,0,0-.449-1.113A2.363,2.363,0,0,0,5-9.477H3.359Z" transform="translate(679 4083)" fill="#12263f"/>
    <path id="Trazado_824462" data-name="Trazado 824462" d="M-39.7,0h-2.289l1.969-11.375h2.289Zm11.156,0h-2.219l-3.164-7.586L-35.246,0h-2.289l1.977-11.375h2.211l3.172,7.6,1.32-7.6h2.281ZM-17.5,0h-2.219l-3.164-7.586L-24.207,0H-26.5l1.977-11.375h2.211l3.172,7.6,1.32-7.6h2.281Zm9.555-4.93h-4.359l-.531,3.047h5.125L-8.043,0h-7.414l1.977-11.375h7.4l-.336,1.9h-5.1L-12-6.766h4.375Zm6.172.766H-3.637L-4.363,0H-6.652l1.977-11.375,3.766.008A4.289,4.289,0,0,1,2-10.477,2.817,2.817,0,0,1,2.9-8,3.574,3.574,0,0,1,.4-4.742L2-.125V0H-.434Zm-1.531-1.9,1.7.016a2.386,2.386,0,0,0,1.5-.488A1.933,1.933,0,0,0,.6-7.82,1.473,1.473,0,0,0,.355-9.008,1.442,1.442,0,0,0-.762-9.469l-1.953-.008Zm17.031-5.312h2.289L14.676-3.5a4.4,4.4,0,0,1-.719,1.93,3.85,3.85,0,0,1-1.484,1.3,4.184,4.184,0,0,1-1.992.43A3.357,3.357,0,0,1,8-.789a3.446,3.446,0,0,1-.828-2.578l2.3.008Q9.355-1.75,10.605-1.727a1.5,1.5,0,0,0,1.156-.453,2.358,2.358,0,0,0,.617-1.32ZM20.6.156a4.008,4.008,0,0,1-2-.535,3.612,3.612,0,0,1-1.367-1.477,5.468,5.468,0,0,1-.582-2.215A8.9,8.9,0,0,1,16.926-6.8a7.3,7.3,0,0,1,1.156-2.555,5.256,5.256,0,0,1,1.871-1.648,4.844,4.844,0,0,1,2.324-.523,3.966,3.966,0,0,1,2.008.543A3.587,3.587,0,0,1,25.637-9.5,5.532,5.532,0,0,1,26.2-7.289a9.188,9.188,0,0,1-.3,2.828,7.177,7.177,0,0,1-1.164,2.516A5.216,5.216,0,0,1,22.891-.352,4.83,4.83,0,0,1,20.6.156ZM23.84-6l.063-.742a3.626,3.626,0,0,0-.371-2.109,1.567,1.567,0,0,0-1.363-.75A2.473,2.473,0,0,0,19.9-8.336a7.455,7.455,0,0,0-.949,3.672,3.762,3.762,0,0,0,.367,2.129,1.563,1.563,0,0,0,1.383.777,2.345,2.345,0,0,0,2.031-.957,5.79,5.79,0,0,0,1.055-2.863Zm5.422,6H26.973l1.969-11.375H31.23ZM40.418,0H38.2L35.035-7.586,33.715,0H31.426L33.4-11.375h2.211l3.172,7.6,1.32-7.6h2.281Z" transform="translate(631 4173)" fill="#12263f"/>
    <g id="Intersección_5" data-name="Intersección 5" transform="translate(10909 -7683.5)" fill="#ffce00">
      <path d="M -10275.5 11802.6865234375 C -10277.962890625 11800.1171875 -10280.20703125 11797.3203125 -10282.17578125 11794.3642578125 C -10284.3076171875 11791.1650390625 -10286.1376953125 11787.7490234375 -10287.6162109375 11784.2109375 C -10290.6904296875 11776.853515625 -10292.2490234375 11769.044921875 -10292.2490234375 11761.0009765625 C -10292.2490234375 11752.95703125 -10290.6904296875 11745.1484375 -10287.6162109375 11737.791015625 C -10286.1376953125 11734.2529296875 -10284.3076171875 11730.8369140625 -10282.17578125 11727.6376953125 C -10280.20703125 11724.681640625 -10277.962890625 11721.884765625 -10275.5 11719.3154296875 C -10273.037109375 11721.884765625 -10270.79296875 11724.681640625 -10268.82421875 11727.6376953125 C -10266.6923828125 11730.8369140625 -10264.8623046875 11734.2529296875 -10263.3837890625 11737.791015625 C -10260.3095703125 11745.1484375 -10258.7509765625 11752.95703125 -10258.7509765625 11761.0009765625 C -10258.7509765625 11769.044921875 -10260.3095703125 11776.853515625 -10263.3837890625 11784.2109375 C -10264.8623046875 11787.7490234375 -10266.6923828125 11791.1650390625 -10268.82421875 11794.3642578125 C -10270.79296875 11797.3203125 -10273.037109375 11800.1171875 -10275.5 11802.6865234375 Z" stroke="none"/>
      <path d="M -10275.5 11720.40625 C -10277.720703125 11722.7861328125 -10279.751953125 11725.3525390625 -10281.5517578125 11728.0537109375 C -10283.6572265625 11731.212890625 -10285.46484375 11734.5869140625 -10286.923828125 11738.080078125 C -10289.9599609375 11745.3447265625 -10291.4990234375 11753.056640625 -10291.4990234375 11761.0009765625 C -10291.4990234375 11768.9453125 -10289.9599609375 11776.6572265625 -10286.923828125 11783.921875 C -10285.46484375 11787.4150390625 -10283.6572265625 11790.7890625 -10281.5517578125 11793.9482421875 C -10279.751953125 11796.6494140625 -10277.720703125 11799.2158203125 -10275.5 11801.595703125 C -10273.279296875 11799.2158203125 -10271.248046875 11796.6494140625 -10269.4482421875 11793.9482421875 C -10267.3427734375 11790.7890625 -10265.53515625 11787.4150390625 -10264.076171875 11783.921875 C -10261.0400390625 11776.6572265625 -10259.5009765625 11768.9453125 -10259.5009765625 11761.0009765625 C -10259.5009765625 11753.056640625 -10261.0400390625 11745.3447265625 -10264.076171875 11738.080078125 C -10265.53515625 11734.5869140625 -10267.3427734375 11731.212890625 -10269.4482421875 11728.0537109375 C -10271.248046875 11725.3525390625 -10273.279296875 11722.7861328125 -10275.5 11720.40625 M -10275.5 11718.23828125 C -10264.6767578125 11729.2470703125 -10258.0009765625 11744.34375 -10258.0009765625 11761.0009765625 C -10258.0009765625 11777.658203125 -10264.6767578125 11792.7548828125 -10275.5 11803.763671875 C -10286.3232421875 11792.7548828125 -10292.9990234375 11777.658203125 -10292.9990234375 11761.0009765625 C -10292.9990234375 11744.34375 -10286.3232421875 11729.2470703125 -10275.5 11718.23828125 Z" stroke="none" fill="#000"/>
    </g>
    <g id="Elipse_9937" data-name="Elipse 9937" transform="translate(831 4016)" fill="#ffce00" stroke="#000" stroke-width="1.5">
      <circle cx="61" cy="61" r="61" stroke="none"/>
      <circle cx="61" cy="61" r="60.25" fill="none"/>
    </g>
    <g id="Elipse_9938" data-name="Elipse 9938" transform="translate(918 4016)" fill="#ffce00" stroke="#000" stroke-width="1.5">
      <circle cx="61" cy="61" r="61" stroke="none"/>
      <circle cx="61" cy="61" r="60.25" fill="none"/>
    </g>
    <path id="Trazado_824459" data-name="Trazado 824459" d="M7.438-2.344H3.328L2.547,0H.055L4.289-11.375H6.461L10.719,0H8.227Zm-3.477-1.9H6.8L5.375-8.5Z" transform="translate(881 4083)" fill="#12263f"/>
    <path id="Trazado_824460" data-name="Trazado 824460" d="M1.016,0V-11.375H5a5.232,5.232,0,0,1,3.141.793,2.712,2.712,0,0,1,1.07,2.324,2.57,2.57,0,0,1-.43,1.473,2.482,2.482,0,0,1-1.2.934,2.4,2.4,0,0,1,1.379.883,2.61,2.61,0,0,1,.5,1.625A3,3,0,0,1,8.422-.859,4.713,4.713,0,0,1,5.438,0ZM3.359-4.953v3.07H5.367A1.938,1.938,0,0,0,6.66-2.277a1.353,1.353,0,0,0,.465-1.09A1.428,1.428,0,0,0,5.508-4.953Zm0-1.656H5.094q1.773-.031,1.773-1.414a1.307,1.307,0,0,0-.449-1.113A2.363,2.363,0,0,0,5-9.477H3.359Z" transform="translate(981 4083)" fill="#12263f"/>
    <path id="Trazado_824461" data-name="Trazado 824461" d="M-100.6-4.648h-4.359L-105.773,0h-2.289l1.977-11.375h7.2l-.336,1.9h-4.906l-.516,2.938h4.375Zm11.492-6.727-1.281,7.5A4.571,4.571,0,0,1-91.953-.9,4.7,4.7,0,0,1-95.172.164a4.335,4.335,0,0,1-2.09-.527A3.077,3.077,0,0,1-98.57-1.785a3.855,3.855,0,0,1-.289-2.082l1.273-7.508H-95.3L-96.57-3.859a3.339,3.339,0,0,0-.008.82A1.385,1.385,0,0,0-95.07-1.727a2.154,2.154,0,0,0,1.586-.531,2.721,2.721,0,0,0,.8-1.609l1.281-7.508Zm2.539,9.492h4.828L-82.07,0h-7.117l1.977-11.375h2.289Zm8.484,0h4.828L-73.586,0H-80.7l1.977-11.375h2.289ZM-63.7.156a4.008,4.008,0,0,1-2-.535,3.612,3.612,0,0,1-1.367-1.477,5.468,5.468,0,0,1-.582-2.215A8.9,8.9,0,0,1-67.375-6.8a7.3,7.3,0,0,1,1.156-2.555,5.256,5.256,0,0,1,1.871-1.648,4.844,4.844,0,0,1,2.324-.523,3.966,3.966,0,0,1,2.008.543A3.587,3.587,0,0,1-58.664-9.5,5.532,5.532,0,0,1-58.1-7.289a9.188,9.188,0,0,1-.3,2.828,7.177,7.177,0,0,1-1.164,2.516A5.216,5.216,0,0,1-61.41-.352,4.83,4.83,0,0,1-63.7.156ZM-60.461-6l.063-.742a3.626,3.626,0,0,0-.371-2.109,1.567,1.567,0,0,0-1.363-.75A2.473,2.473,0,0,0-64.4-8.336a7.455,7.455,0,0,0-.949,3.672,3.762,3.762,0,0,0,.367,2.129,1.563,1.563,0,0,0,1.383.777,2.345,2.345,0,0,0,2.031-.957,5.79,5.79,0,0,0,1.055-2.863ZM-47.1-11.375l-1.281,7.5A4.571,4.571,0,0,1-49.945-.9,4.7,4.7,0,0,1-53.164.164a4.335,4.335,0,0,1-2.09-.527,3.077,3.077,0,0,1-1.309-1.422,3.855,3.855,0,0,1-.289-2.082l1.273-7.508h2.289l-1.273,7.516a3.339,3.339,0,0,0-.008.82,1.385,1.385,0,0,0,1.508,1.313,2.154,2.154,0,0,0,1.586-.531,2.721,2.721,0,0,0,.8-1.609l1.281-7.508Zm9.883,1.9h-3.375L-42.234,0h-2.289l1.641-9.477h-3.336l.336-1.9h9Zm7.227,4.547h-4.359l-.531,3.047h5.125L-30.086,0H-37.5l1.977-11.375h7.4l-.336,1.9h-5.1l-.477,2.711h4.375Zm6.172.766H-25.68L-26.406,0H-28.7l1.977-11.375,3.766.008a4.289,4.289,0,0,1,2.91.891A2.817,2.817,0,0,1-19.141-8a3.574,3.574,0,0,1-2.5,3.258l1.6,4.617V0h-2.437Zm-1.531-1.9,1.7.016a2.386,2.386,0,0,0,1.5-.488,1.933,1.933,0,0,0,.707-1.285,1.473,1.473,0,0,0-.242-1.187A1.442,1.442,0,0,0-22.8-9.469l-1.953-.008ZM-8.32-11.375h2.289L-7.367-3.5a4.4,4.4,0,0,1-.719,1.93A3.85,3.85,0,0,1-9.57-.266a4.184,4.184,0,0,1-1.992.43,3.357,3.357,0,0,1-2.484-.953,3.446,3.446,0,0,1-.828-2.578l2.3.008q-.117,1.609,1.133,1.633a1.5,1.5,0,0,0,1.156-.453A2.358,2.358,0,0,0-9.664-3.5ZM-1.445.156a4.008,4.008,0,0,1-2-.535A3.612,3.612,0,0,1-4.809-1.855,5.468,5.468,0,0,1-5.391-4.07,8.9,8.9,0,0,1-5.117-6.8,7.3,7.3,0,0,1-3.961-9.359,5.256,5.256,0,0,1-2.09-11.008a4.844,4.844,0,0,1,2.324-.523,3.966,3.966,0,0,1,2.008.543A3.587,3.587,0,0,1,3.594-9.5a5.532,5.532,0,0,1,.563,2.207,9.188,9.188,0,0,1-.3,2.828A7.177,7.177,0,0,1,2.7-1.945,5.216,5.216,0,0,1,.848-.352,4.83,4.83,0,0,1-1.445.156ZM1.8-6l.063-.742a3.626,3.626,0,0,0-.371-2.109A1.567,1.567,0,0,0,.125-9.6a2.473,2.473,0,0,0-2.27,1.266,7.455,7.455,0,0,0-.949,3.672,3.762,3.762,0,0,0,.367,2.129,1.563,1.563,0,0,0,1.383.777A2.345,2.345,0,0,0,.688-2.715,5.79,5.79,0,0,0,1.742-5.578ZM7.219,0H4.93L6.9-11.375H9.188ZM18.375,0H16.156L12.992-7.586,11.672,0H9.383l1.977-11.375H13.57l3.172,7.6,1.32-7.6h2.281Zm13.5-4.93H27.516l-.531,3.047h5.125L31.781,0H24.367l1.977-11.375h7.4l-.336,1.9H28.3l-.477,2.711H32.2Zm6.438-2.539,2.68-3.906h2.75l-4.18,5.75L41.922,0H39.391L37.9-3.969,35.156,0H32.375l4.273-5.844-2.289-5.531h2.5ZM52.383-3.8a4.254,4.254,0,0,1-.8,2.09,4.375,4.375,0,0,1-1.75,1.4A5.329,5.329,0,0,1,47.5.156a3.936,3.936,0,0,1-1.961-.52A3.443,3.443,0,0,1,44.223-1.8a5.312,5.312,0,0,1-.543-2.168,10.634,10.634,0,0,1,.2-2.391A7.578,7.578,0,0,1,44.785-8.9a5.666,5.666,0,0,1,1.551-1.758,4.679,4.679,0,0,1,2.891-.875,3.839,3.839,0,0,1,2.8,1.09A4.384,4.384,0,0,1,53.164-7.5l-2.281-.008a2.391,2.391,0,0,0-.43-1.578,1.752,1.752,0,0,0-1.336-.531,2.319,2.319,0,0,0-1.926.836A5.027,5.027,0,0,0,46.18-6.227a14.155,14.155,0,0,0-.219,2.445,2.434,2.434,0,0,0,.461,1.52,1.543,1.543,0,0,0,1.18.512,2.356,2.356,0,0,0,1.676-.5,2.625,2.625,0,0,0,.832-1.535Zm3.578,1.914h4.828L60.461,0H53.344L55.32-11.375h2.289Zm16.055-9.492-1.281,7.5A4.571,4.571,0,0,1,69.172-.9,4.7,4.7,0,0,1,65.953.164a4.335,4.335,0,0,1-2.09-.527,3.077,3.077,0,0,1-1.309-1.422,3.855,3.855,0,0,1-.289-2.082l1.273-7.508h2.289L64.555-3.859a3.339,3.339,0,0,0-.008.82,1.385,1.385,0,0,0,1.508,1.313,2.154,2.154,0,0,0,1.586-.531,2.721,2.721,0,0,0,.8-1.609l1.281-7.508ZM71.938,0l1.977-11.375,3.266.008a4.473,4.473,0,0,1,2.066.52,3.905,3.905,0,0,1,1.488,1.426,4.883,4.883,0,0,1,.688,2.094,6.911,6.911,0,0,1-.016,1.391l-.055.414a6.5,6.5,0,0,1-1.965,4.012A5.558,5.558,0,0,1,75.453,0Zm3.938-9.477-1.32,7.594.953.008a3.127,3.127,0,0,0,2.535-1.156,5.976,5.976,0,0,0,1.1-3.492l.016-.25a3.151,3.151,0,0,0-.492-1.977,1.879,1.879,0,0,0-1.539-.719ZM84.539,0H82.25l1.969-11.375h2.289ZM95.7,0H93.477L90.313-7.586,88.992,0H86.7L88.68-11.375h2.211l3.172,7.6,1.32-7.6h2.281Zm11.164-1.437a3.837,3.837,0,0,1-1.785,1.191,7.523,7.523,0,0,1-2.652.395,4.114,4.114,0,0,1-2.047-.512,3.572,3.572,0,0,1-1.391-1.449,5.128,5.128,0,0,1-.578-2.156,9.841,9.841,0,0,1,.238-2.645A7.438,7.438,0,0,1,99.73-9.277a5.076,5.076,0,0,1,1.848-1.711,4.868,4.868,0,0,1,2.391-.543,3.954,3.954,0,0,1,2.789,1,4.165,4.165,0,0,1,1.148,2.785l-2.2-.008a2.331,2.331,0,0,0-.508-1.406,1.731,1.731,0,0,0-1.258-.484,2.467,2.467,0,0,0-2.277,1.27,7.9,7.9,0,0,0-.949,3.816,3.355,3.355,0,0,0,.41,2.07,1.7,1.7,0,0,0,1.488.75,3.171,3.171,0,0,0,1.984-.555l.383-1.961H102.9l.3-1.727h4.344ZM-39.7,24h-2.289l1.969-11.375h2.289Zm11.156,0h-2.219l-3.164-7.586L-35.246,24h-2.289l1.977-11.375h2.211l3.172,7.6,1.32-7.6h2.281ZM-17.5,24h-2.219l-3.164-7.586L-24.207,24H-26.5l1.977-11.375h2.211l3.172,7.6,1.32-7.6h2.281Zm9.555-4.93h-4.359l-.531,3.047h5.125L-8.043,24h-7.414l1.977-11.375h7.4l-.336,1.9h-5.1L-12,17.234h4.375Zm6.172.766H-3.637L-4.363,24H-6.652l1.977-11.375,3.766.008A4.289,4.289,0,0,1,2,13.523,2.817,2.817,0,0,1,2.9,16,3.574,3.574,0,0,1,.4,19.258L2,23.875V24H-.434Zm-1.531-1.9,1.7.016a2.386,2.386,0,0,0,1.5-.488A1.933,1.933,0,0,0,.6,16.18a1.473,1.473,0,0,0-.242-1.187,1.442,1.442,0,0,0-1.117-.461l-1.953-.008Zm17.031-5.312h2.289L14.676,20.5a4.4,4.4,0,0,1-.719,1.93,3.85,3.85,0,0,1-1.484,1.3,4.184,4.184,0,0,1-1.992.43A3.357,3.357,0,0,1,8,23.211a3.446,3.446,0,0,1-.828-2.578l2.3.008q-.117,1.609,1.133,1.633a1.5,1.5,0,0,0,1.156-.453,2.358,2.358,0,0,0,.617-1.32ZM20.6,24.156a4.008,4.008,0,0,1-2-.535,3.612,3.612,0,0,1-1.367-1.477,5.468,5.468,0,0,1-.582-2.215,8.9,8.9,0,0,1,.273-2.734,7.3,7.3,0,0,1,1.156-2.555,5.256,5.256,0,0,1,1.871-1.648,4.844,4.844,0,0,1,2.324-.523,3.966,3.966,0,0,1,2.008.543A3.587,3.587,0,0,1,25.637,14.5a5.532,5.532,0,0,1,.563,2.207,9.188,9.188,0,0,1-.3,2.828,7.177,7.177,0,0,1-1.164,2.516,5.216,5.216,0,0,1-1.848,1.594A4.83,4.83,0,0,1,20.6,24.156ZM23.84,18l.063-.742a3.626,3.626,0,0,0-.371-2.109,1.567,1.567,0,0,0-1.363-.75,2.473,2.473,0,0,0-2.27,1.266,7.455,7.455,0,0,0-.949,3.672,3.762,3.762,0,0,0,.367,2.129,1.563,1.563,0,0,0,1.383.777,2.345,2.345,0,0,0,2.031-.957,5.79,5.79,0,0,0,1.055-2.863Zm5.422,6H26.973l1.969-11.375H31.23Zm11.156,0H38.2l-3.164-7.586L33.715,24H31.426L33.4,12.625h2.211l3.172,7.6,1.32-7.6h2.281Z" transform="translate(933 4173)" fill="#12263f"/>
    <g id="Intersección_6" data-name="Intersección 6" transform="translate(11211 -7683.5)" fill="#fff">
      <path d="M -10275.5 11802.6865234375 C -10277.962890625 11800.1171875 -10280.20703125 11797.3203125 -10282.17578125 11794.3642578125 C -10284.3076171875 11791.1650390625 -10286.1376953125 11787.7490234375 -10287.6162109375 11784.2109375 C -10290.6904296875 11776.853515625 -10292.2490234375 11769.044921875 -10292.2490234375 11761.0009765625 C -10292.2490234375 11752.95703125 -10290.6904296875 11745.1484375 -10287.6162109375 11737.791015625 C -10286.1376953125 11734.2529296875 -10284.3076171875 11730.8369140625 -10282.17578125 11727.6376953125 C -10280.20703125 11724.681640625 -10277.962890625 11721.884765625 -10275.5 11719.3154296875 C -10273.037109375 11721.884765625 -10270.79296875 11724.681640625 -10268.82421875 11727.6376953125 C -10266.6923828125 11730.8369140625 -10264.8623046875 11734.2529296875 -10263.3837890625 11737.791015625 C -10260.3095703125 11745.1484375 -10258.7509765625 11752.95703125 -10258.7509765625 11761.0009765625 C -10258.7509765625 11769.044921875 -10260.3095703125 11776.853515625 -10263.3837890625 11784.2109375 C -10264.8623046875 11787.7490234375 -10266.6923828125 11791.1650390625 -10268.82421875 11794.3642578125 C -10270.79296875 11797.3203125 -10273.037109375 11800.1171875 -10275.5 11802.6865234375 Z" stroke="none"/>
      <path d="M -10275.5 11720.40625 C -10277.720703125 11722.7861328125 -10279.751953125 11725.3525390625 -10281.5517578125 11728.0537109375 C -10283.6572265625 11731.212890625 -10285.46484375 11734.5869140625 -10286.923828125 11738.080078125 C -10289.9599609375 11745.3447265625 -10291.4990234375 11753.056640625 -10291.4990234375 11761.0009765625 C -10291.4990234375 11768.9453125 -10289.9599609375 11776.6572265625 -10286.923828125 11783.921875 C -10285.46484375 11787.4150390625 -10283.6572265625 11790.7890625 -10281.5517578125 11793.9482421875 C -10279.751953125 11796.6494140625 -10277.720703125 11799.2158203125 -10275.5 11801.595703125 C -10273.279296875 11799.2158203125 -10271.248046875 11796.6494140625 -10269.4482421875 11793.9482421875 C -10267.3427734375 11790.7890625 -10265.53515625 11787.4150390625 -10264.076171875 11783.921875 C -10261.0400390625 11776.6572265625 -10259.5009765625 11768.9453125 -10259.5009765625 11761.0009765625 C -10259.5009765625 11753.056640625 -10261.0400390625 11745.3447265625 -10264.076171875 11738.080078125 C -10265.53515625 11734.5869140625 -10267.3427734375 11731.212890625 -10269.4482421875 11728.0537109375 C -10271.248046875 11725.3525390625 -10273.279296875 11722.7861328125 -10275.5 11720.40625 M -10275.5 11718.23828125 C -10264.6767578125 11729.2470703125 -10258.0009765625 11744.34375 -10258.0009765625 11761.0009765625 C -10258.0009765625 11777.658203125 -10264.6767578125 11792.7548828125 -10275.5 11803.763671875 C -10286.3232421875 11792.7548828125 -10292.9990234375 11777.658203125 -10292.9990234375 11761.0009765625 C -10292.9990234375 11744.34375 -10286.3232421875 11729.2470703125 -10275.5 11718.23828125 Z" stroke="none" fill="#000"/>
    </g>
  </g>
</svg>
