<svg xmlns="http://www.w3.org/2000/svg" width="505" height="343" viewBox="0 0 505 343">
  <g id="Grupo_1074233" data-name="Grupo 1074233" transform="translate(-285 -1956)">
    <rect id="Rectángulo_382320" data-name="Rectángulo 382320" width="505" height="343" rx="10" transform="translate(285 1956)" fill="none"/>
    <g id="Grupo_1073018" data-name="Grupo 1073018" transform="translate(-266.738 -262.163)">
      <g id="Grupo_1072927" data-name="Grupo 1072927" transform="translate(915 2260.548)">
        <path id="Trazado_818457" data-name="Trazado 818457" d="M100.738,10.753l-1.686,1.92a10.573,10.573,0,0,1-16.321,0l-1.015-1.156a10.576,10.576,0,0,0-16.321,0,10.573,10.573,0,0,1-16.321,0l-.092-.105a10.576,10.576,0,0,0-16.321,0l-.83.946a10.573,10.573,0,0,1-16.321,0l-.644-.735A10.511,10.511,0,0,0,0,10.237v5.791a10.508,10.508,0,0,1,14.868,1.383l.644.735a10.573,10.573,0,0,0,16.321,0l.83-.946a10.573,10.573,0,0,1,16.321,0l.092.105a10.573,10.573,0,0,0,16.321,0,10.573,10.573,0,0,1,16.321,0l1.015,1.156a10.573,10.573,0,0,0,16.321,0l1.686-1.92Z" transform="translate(0 10.919)" fill="#bae9d9"/>
        <path id="Trazado_818458" data-name="Trazado 818458" d="M100.738,3.19,99.052,5.11a10.573,10.573,0,0,1-16.321,0L81.717,3.954a10.573,10.573,0,0,0-16.321,0,10.573,10.573,0,0,1-16.321,0l-.092-.105a10.573,10.573,0,0,0-16.321,0l-.83.946a10.573,10.573,0,0,1-16.321,0l-.644-.735A10.511,10.511,0,0,0,0,2.674V8.462A10.511,10.511,0,0,1,14.868,9.848l.644.735a10.573,10.573,0,0,0,16.321,0l.83-.946a10.573,10.573,0,0,1,16.321,0l.092.105a10.573,10.573,0,0,0,16.321,0,10.573,10.573,0,0,1,16.321,0L82.732,10.9a10.573,10.573,0,0,0,16.321,0l1.686-1.92Z" transform="translate(0 0.001)" fill="#bae9d9"/>
      </g>
    </g>
  </g>
</svg>
