<svg xmlns="http://www.w3.org/2000/svg" width="73" height="77" viewBox="0 0 73 77">
  <g id="icon4" transform="translate(-200 -3134)">
    <g id="Grupo_1074745" data-name="Grupo 1074745">
      <g id="Grupo_1073828" data-name="Grupo 1073828" transform="translate(0 -3335)">
        <rect id="Rectángulo_382523" data-name="Rectángulo 382523" width="73" height="77" rx="8" transform="translate(200 6469)" fill="#ffce00"/>
      </g>
    </g>
    <g id="noun-search-5521437" transform="translate(210.371 3144.936)">
      <path id="Trazado_824432" data-name="Trazado 824432" d="M49.047,43.546V18.872l-.677-.677H38.078a11.369,11.369,0,1,0-21.028,0H6.76l-.677.677V43.546h-2.9l-.677.677V45.9a6.74,6.74,0,0,0,6.733,6.733H45.9A6.74,6.74,0,0,0,52.629,45.9V44.223l-.677-.677Zm-1.355-24v24h-1.9V22.123l-.677-.677H36.033a11.433,11.433,0,0,0,1.377-1.9ZM20.538,22.8a11.312,11.312,0,0,0,6.349,2.417v3.124H24.762l-.677.677V39.758l.677.677h5.6l.677-.677V29.019l-.677-.677H28.242V25.218A11.312,11.312,0,0,0,34.591,22.8H44.44V43.546H10.689V22.8Zm9.151,6.9v9.384H25.44V29.7ZM27.564,3.855A10.014,10.014,0,1,1,17.55,13.869,10.025,10.025,0,0,1,27.564,3.855ZM7.437,19.549H17.719a11.433,11.433,0,0,0,1.377,1.9H10.011l-.677.677V43.546h-1.9ZM51.274,45.9A5.384,5.384,0,0,1,45.9,51.274H9.233A5.384,5.384,0,0,1,3.855,45.9v-1H51.274Z"/>
      <rect id="Rectángulo_382999" data-name="Rectángulo 382999" width="3.234" height="1.355" transform="translate(36.017 47.139)"/>
      <rect id="Rectángulo_383000" data-name="Rectángulo 383000" width="3.234" height="1.355" transform="translate(42.786 47.139)"/>
      <path id="Trazado_824433" data-name="Trazado 824433" d="M62.175,26.159l1.287.424a8.094,8.094,0,0,0,.406-2.538H62.513A6.733,6.733,0,0,1,62.175,26.159Z" transform="translate(-28.186 -10.177)"/>
      <path id="Trazado_824434" data-name="Trazado 824434" d="M49.387,10.017a6.754,6.754,0,0,1,6.424,4.65l1.287-.424a8.108,8.108,0,0,0-7.711-5.58q-.346,0-.684.029l.112,1.35C49,10.025,49.195,10.017,49.387,10.017Z" transform="translate(-21.823 -2.911)"/>
    </g>
  </g>
</svg>
