<svg xmlns="http://www.w3.org/2000/svg" xmlns:xlink="http://www.w3.org/1999/xlink" width="76.811" height="83.925" viewBox="0 0 76.811 83.925">
  <defs>
    <clipPath id="clip-path">
      <rect id="Rect치ngulo_381982" data-name="Rect치ngulo 381982" width="38.718" height="39.29" rx="10.523" fill="#ccbcfd"/>
    </clipPath>
    <clipPath id="clip-path-2">
      <rect id="Rect치ngulo_381983" data-name="Rect치ngulo 381983" width="76.694" height="76.694" fill="none"/>
    </clipPath>
  </defs>
  <g id="Grupo_1072875" data-name="Grupo 1072875" transform="translate(0.116)">
    <g id="Grupo_1072872" data-name="Grupo 1072872">
      <g id="Grupo_1072865" data-name="Grupo 1072865" transform="translate(0 1)">
        <g id="Grupo_1072873" data-name="Grupo 1072873">
          <path id="Trazado_819291" data-name="Trazado 819291" d="M60.628,76.694H16.067A16.067,16.067,0,0,1,0,60.627V16.067A16.067,16.067,0,0,1,16.067,0H60.628A16.067,16.067,0,0,1,76.694,16.067V60.627A16.067,16.067,0,0,1,60.628,76.694" fill="#ade9ff"/>
          <path id="Trazado_819292" data-name="Trazado 819292" d="M62.371,74.525H13.476A12.549,12.549,0,0,1,.95,61.954V12.881a12.551,12.551,0,0,1,3.208-8.4A12.558,12.558,0,0,0,0,13.835V62.907A12.549,12.549,0,0,0,12.526,75.479H61.421a12.473,12.473,0,0,0,9.319-4.173,12.455,12.455,0,0,1-8.369,3.219" transform="translate(0 1.216)" fill="#72d4ff"/>
          <path id="Trazado_819294" data-name="Trazado 819294" d="M23.2,66.493a6.658,6.658,0,0,0,.66.578,6.555,6.555,0,0,0,3.995,1.351H46.351c1.542,0,2.314.116,3.435-.773.2-.158,1.038-.975,1.219-1.155a6.637,6.637,0,0,0,.685-.8,6.554,6.554,0,0,0,1.242-3.85V43.345A6.573,6.573,0,0,0,51,38.691a6.674,6.674,0,0,0-.571-.509,6.554,6.554,0,0,0-4.083-1.419H27.856a6.555,6.555,0,0,0-3.995,1.351,6.658,6.658,0,0,0-.66.578,6.575,6.575,0,0,0-1.928,4.654V61.839a6.555,6.555,0,0,0,1.243,3.85,6.637,6.637,0,0,0,.685.8" transform="translate(-1.449 -5.443)" fill="#273a89"/>
          <path id="Trazado_819295" data-name="Trazado 819295" d="M61,27.963H56.121V23.385a7.176,7.176,0,0,0-14.352,0v4.577H36.894V23.385a12.052,12.052,0,0,1,24.1,0Z" transform="translate(-9.515 -2.923)" fill="#1682fb"/>
          <path id="Trazado_819296" data-name="Trazado 819296" d="M37.246,30.188l-.081-5.119a11.972,11.972,0,0,1,1.138-5.1,11.974,11.974,0,0,0-1.409,5.646v4.577Z" transform="translate(-9.515 -5.149)" fill="#6e40fb"/>
          <path id="Trazado_819297" data-name="Trazado 819297" d="M58.52,29.468,58.4,24.349a7.175,7.175,0,0,0-13.723-2.933,7.174,7.174,0,0,1,13.452,3.475v4.577Z" transform="translate(-11.521 -4.429)" fill="#0a5dba"/>
        </g>
      </g>
      <g id="Grupo_1072867" data-name="Grupo 1072867" transform="translate(20.727 22.19)">
        <g id="Grupo_1072866" data-name="Grupo 1072866" clip-path="url(#clip-path)">
          <path id="Trazado_819301" data-name="Trazado 819301" d="M.449.453,51.218.2l-.25,50.224L.2,50.676Z" transform="translate(-13.674 34.373) rotate(-68.728)" fill="#1682fb"/>
        </g>
      </g>
      <g id="Grupo_1072869" data-name="Grupo 1072869" transform="translate(0 0)">
        <g id="Grupo_1072868" data-name="Grupo 1072868" clip-path="url(#clip-path-2)">
          <path id="Trazado_819298" data-name="Trazado 819298" d="M57.846,69.346H37.091a8.261,8.261,0,0,1-8.26-8.261V40.33a8.246,8.246,0,0,1,3.279-6.589,8.256,8.256,0,0,0-4.091,7.131V61.627a8.261,8.261,0,0,0,8.26,8.261H57.034a8.224,8.224,0,0,0,4.982-1.672,8.215,8.215,0,0,1-4.169,1.13" transform="translate(-7.226 -8.701)" fill="#0a5dba"/>
          <path id="Trazado_819299" data-name="Trazado 819299" d="M56.577,50.718a5.068,5.068,0,1,0-8.594,3.635v5.541a3.527,3.527,0,1,0,7.053,0V54.353a5.049,5.049,0,0,0,1.541-3.635" transform="translate(-11.977 -11.773)" fill="#fffaf8"/>
          <path id="Trazado_819300" data-name="Trazado 819300" d="M52.909,45.658a5.064,5.064,0,0,1,3.252,8.7v5.541A3.525,3.525,0,0,1,52.9,63.407c.09.007.18.014.271.014A3.527,3.527,0,0,0,56.7,59.894V54.353a5.064,5.064,0,0,0-3.794-8.7" transform="translate(-13.644 -11.773)" fill="#0a5dba"/>
        </g>
      </g>
    </g>
  </g>
</svg>
