<svg xmlns="http://www.w3.org/2000/svg" xmlns:xlink="http://www.w3.org/1999/xlink" width="505" height="297.295" viewBox="0 0 505 297.295">
  <defs>
    <clipPath id="clip-path">
      <path id="Path_818456" data-name="Path 818456" d="M88.881,46.723A35.784,35.784,0,1,1,53.1,10.939,35.784,35.784,0,0,1,88.881,46.723" transform="translate(-17.313 -10.939)" fill="none"/>
    </clipPath>
    <clipPath id="clip-path-2">
      <rect id="Rectangle_382537" data-name="Rectangle 382537" width="103.448" height="95.974" fill="none"/>
    </clipPath>
    <clipPath id="clip-path-3">
      <rect id="Rectangle_382639" data-name="Rectangle 382639" width="484.699" height="250.351" fill="none"/>
    </clipPath>
    <clipPath id="clip-path-5">
      <rect id="Rectangle_382634" data-name="Rectangle 382634" width="233.185" height="62.205" fill="#132260"/>
    </clipPath>
    <clipPath id="clip-path-7">
      <rect id="Rectangle_382636" data-name="Rectangle 382636" width="161.98" height="86.118" fill="#3ee2a8"/>
    </clipPath>
    <clipPath id="clip-path-8">
      <rect id="Rectangle_382673" data-name="Rectangle 382673" width="98.947" height="123.714" fill="none"/>
    </clipPath>
    <clipPath id="clip-path-9">
      <rect id="Rectangle_382645" data-name="Rectangle 382645" width="57.508" height="81.997" fill="none"/>
    </clipPath>
    <clipPath id="clip-path-11">
      <rect id="Rectangle_382641" data-name="Rectangle 382641" width="10.92" height="18.936" fill="none"/>
    </clipPath>
    <clipPath id="clip-path-12">
      <rect id="Rectangle_382642" data-name="Rectangle 382642" width="25.375" height="27.224" fill="none"/>
    </clipPath>
    <clipPath id="clip-path-13">
      <rect id="Rectangle_382643" data-name="Rectangle 382643" width="18.984" height="44.218" fill="none"/>
    </clipPath>
  </defs>
  <g id="Group_1074269" data-name="Group 1074269" transform="translate(-915 -501.705)">
    <rect id="Rectangle_382244" data-name="Rectangle 382244" width="441.297" height="259.576" rx="7" transform="translate(915 511.914)" fill="#3ee2a8"/>
    <rect id="Rectangle_382243" data-name="Rectangle 382243" width="427.924" height="259.576" rx="7" transform="translate(988.55 511.914)" fill="#273a89"/>
    <rect id="Rectangle_382242" data-name="Rectangle 382242" width="432.381" height="297.295" rx="7" transform="translate(948.432 501.705)" fill="#1682fb"/>
    <g id="Group_1072902" data-name="Group 1072902" transform="translate(959 570.135)">
      <g id="Group_1071496" data-name="Group 1071496" transform="translate(0 0)" clip-path="url(#clip-path)">
        <path id="Path_818450" data-name="Path 818450" d="M14.574,17.458,28.02,4.013,40.678,16.672l12.73-12.73,13.3,13.3L79.869,4.085,91.756,15.972,93.727,14,79.869.143,66.71,13.3,53.408,0,40.678,12.729,28.02.071,14.574,13.516,1.972.914,0,2.884Z" transform="translate(-8.152 -8.85)" fill="#fff"/>
        <path id="Path_818451" data-name="Path 818451" d="M14.574,34.253,28.02,20.809,40.678,33.466l12.73-12.729,13.3,13.3L79.869,20.88,91.756,32.768,93.727,30.8,79.869,16.938,66.71,30.1l-13.3-13.3-12.73,12.73L28.02,16.867,14.574,30.312l-12.6-12.6L0,19.679Z" transform="translate(-8.152 -12.057)" fill="#fff"/>
        <path id="Path_818452" data-name="Path 818452" d="M14.574,51.049,28.02,37.6,40.678,50.262l12.73-12.729,13.3,13.3L79.869,37.675,91.756,49.563l1.971-1.972L79.869,33.734,66.71,46.893l-13.3-13.3-12.73,12.73L28.02,33.662,14.574,47.107,1.972,34.5,0,36.475Z" transform="translate(-8.152 -15.265)" fill="#fff"/>
        <path id="Path_818453" data-name="Path 818453" d="M14.574,67.845,28.02,54.4,40.678,67.057l12.73-12.729,13.3,13.3,13.159-13.16L91.756,66.358l1.971-1.971L79.869,50.53,66.71,63.689l-13.3-13.3-12.73,12.73L28.02,50.458,14.574,63.9,1.972,51.3,0,53.271Z" transform="translate(-8.152 -18.472)" fill="#fff"/>
        <path id="Path_818454" data-name="Path 818454" d="M14.574,84.64,28.02,71.195,40.678,83.853l12.73-12.729,13.3,13.3L79.869,71.267,91.756,83.154l1.971-1.971L79.869,67.325,66.71,80.484l-13.3-13.3-12.73,12.73L28.02,67.254,14.574,80.7,1.972,68.1,0,70.067Z" transform="translate(-8.152 -21.68)" fill="#fff"/>
        <path id="Path_818455" data-name="Path 818455" d="M14.574,101.435,28.02,87.991l12.658,12.658,12.73-12.729,13.3,13.3L79.869,88.062,91.756,99.95l1.971-1.972L79.869,84.12,66.71,97.279l-13.3-13.3-12.73,12.73L28.02,84.049,14.574,97.494l-12.6-12.6L0,86.862Z" transform="translate(-8.152 -24.887)" fill="#fff"/>
      </g>
    </g>
    <g id="Group_1073276" data-name="Group 1073276" transform="translate(1316.552 538.716)">
      <g id="Group_1073275" data-name="Group 1073275" transform="translate(0 0)" clip-path="url(#clip-path-2)">
        <path id="Path_820968" data-name="Path 820968" d="M90.553,0H10.562A10.594,10.594,0,0,0,0,10.566V91.981a1.163,1.163,0,0,0,.726,1.093,1.157,1.157,0,0,0,1.283-.259l18-18H90.553a10.593,10.593,0,0,0,10.562-10.568V10.566A10.6,10.6,0,0,0,90.553,0" transform="translate(0 -0.001)" fill="#ffce00" fill-rule="evenodd"/>
        <path id="Path_820969" data-name="Path 820969" d="M27.854,32.979a7.808,7.808,0,0,1-2.944,6.439c-1.959,1.573-4.693,2.355-8.186,2.355a19.2,19.2,0,0,1-8.545-1.819V34.007a35.587,35.587,0,0,0,5.173,1.923,15.144,15.144,0,0,0,3.866.557,5.5,5.5,0,0,0,3.233-.8,2.748,2.748,0,0,0,1.127-2.4,2.615,2.615,0,0,0-.494-1.578,5.4,5.4,0,0,0-1.46-1.329,35.771,35.771,0,0,0-3.909-2.045,18.941,18.941,0,0,1-4.155-2.5,9.29,9.29,0,0,1-2.2-2.793,7.861,7.861,0,0,1-.834-3.711,7.813,7.813,0,0,1,2.719-6.3,11.285,11.285,0,0,1,7.5-2.292,17.643,17.643,0,0,1,4.494.559,31.018,31.018,0,0,1,4.468,1.571l-2.065,4.974a30.039,30.039,0,0,0-3.993-1.38,12.952,12.952,0,0,0-3.106-.4,4.111,4.111,0,0,0-2.791.85,2.79,2.79,0,0,0-.971,2.207,2.7,2.7,0,0,0,.395,1.474,4.284,4.284,0,0,0,1.246,1.218,36.9,36.9,0,0,0,4.058,2.114,16.286,16.286,0,0,1,5.806,4.058,7.952,7.952,0,0,1,1.569,4.988m32.852-6.758a19.06,19.06,0,0,1-1.892,8.935,11.494,11.494,0,0,1-5.541,5.27l7.269,8.106H52.35l-5.531-6.759h-.48q-6.931,0-10.652-4.025t-3.713-11.56q0-7.534,3.727-11.511T46.38,10.7q6.958,0,10.638,4t3.688,11.514m-22.024,0q0,5.062,1.916,7.627A6.737,6.737,0,0,0,46.34,36.4Q54,36.4,54,26.221T46.38,16.031A6.781,6.781,0,0,0,40.619,18.6q-1.933,2.57-1.936,7.623m28.27,15.127V11.167h6.395v24.9H85.592v5.286Z" transform="translate(6.241 8.166)" fill="#fff" fill-rule="evenodd"/>
      </g>
    </g>
    <g id="Group_1074252" data-name="Group 1074252" transform="translate(929.248 548.648)">
      <g id="Mask_Group_1074251" data-name="Mask Group 1074251" clip-path="url(#clip-path-3)">
        <g id="Group_1074242" data-name="Group 1074242">
          <g id="Group_1074241" data-name="Group 1074241" clip-path="url(#clip-path-3)">
            <path id="Path_821100" data-name="Path 821100" d="M394.624,53.914c-1.064,23.3-23.964,41.148-41.118,42.225-22.664,1.425-38.861-19.014-41.118-42.225-1.955-20.108,5.186-19.809,10.5-28.19,6.444-10.154,18.455-15.767,30.613-15.767,22.709,0,42.549,12.614,41.118,43.958" transform="translate(-89.501 -2.855)" fill="#182869"/>
            <rect id="Rectangle_382633" data-name="Rectangle 382633" width="31.87" height="39.898" transform="translate(248.071 91.109)" fill="#e3b5aa"/>
            <path id="Path_821101" data-name="Path 821101" d="M419.174,92.517c5.685-8.627,12.918-9,15.938,1.2s-6.948,18.6-15.065,15.5-.874-16.7-.874-16.7" transform="translate(-119.369 -24.68)" fill="#e3b5aa"/>
            <path id="Path_821102" data-name="Path 821102" d="M428.737,95.421c3.808-.7,5.76,10.649-2.591,11.023l1.717-3.958-1.613-3.294Z" transform="translate(-122.222 -27.359)" fill="#d78f97"/>
            <path id="Path_821103" data-name="Path 821103" d="M424.394,107.532c4.868-5.188,1.355-8.807,1.355-8.807s4.633-9.5,6.49-2.219" transform="translate(-121.72 -26.891)" fill="none" stroke="#c87e84" stroke-miterlimit="10" stroke-width="0.5"/>
            <path id="Path_821104" data-name="Path 821104" d="M312.975,92.517c-5.685-8.627-12.918-9-15.938,1.2s6.949,18.6,15.065,15.5.874-16.7.874-16.7" transform="translate(-85.034 -24.68)" fill="#e3b5aa"/>
            <path id="Path_821105" data-name="Path 821105" d="M308.884,95.421c-3.808-.7-5.76,10.649,2.592,11.023l-1.718-3.958,1.613-3.294Z" transform="translate(-87.654 -27.359)" fill="#d78f97"/>
            <path id="Path_821106" data-name="Path 821106" d="M312.428,107.532c-4.868-5.188-1.355-8.807-1.355-8.807s-4.633-9.5-6.49-2.219" transform="translate(-87.357 -26.891)" fill="none" stroke="#c87e84" stroke-miterlimit="10" stroke-width="0.5"/>
            <path id="Path_821107" data-name="Path 821107" d="M379.7,128.985v14.843c-11.452,15.518-31.87,10.473-31.87,10.473l.357-25.316Z" transform="translate(-99.761 -36.994)" fill="#c87e84"/>
            <path id="Path_821108" data-name="Path 821108" d="M356.321,119.5h0a34.447,34.447,0,0,1-34.446-34.447V59.878a23.266,23.266,0,0,1,23.266-23.266H367.5a23.266,23.266,0,0,1,23.266,23.266V85.051A34.447,34.447,0,0,1,356.321,119.5" transform="translate(-92.316 -10.501)" fill="#e3b5aa"/>
            <path id="Path_821109" data-name="Path 821109" d="M373.343,110.845a5.3,5.3,0,1,1-10.6,0" transform="translate(-104.038 -31.791)" fill="none" stroke="#b83d5d" stroke-miterlimit="10" stroke-width="1"/>
            <path id="Path_821110" data-name="Path 821110" d="M326.06,31.2s-6.034-10,1.523-18.819c0,0,5.43,10.053-1.523,18.819" transform="translate(-92.862 -3.552)" fill="#273a89"/>
            <path id="Path_821111" data-name="Path 821111" d="M323.761,34.794s-8.4,8.114-18.684,2.716c0,0,8.588-7.536,18.684-2.716" transform="translate(-87.499 -9.517)" fill="#273a89"/>
            <path id="Path_821112" data-name="Path 821112" d="M348.814,91.435c0,2.848-1.213,5.157-2.709,5.157s-2.71-2.309-2.71-5.157,1.213-5.157,2.71-5.157,2.709,2.309,2.709,5.157" transform="translate(-98.489 -24.745)" fill="#273a89"/>
            <circle id="Ellipse_9885" data-name="Ellipse 9885" cx="13.852" cy="13.852" r="13.852" transform="translate(232.363 52.454)" fill="none" stroke="#fff" stroke-miterlimit="10" stroke-width="4"/>
            <path id="Path_821113" data-name="Path 821113" d="M394.774,91.435c0,2.848-1.213,5.157-2.71,5.157s-2.71-2.309-2.71-5.157,1.213-5.157,2.71-5.157,2.71,2.309,2.71,5.157" transform="translate(-111.67 -24.745)" fill="#273a89"/>
            <circle id="Ellipse_9886" data-name="Ellipse 9886" cx="13.852" cy="13.852" r="13.852" transform="translate(267.943 52.454)" fill="none" stroke="#fff" stroke-miterlimit="10" stroke-width="4"/>
            <path id="Path_821114" data-name="Path 821114" d="M327.861,41.859s21.884-11.537,36.426-3.175,16.177,25.629,30.537,21.16c0,0,10.906-4.8-1.09-21.524s-20.2-19.994-35.822-16.358-25.78,6.462-30.05,19.9" transform="translate(-94.033 -5.916)" fill="#273a89"/>
            <path id="Path_821115" data-name="Path 821115" d="M326.687,45.157s7.224-9.578,17.336-12.11,21.3,9.906,21.3,9.906-25.907-3.693-38.631,2.2" transform="translate(-93.697 -9.381)" fill="#273a89"/>
            <path id="Path_821116" data-name="Path 821116" d="M321.311,67.057s2.437,17.776,0,28.625c0,0-3.562-27.565,0-28.625" transform="translate(-91.701 -19.233)" fill="#273a89"/>
            <path id="Path_821117" data-name="Path 821117" d="M417.688,67.057s-2.437,17.776,0,28.625c0,0,3.562-27.565,0-28.625" transform="translate(-119.486 -19.233)" fill="#273a89"/>
            <path id="Path_821118" data-name="Path 821118" d="M348.923,64.293c-3.759-1.8-10.444-3.774-16.638.638a1.445,1.445,0,0,0,.613,2.59,46.346,46.346,0,0,0,8.065.677,34.213,34.213,0,0,0,7.694-1.2,1.446,1.446,0,0,0,.267-2.7" transform="translate(-95.131 -17.856)" fill="#273a89"/>
            <path id="Path_821119" data-name="Path 821119" d="M399.819,64.293c-3.758-1.8-10.444-3.774-16.638.638a1.445,1.445,0,0,0,.613,2.59,46.347,46.347,0,0,0,8.065.677,34.211,34.211,0,0,0,7.694-1.2,1.446,1.446,0,0,0,.267-2.7" transform="translate(-109.729 -17.856)" fill="#273a89"/>
            <path id="Path_821120" data-name="Path 821120" d="M376.51,127.046a11.45,11.45,0,0,1-1.358,1.968c-1.841,2.217-4.969,4.346-10.326,4.445l-.008.024-.393-.008-.015-.032c-5.023-.1-8.118-1.989-9.985-4.074a11.24,11.24,0,0,1-1.666-2.358,11.651,11.651,0,0,1-1.125-3.06l26.01.048a10.627,10.627,0,0,1-1.135,3.047" transform="translate(-100.852 -35.55)" fill="#c33e5d"/>
            <path id="Path_821121" data-name="Path 821121" d="M376.51,127.046a11.45,11.45,0,0,1-1.358,1.968,24.47,24.47,0,0,0-20.726.354,11.24,11.24,0,0,1-1.666-2.358,11.651,11.651,0,0,1-1.125-3.06l26.01.048a10.627,10.627,0,0,1-1.135,3.047" transform="translate(-100.852 -35.55)" fill="#36364f"/>
            <path id="Path_821122" data-name="Path 821122" d="M431.425,281.142l-233.185.242s4.35-9.1,10.612-21.16c.464-.891.941-1.8,1.426-2.731,8.551-16.311,20.055-36.915,29.034-48.091,10.341-12.866,34.775-22.038,51.371-27.051,9.671-2.917,16.674-4.422,16.674-4.422h26.788s6.29,1.348,15.177,3.98c16.582,4.9,41.372,14.956,52.869,27.494a61.316,61.316,0,0,1,7.125,9.778c14.15,23.514,22.109,61.962,22.109,61.962" transform="translate(-56.857 -51.032)" fill="#273a89"/>
            <g id="Group_1074240" data-name="Group 1074240" transform="translate(141.383 168.148)">
              <g id="Group_1074239" data-name="Group 1074239">
                <g id="Group_1074238" data-name="Group 1074238" clip-path="url(#clip-path-5)">
                  <path id="Path_821123" data-name="Path 821123" d="M431.425,297.731l-233.185.242s4.35-9.1,10.612-21.16c116.365,34.206,177.687-21.851,191.68-37.025a12.367,12.367,0,0,1,8.728-4.017h.056c14.15,23.514,22.109,61.962,22.109,61.962" transform="translate(-198.24 -235.769)" fill="#132260"/>
                </g>
              </g>
            </g>
            <line id="Line_179" data-name="Line 179" x2="7.317" transform="translate(260.347 68.662)" fill="none" stroke="#fff" stroke-miterlimit="10" stroke-width="4"/>
            <path id="Path_821124" data-name="Path 821124" d="M386.5,181.9c-28.864,31.759-58.637.449-58.637.449,9.672-2.923,16.677-4.428,16.677-4.428h26.785s6.29,1.352,15.175,3.98" transform="translate(-94.033 -51.03)" fill="#e3b5aa"/>
            <line id="Line_180" data-name="Line 180" y2="36.219" transform="translate(200.272 194.178)" fill="none" stroke="#dc831e" stroke-miterlimit="10" stroke-width="3"/>
            <line id="Line_181" data-name="Line 181" x1="9.725" y1="12.4" transform="translate(190.547 204.863)" fill="none" stroke="#dc831e" stroke-miterlimit="10" stroke-width="3"/>
            <line id="Line_182" data-name="Line 182" y2="36.219" transform="translate(327.079 194.178)" fill="none" stroke="#dc831e" stroke-miterlimit="10" stroke-width="3"/>
            <line id="Line_183" data-name="Line 183" y1="11.01" x2="8.635" transform="translate(327.079 206.253)" fill="none" stroke="#dc831e" stroke-miterlimit="10" stroke-width="3"/>
            <path id="Path_821125" data-name="Path 821125" d="M325.923,202.983s35.791,24.443,60.02-1.187" transform="translate(-93.477 -57.877)" fill="none" stroke="#dc831e" stroke-miterlimit="10" stroke-width="3"/>
          </g>
        </g>
        <g id="Group_1074250" data-name="Group 1074250">
          <g id="Group_1074249" data-name="Group 1074249" clip-path="url(#clip-path-3)">
            <path id="Path_821126" data-name="Path 821126" d="M326.605,20.964c8.036-33.776,88.546-30.06,73.565,35.7-4.489,19.7-37.3-44.778-65.62-28.96a5.567,5.567,0,0,1-6.524-.781,6.025,6.025,0,0,1-1.421-5.961" transform="translate(-93.608 0)" fill="#18286c"/>
            <path id="Path_821127" data-name="Path 821127" d="M313.006,288.064a.258.258,0,0,1-.078.014,5.4,5.4,0,0,1-.592.029H156.153a6.572,6.572,0,0,1-6.561-6.568l-.021-.071-24.32-68.716a8.067,8.067,0,0,1,7.6-10.762h101.4a8.068,8.068,0,0,1,7.61,5.377l26.21,74.044.043.128h44.368c4.072,0,4.522,6.091.521,6.526" transform="translate(-35.788 -57.932)" fill="#3ee2a8"/>
            <path id="Path_821128" data-name="Path 821128" d="M216.067,256.048c2.564,7.456-.335,15.212-6.476,17.324s-13.2-2.22-15.762-9.677.335-15.212,6.476-17.324,13.2,2.221,15.762,9.677" transform="translate(-55.324 -70.508)" fill="#fff"/>
            <path id="Path_821129" data-name="Path 821129" d="M355.149,281.538h-44.37s-.013-.045-.039-.128l-26.214-74.044a8.066,8.066,0,0,0-7.608-5.374h-3.39s7.576.495,9.47,7.275,27.78,78.7,27.78,78.7l1.913.141h42.3c.205,0,.4-.006.6-.026,4.083-.372,3.653-6.542-.443-6.542" transform="translate(-78.45 -57.933)" fill="#a7e8d1"/>
            <g id="Group_1074245" data-name="Group 1074245" transform="translate(115.237 144.057)" opacity="0.4">
              <g id="Group_1074244" data-name="Group 1074244">
                <g id="Group_1074243" data-name="Group 1074243" clip-path="url(#clip-path-7)">
                  <path id="Path_821130" data-name="Path 821130" d="M323.56,288.064a.258.258,0,0,1-.078.014,5.4,5.4,0,0,1-.592.029H166.708a6.536,6.536,0,0,1-5.128-2.475c92.315,7.931,83.229-83.643,83.229-83.643a8.068,8.068,0,0,1,7.61,5.377l26.21,74.044.043.128h43.669c.471,2.161.884,4.336,1.22,6.526" transform="translate(-161.58 -201.989)" fill="#32c38f"/>
                </g>
              </g>
            </g>
            <path id="Path_821131" data-name="Path 821131" d="M315.656,332.274v1.647c0,5.035-2.661,9.115-5.94,9.115H5.94c-2.764,0-5.086-2.9-5.75-6.811a.036.036,0,0,0,0-.021A14.067,14.067,0,0,1,0,333.921v-1.647c0-5.035,2.657-9.115,5.94-9.115H309.715c3.279,0,5.94,4.079,5.94,9.115" transform="translate(88.992 -92.685)" fill="#47547c"/>
          </g>
        </g>
      </g>
    </g>
    <g id="Group_1074268" data-name="Group 1074268" transform="translate(1000 548.648)">
      <rect id="Rectangle_382646" data-name="Rectangle 382646" width="98.947" height="117.968" transform="translate(0 5.746)" fill="#273a89"/>
      <rect id="Rectangle_382647" data-name="Rectangle 382647" width="98.947" height="14.972" fill="#ffce00"/>
      <path id="Path_821146" data-name="Path 821146" d="M167.155,224.019v.972l-3.558,1.353v-.934l2.49-.9-2.49-.912v-.927Z" transform="translate(-79.658 -108.42)" fill="#eba154"/>
      <path id="Path_821147" data-name="Path 821147" d="M147.438,222.666v.927l-2.49.912,2.49.9v.934l-3.558-1.353v-.972Z" transform="translate(-70.057 -108.419)" fill="#eba154"/>
      <text id="_" data-name="/" transform="translate(78.696 117.673)" fill="#eba154" font-size="7" font-family="Montserrat-Bold, Montserrat" font-weight="700"><tspan x="0" y="0">/</tspan></text>
      <path id="Path_821148" data-name="Path 821148" d="M41.486,46.182v1.212l-4.437,1.687V47.916l3.1-1.128-3.1-1.138V44.494Z" transform="translate(-18.04 -21.665)" fill="#ffce00"/>
      <path id="Path_821149" data-name="Path 821149" d="M25.583,44.495v1.156l-3.1,1.137,3.1,1.128v1.165l-4.437-1.687V46.182Z" transform="translate(-10.296 -21.665)" fill="#ffce00"/>
      <rect id="Rectangle_382648" data-name="Rectangle 382648" width="29.085" height="5.326" transform="translate(17.106 34.611)" fill="#3ee2a8"/>
      <rect id="Rectangle_382649" data-name="Rectangle 382649" width="14.543" height="5.326" transform="translate(50.289 34.611)" fill="#ffce00"/>
      <rect id="Rectangle_382650" data-name="Rectangle 382650" width="20.03" height="5.326" transform="translate(68.182 34.611)" fill="#fff"/>
      <rect id="Rectangle_382651" data-name="Rectangle 382651" width="13.575" height="5.326" transform="translate(17.106 44.121)" fill="#3ee2a8"/>
      <rect id="Rectangle_382652" data-name="Rectangle 382652" width="23.186" height="5.326" transform="translate(34.375 44.121)" fill="#ffce00"/>
      <rect id="Rectangle_382653" data-name="Rectangle 382653" width="26.872" height="5.326" transform="translate(61.339 44.121)" fill="#fff"/>
      <rect id="Rectangle_382654" data-name="Rectangle 382654" width="17.869" height="5.326" transform="translate(17.106 53.63)" fill="#3ee2a8"/>
      <rect id="Rectangle_382655" data-name="Rectangle 382655" width="33.613" height="5.326" transform="translate(37.884 53.63)" fill="#ffce00"/>
      <rect id="Rectangle_382656" data-name="Rectangle 382656" width="13.113" height="5.326" transform="translate(75.099 53.63)" fill="#fff"/>
      <rect id="Rectangle_382657" data-name="Rectangle 382657" width="22.532" height="5.326" transform="translate(17.106 63.14)" fill="#3ee2a8"/>
      <rect id="Rectangle_382658" data-name="Rectangle 382658" width="21.87" height="5.326" transform="translate(42.963 63.14)" fill="#ffce00"/>
      <rect id="Rectangle_382659" data-name="Rectangle 382659" width="20.03" height="5.326" transform="translate(68.182 63.14)" fill="#fff"/>
      <rect id="Rectangle_382660" data-name="Rectangle 382660" width="9.881" height="5.326" transform="translate(17.106 72.649)" fill="#3ee2a8"/>
      <rect id="Rectangle_382661" data-name="Rectangle 382661" width="19.577" height="5.326" transform="translate(30.311 72.649)" fill="#ffce00"/>
      <rect id="Rectangle_382662" data-name="Rectangle 382662" width="35.276" height="5.326" transform="translate(52.936 72.649)" fill="#fff"/>
      <rect id="Rectangle_382663" data-name="Rectangle 382663" width="28.258" height="5.326" transform="translate(17.106 82.159)" fill="#3ee2a8"/>
      <rect id="Rectangle_382664" data-name="Rectangle 382664" width="8.688" height="5.326" transform="translate(48.873 82.159)" fill="#ffce00"/>
      <rect id="Rectangle_382665" data-name="Rectangle 382665" width="26.872" height="5.326" transform="translate(61.339 82.159)" fill="#fff"/>
      <rect id="Rectangle_382666" data-name="Rectangle 382666" width="36.791" height="5.326" transform="translate(17.106 91.668)" fill="#3ee2a8"/>
      <rect id="Rectangle_382667" data-name="Rectangle 382667" width="15.052" height="5.326" transform="translate(56.999 91.668)" fill="#ffce00"/>
      <rect id="Rectangle_382668" data-name="Rectangle 382668" width="13.113" height="5.326" transform="translate(75.099 91.668)" fill="#fff"/>
      <rect id="Rectangle_382669" data-name="Rectangle 382669" width="11.266" height="5.326" transform="translate(17.106 101.178)" fill="#3ee2a8"/>
      <rect id="Rectangle_382670" data-name="Rectangle 382670" width="13.715" height="5.326" transform="translate(31.649 101.178)" fill="#ffce00"/>
      <rect id="Rectangle_382671" data-name="Rectangle 382671" width="39.339" height="5.326" transform="translate(48.873 101.178)" fill="#fff"/>
      <rect id="Rectangle_382672" data-name="Rectangle 382672" width="1.083" height="71.893" transform="translate(92.101 34.611)" fill="#fff"/>
      <g id="Group_1074267" data-name="Group 1074267">
        <g id="Group_1074266" data-name="Group 1074266" clip-path="url(#clip-path-8)">
          <path id="Path_821150" data-name="Path 821150" d="M15.649,70.119a2.663,2.663,0,1,1-2.663-2.663,2.663,2.663,0,0,1,2.663,2.663" transform="translate(-5.026 -32.845)" fill="#fff"/>
          <path id="Path_821151" data-name="Path 821151" d="M15.649,88.653a2.663,2.663,0,1,1-2.663-2.663,2.663,2.663,0,0,1,2.663,2.663" transform="translate(-5.026 -41.87)" fill="#fff"/>
          <path id="Path_821152" data-name="Path 821152" d="M15.649,107.187a2.663,2.663,0,1,1-2.663-2.663,2.663,2.663,0,0,1,2.663,2.663" transform="translate(-5.026 -50.894)" fill="#fff"/>
          <path id="Path_821153" data-name="Path 821153" d="M15.649,125.721a2.663,2.663,0,1,1-2.663-2.663,2.663,2.663,0,0,1,2.663,2.663" transform="translate(-5.026 -59.919)" fill="#fff"/>
          <path id="Path_821154" data-name="Path 821154" d="M15.649,144.255a2.663,2.663,0,1,1-2.663-2.663,2.663,2.663,0,0,1,2.663,2.663" transform="translate(-5.026 -68.943)" fill="#fff"/>
          <path id="Path_821155" data-name="Path 821155" d="M15.649,162.789a2.663,2.663,0,1,1-2.663-2.663,2.663,2.663,0,0,1,2.663,2.663" transform="translate(-5.026 -77.968)" fill="#fff"/>
          <path id="Path_821156" data-name="Path 821156" d="M15.649,181.323a2.663,2.663,0,1,1-2.663-2.663,2.663,2.663,0,0,1,2.663,2.663" transform="translate(-5.026 -86.992)" fill="#fff"/>
          <path id="Path_821157" data-name="Path 821157" d="M15.649,199.857a2.663,2.663,0,1,1-2.663-2.663,2.663,2.663,0,0,1,2.663,2.663" transform="translate(-5.026 -96.017)" fill="#fff"/>
          <path id="Path_821158" data-name="Path 821158" d="M179.1,13.622a2.716,2.716,0,1,1-2.716-2.716,2.716,2.716,0,0,1,2.716,2.716" transform="translate(-84.563 -5.31)" fill="#273a89"/>
        </g>
      </g>
    </g>
    <g id="Group_1074265" data-name="Group 1074265" transform="translate(1274.597 695.54)">
      <g id="Group_1074264" data-name="Group 1074264" clip-path="url(#clip-path-9)">
        <g id="Group_1074263" data-name="Group 1074263">
          <g id="Group_1074262" data-name="Group 1074262" clip-path="url(#clip-path-9)">
            <path id="Path_821133" data-name="Path 821133" d="M25.886,67.866a17.418,17.418,0,0,1-10.763-2.531C3.147,57.924.648,37.022.476,35.452c.1.482,1.286,3.037,13.733,11.412q1.554,1.048,2.851,2.124s.014.012.044.035c10.848,8.983,8.781,18.843,8.781,18.843" transform="translate(-0.166 -12.34)" fill="#0c8068"/>
            <path id="Path_821134" data-name="Path 821134" d="M.463,35.311S11.646,62.753,24.052,65.642" transform="translate(-0.161 -12.291)" fill="none" stroke="#0a6d53" stroke-miterlimit="10" stroke-width="1"/>
            <g id="Group_1074255" data-name="Group 1074255" transform="translate(14.958 36.648)" opacity="0.5">
              <g id="Group_1074254" data-name="Group 1074254">
                <g id="Group_1074253" data-name="Group 1074253" clip-path="url(#clip-path-11)">
                  <path id="Path_821135" data-name="Path 821135" d="M33.706,75.093a17.418,17.418,0,0,1-10.763-2.531c2.384-5.641,1.938-16.347,1.938-16.347l.044.035c10.848,8.983,8.781,18.843,8.781,18.843" transform="translate(-22.944 -56.215)" fill="#0a6d53"/>
                </g>
              </g>
            </g>
            <path id="Path_821136" data-name="Path 821136" d="M74.372,37.795c-.048.292-.214,1.305-.549,2.8V40.6c-1.767,7.912-8.145,29.2-25.3,27.07a13.757,13.757,0,0,1,.289-4.561c.848-4.018,3.576-10,11.876-15.018C73,40.641,74.247,38.249,74.372,37.795" transform="translate(-16.863 -13.155)" fill="#0c8068"/>
            <path id="Path_821137" data-name="Path 821137" d="M74.513,40.388S65.707,63.2,50.432,67.856" transform="translate(-17.554 -14.058)" fill="none" stroke="#0a6d53" stroke-miterlimit="10" stroke-width="1"/>
            <g id="Group_1074258" data-name="Group 1074258" transform="translate(31.584 27.437)" opacity="0.5">
              <g id="Group_1074257" data-name="Group 1074257">
                <g id="Group_1074256" data-name="Group 1074256" clip-path="url(#clip-path-12)">
                  <path id="Path_821138" data-name="Path 821138" d="M73.822,42.087v.005c-1.767,7.912-8.144,29.2-25.3,27.07a13.779,13.779,0,0,1,.289-4.561h.018c14.275.764,25-22.514,25-22.514" transform="translate(-48.447 -42.087)" fill="#0a6d53"/>
                </g>
              </g>
            </g>
            <path id="Path_821139" data-name="Path 821139" d="M41.339,55.383c-.424.737-6.689-1.867-9.512-9.4h0c-1.7-4.526-2.147-10.83.654-19.255C39.836,4.6,36.8.432,36.713.315A26.888,26.888,0,0,1,47.38,11.285s0,.01.017.03c4.535,8.522,6.305,22.564-6.058,44.068" transform="translate(-10.604 -0.11)" fill="#159a7a"/>
            <path id="Path_821140" data-name="Path 821140" d="M40.046.311s9.6,12.106,5.942,35.134-1.313,19.937-1.313,19.937" transform="translate(-13.939 -0.108)" fill="none" stroke="#0c8068" stroke-miterlimit="10" stroke-width="1"/>
            <g id="Group_1074261" data-name="Group 1074261" transform="translate(21.223 11.175)" opacity="0.5">
              <g id="Group_1074260" data-name="Group 1074260">
                <g id="Group_1074259" data-name="Group 1074259" clip-path="url(#clip-path-13)">
                  <path id="Path_821141" data-name="Path 821141" d="M42.066,61.24c-.424.737-6.689-1.867-9.512-9.4,15.8,4.488,15.553-34.7,15.553-34.7s0,.01.017.03c4.535,8.522,6.305,22.564-6.058,44.068" transform="translate(-32.554 -17.142)" fill="#0c8068"/>
                </g>
              </g>
            </g>
            <path id="Path_821142" data-name="Path 821142" d="M.46,35.31l.008.078A.2.2,0,0,1,.46,35.31" transform="translate(-0.16 -12.29)" fill="#0c8068"/>
            <path id="Path_821143" data-name="Path 821143" d="M51.328,84.28v17.685a9.367,9.367,0,0,1-9.368,9.368H33.644a9.358,9.358,0,0,1-8-4.492h0a9.341,9.341,0,0,1-1.365-4.875V84.28Z" transform="translate(-8.45 -29.336)" fill="#ffce00"/>
            <path id="Path_821144" data-name="Path 821144" d="M51.419,80.761H22.4a.69.69,0,0,0-.69.69v.913a.69.69,0,0,0,.69.69H51.419a.69.69,0,0,0,.69-.69v-.913a.69.69,0,0,0-.69-.69" transform="translate(-7.557 -28.111)" fill="#eba154"/>
            <path id="Path_821145" data-name="Path 821145" d="M52.059,84.28v17.685a9.367,9.367,0,0,1-9.368,9.368H34.374a9.358,9.358,0,0,1-8-4.492c19.814,6.223,24.117-8.347,23.351-14.126s-7.9-8.434-7.9-8.434Z" transform="translate(-9.18 -29.336)" fill="#ceb64f"/>
          </g>
        </g>
      </g>
    </g>
  </g>
</svg>
