<svg xmlns="http://www.w3.org/2000/svg" width="505" height="265" viewBox="0 0 505 265">
  <g id="Group_1074752" data-name="Group 1074752" transform="translate(-810 -1240)">
    <g id="Group_1074285" data-name="Group 1074285" transform="translate(630 -1528)">
      <g id="Group_1073294" data-name="Group 1073294" transform="translate(180 2768)">
        <rect id="Rectangle_382557" data-name="Rectangle 382557" width="505" height="75" rx="8" fill="#273a89"/>
        <path id="Rectangle_382556" data-name="Rectangle 382556" d="M0,0H505a0,0,0,0,1,0,0V222a8,8,0,0,1-8,8H8a8,8,0,0,1-8-8V0A0,0,0,0,1,0,0Z" transform="translate(0 35)"/>
        <circle id="Ellipse_9768" data-name="Ellipse 9768" cx="4.5" cy="4.5" r="4.5" transform="translate(21 13)" fill="#ff1212"/>
        <circle id="Ellipse_9769" data-name="Ellipse 9769" cx="4.5" cy="4.5" r="4.5" transform="translate(34 13)" fill="#ffce00"/>
        <ellipse id="Ellipse_9770" data-name="Ellipse 9770" cx="4" cy="4.5" rx="4" ry="4.5" transform="translate(48 13)" fill="#3ee2a8"/>
      </g>
    </g>
    <g id="Group_27021" data-name="Group 27021" transform="translate(980.284 1358.5)">
      <path id="Path_243" data-name="Path 243" d="M5.873,0H158.56c3.243,0,5.873,2.239,5.873,5V35c0,2.761-2.629,5-5.873,5H5.873C2.629,40,0,37.761,0,35V5C0,2.239,2.629,0,5.873,0Z" fill="#ffce00"/>
      <g id="Group_873" data-name="Group 873" transform="translate(24.216 9.836)">
        <g id="Group_5" data-name="Group 5">
          <path id="Path_824444" data-name="Path 824444" d="M4.768-1.868l3.047-8.8H9.353L5.4,0H4.153L.205-10.664H1.736ZM13.857.146A3.463,3.463,0,0,1,11.235-.912a3.928,3.928,0,0,1-1.011-2.831v-.249a4.756,4.756,0,0,1,.45-2.106,3.514,3.514,0,0,1,1.26-1.45,3.167,3.167,0,0,1,1.754-.524,2.968,2.968,0,0,1,2.4,1.018,4.408,4.408,0,0,1,.857,2.915v.564H11.58a2.817,2.817,0,0,0,.685,1.893,2.153,2.153,0,0,0,1.666.721,2.36,2.36,0,0,0,1.216-.293,3.055,3.055,0,0,0,.872-.776l.828.645A3.328,3.328,0,0,1,13.857.146Zm-.168-7.1a1.807,1.807,0,0,0-1.377.6,2.9,2.9,0,0,0-.688,1.674h3.97v-.1a2.581,2.581,0,0,0-.557-1.6A1.7,1.7,0,0,0,13.689-6.958Zm8.657.249a4.06,4.06,0,0,0-.667-.051,1.786,1.786,0,0,0-1.809,1.135V0H18.516V-7.925h1.318l.022.916a2.11,2.11,0,0,1,1.89-1.062,1.384,1.384,0,0,1,.6.1Zm12.246-2.8H31.165V0h-1.4V-9.507h-3.42v-1.157h8.247ZM39.25.146A3.463,3.463,0,0,1,36.628-.912a3.928,3.928,0,0,1-1.011-2.831v-.249a4.756,4.756,0,0,1,.45-2.106,3.514,3.514,0,0,1,1.26-1.45,3.167,3.167,0,0,1,1.754-.524,2.968,2.968,0,0,1,2.4,1.018,4.408,4.408,0,0,1,.857,2.915v.564H36.973a2.817,2.817,0,0,0,.685,1.893,2.153,2.153,0,0,0,1.666.721,2.36,2.36,0,0,0,1.216-.293,3.055,3.055,0,0,0,.872-.776l.828.645A3.328,3.328,0,0,1,39.25.146Zm-.168-7.1a1.807,1.807,0,0,0-1.377.6,2.9,2.9,0,0,0-.688,1.674h3.97v-.1a2.581,2.581,0,0,0-.557-1.6A1.7,1.7,0,0,0,39.082-6.958Zm8.657.249a4.06,4.06,0,0,0-.667-.051,1.786,1.786,0,0,0-1.809,1.135V0H43.909V-7.925h1.318l.022.916a2.11,2.11,0,0,1,1.89-1.062,1.384,1.384,0,0,1,.6.1Zm2.52-1.216.037.879a2.927,2.927,0,0,1,2.351-1.025A2.266,2.266,0,0,1,54.91-6.8a3,3,0,0,1,1.029-.923,3.039,3.039,0,0,1,1.5-.352q2.607,0,2.651,2.761V0H58.733V-5.229A1.82,1.82,0,0,0,58.345-6.5a1.71,1.71,0,0,0-1.3-.421,1.8,1.8,0,0,0-1.252.45,1.827,1.827,0,0,0-.579,1.212V0H53.848V-5.193a1.512,1.512,0,0,0-1.692-1.729,1.813,1.813,0,0,0-1.824,1.135V0H48.977V-7.925ZM63.6,0H62.249V-7.925H63.6ZM62.139-10.027a.809.809,0,0,1,.2-.557.756.756,0,0,1,.6-.227.768.768,0,0,1,.6.227.8.8,0,0,1,.205.557.774.774,0,0,1-.205.549.782.782,0,0,1-.6.22.77.77,0,0,1-.6-.22A.782.782,0,0,1,62.139-10.027Zm4.915,2.1.044,1A2.888,2.888,0,0,1,69.47-8.071q2.512,0,2.534,2.834V0H70.649V-5.244a1.824,1.824,0,0,0-.392-1.267,1.57,1.57,0,0,0-1.2-.41A1.956,1.956,0,0,0,67.9-6.57a2.387,2.387,0,0,0-.776.923V0H65.771V-7.925ZM78.94,0a2.846,2.846,0,0,1-.19-.835,3.023,3.023,0,0,1-2.256.981,2.8,2.8,0,0,1-1.923-.663A2.145,2.145,0,0,1,73.821-2.2a2.24,2.24,0,0,1,.941-1.923A4.437,4.437,0,0,1,77.41-4.8h1.318v-.623A1.522,1.522,0,0,0,78.3-6.559a1.707,1.707,0,0,0-1.252-.421,1.976,1.976,0,0,0-1.216.366,1.079,1.079,0,0,0-.491.886H73.982A1.87,1.87,0,0,1,74.4-6.874a2.874,2.874,0,0,1,1.143-.875,3.844,3.844,0,0,1,1.586-.322,3.133,3.133,0,0,1,2.146.685A2.47,2.47,0,0,1,80.083-5.5v3.647a4.459,4.459,0,0,0,.278,1.736V0ZM76.692-1.033a2.381,2.381,0,0,0,1.208-.33,1.994,1.994,0,0,0,.828-.857V-3.845H77.666q-2.49,0-2.49,1.458a1.234,1.234,0,0,0,.425,1A1.633,1.633,0,0,0,76.692-1.033ZM83.679,0H82.324V-11.25h1.355Z" transform="translate(0 16)" fill="#12263f"/>
        </g>
      </g>
      <g id="noun-open-1379052" transform="translate(122.716 8.431)">
        <g id="Group_1074290" data-name="Group 1074290" transform="translate(2 1.975)">
          <g id="Group_1074286" data-name="Group 1074286" transform="translate(0 2.414)">
            <path id="Path_821162" data-name="Path 821162" d="M18.3,22.275H2.548A.488.488,0,0,1,2,21.8V6.048A.54.54,0,0,1,2.548,5.5h9.038a.488.488,0,0,1,.479.548.433.433,0,0,1-.479.479H3.027V21.248H17.748V12.689a.54.54,0,0,1,.548-.548.5.5,0,0,1,.548.548V21.8A.581.581,0,0,1,18.3,22.275Z" transform="translate(-2 -5.5)" fill="#12263f" stroke="#000" stroke-width="1.1"/>
          </g>
          <g id="Group_1074287" data-name="Group 1074287" transform="translate(6.282)">
            <path id="Path_821163" data-name="Path 821163" d="M11.671,14.933a.523.523,0,0,1-.342-.137.537.537,0,0,1,0-.753L23.175,2.129a.533.533,0,0,1,.753.753L12.014,14.728A.377.377,0,0,1,11.671,14.933Z" transform="translate(-11.175 -1.975)" fill="#12263f" stroke="#000" stroke-width="1.1"/>
          </g>
          <g id="Group_1074289" data-name="Group 1074289" transform="translate(12.462 0.017)">
            <g id="Group_1074288" data-name="Group 1074288">
              <path id="Path_821164" data-name="Path 821164" d="M26.294,8.642h0a.589.589,0,0,1-.548-.548l.137-5.135-5.135.205a.529.529,0,0,1-.548-.479.529.529,0,0,1,.479-.548L26.362,2a.523.523,0,0,1,.342.137.781.781,0,0,1,.205.411l-.137,5.615A.468.468,0,0,1,26.294,8.642Z" transform="translate(-20.2 -2)" fill="#12263f" stroke="#000" stroke-width="1.1"/>
            </g>
          </g>
        </g>
      </g>
    </g>
  </g>
</svg>
