<svg xmlns="http://www.w3.org/2000/svg" xmlns:xlink="http://www.w3.org/1999/xlink" width="505" height="318.332" viewBox="0 0 505 318.332">
  <defs>
    <clipPath id="clip-path">
      <rect id="Rectángulo_382626" data-name="Rectángulo 382626" width="407.664" height="256.775" fill="#c7efe1"/>
    </clipPath>
    <clipPath id="clip-path-2">
      <rect id="Rectángulo_382586" data-name="Rectángulo 382586" width="264.89" height="302.945" fill="none"/>
    </clipPath>
    <clipPath id="clip-path-3">
      <rect id="Rectángulo_382625" data-name="Rectángulo 382625" width="111.444" height="57.891" fill="none"/>
    </clipPath>
    <clipPath id="clip-path-4">
      <rect id="Rectángulo_382587" data-name="Rectángulo 382587" width="64.699" height="75.129" fill="none"/>
    </clipPath>
    <clipPath id="clip-path-5">
      <rect id="Rectángulo_382588" data-name="Rectángulo 382588" width="60.524" height="70.28" fill="none"/>
    </clipPath>
  </defs>
  <g id="Grupo_1074229" data-name="Grupo 1074229" transform="translate(-285 -3833)">
    <g id="Grupo_1074228" data-name="Grupo 1074228" transform="translate(57.046 21.025)">
      <g id="Grupo_1074227" data-name="Grupo 1074227" transform="translate(285 3865.417)">
        <g id="Grupo_1074226" data-name="Grupo 1074226" transform="translate(0 0)" clip-path="url(#clip-path)">
          <path id="Trazado_821095" data-name="Trazado 821095" d="M6.162,185.273c14.519,43.593,58.613,75.748,105.678,71.046,63.414-3.017,124.428-61.361,188.1-32.713,46.937,25.38,98.562,14.374,105.98-43.964,10.48-47.7-27.982-114.909-68.4-140.189C290.977,11.567,234.824.728,180.869.155,83-4.135-27.468,81.4,6.162,185.273" transform="translate(0 0)" fill="#c7efe1"/>
        </g>
      </g>
      <g id="Grupo_1074213" data-name="Grupo 1074213" transform="translate(319.532 3827.361)">
        <rect id="Rectángulo_382580" data-name="Rectángulo 382580" width="73.099" height="31.916" transform="translate(97.548 221.405)" fill="#25292b"/>
        <g id="Grupo_1074212" data-name="Grupo 1074212" transform="translate(0 0)">
          <g id="Grupo_1074211" data-name="Grupo 1074211" clip-path="url(#clip-path-2)">
            <path id="Trazado_820994" data-name="Trazado 820994" d="M100.53,105.326l-32.89,4.187A29.862,29.862,0,0,0,42.386,132.12l-4.85,39.937h34.09l-4.995,52.775,30.925,17.388h73.366l-8.389-58.571,4.728-18.608h27.3l-6.946-31.589A29.861,29.861,0,0,0,164.3,110.581L138,105.326Z" transform="translate(-6.643 -18.641)" fill="#3ee2a8"/>
            <path id="Trazado_820995" data-name="Trazado 820995" d="M111.352,213.862v23.183H47.692A11.517,11.517,0,0,1,36.2,224.766L38.746,186.4H73.214l-2.436,19.522Z" transform="translate(-6.403 -32.991)" fill="#edd2a6"/>
            <path id="Trazado_820996" data-name="Trazado 820996" d="M84.108,182.455H64.316v-.823h19.1l3.6-19.87.81.146Z" transform="translate(-11.383 -28.63)" fill="#25292b"/>
            <rect id="Rectángulo_382581" data-name="Rectángulo 382581" width="34.128" height="0.823" transform="matrix(0.234, -0.972, 0.972, 0.234, 155.503, 164.915)" fill="#25292b"/>
            <path id="Trazado_820997" data-name="Trazado 820997" d="M284.51,126.294h0a4.723,4.723,0,0,1-3.187-5.847l8.038-27.3a4.708,4.708,0,1,1,9.033,2.66l-8.038,27.3a4.723,4.723,0,0,1-5.847,3.187" transform="translate(-49.756 -15.889)" fill="#edd2a6"/>
            <path id="Trazado_820998" data-name="Trazado 820998" d="M290.963,134.612h0a4.723,4.723,0,0,1-2.732-6.073l4.89-12.886a4.708,4.708,0,1,1,8.8,3.341l-4.89,12.886a4.722,4.722,0,0,1-6.072,2.732" transform="translate(-50.959 -19.932)" fill="#e6d3b5"/>
            <path id="Trazado_820999" data-name="Trazado 820999" d="M298.335,140.835h0a4.723,4.723,0,0,1-2.732-6.073l5.025-13.24a4.709,4.709,0,1,1,8.8,3.341l-5.024,13.24a4.723,4.723,0,0,1-6.073,2.732" transform="translate(-52.264 -20.97)" fill="#e6d3b5"/>
            <path id="Trazado_821000" data-name="Trazado 821000" d="M305.947,141.262h0a4.722,4.722,0,0,1-.834-6.606l5.18-6.678a4.709,4.709,0,0,1,7.441,5.773l-5.181,6.678a4.722,4.722,0,0,1-6.606.834" transform="translate(-53.827 -22.329)" fill="#e6d3b5"/>
            <path id="Trazado_821001" data-name="Trazado 821001" d="M298.807,127.956h0a4.722,4.722,0,0,1-5.587,3.621l-13.85-2.957a4.708,4.708,0,0,1,1.966-9.209l13.85,2.957a4.722,4.722,0,0,1,3.621,5.587" transform="translate(-48.785 -21.116)" fill="#e6d3b5"/>
            <path id="Trazado_821002" data-name="Trazado 821002" d="M289.087,139.182c-2.156,10.683-14.592,17.045-14.592,17.045L237.78,197.633a27.869,27.869,0,0,1-22.156,10.946l-24.081-.379-3.432-23.563,5.3-16.452h23.505l.922,3.037,37.134-27.7,5.284-19.687Z" transform="translate(-33.293 -21.917)" fill="#edd2a6"/>
            <path id="Trazado_821003" data-name="Trazado 821003" d="M296.529,139.973h-.016a.413.413,0,0,1-.4-.427,5.085,5.085,0,0,1,.328-1.612l1.089-3.313a.411.411,0,1,1,.781.258l-1.094,3.33a4.3,4.3,0,0,0-.281,1.369.412.412,0,0,1-.411.4" transform="translate(-52.408 -23.776)" fill="#25292b"/>
            <path id="Trazado_821004" data-name="Trazado 821004" d="M300.031,145.826a5.063,5.063,0,0,1-1.793-.327,5.121,5.121,0,0,1-2.606-2.218.412.412,0,0,1,.713-.413,4.289,4.289,0,0,0,2.186,1.861,4.335,4.335,0,0,0,4.933-1.4.411.411,0,0,1,.653.5,5.168,5.168,0,0,1-4.085,2" transform="translate(-52.313 -25.249)" fill="#25292b"/>
            <path id="Trazado_821005" data-name="Trazado 821005" d="M308.981,145.636a5.071,5.071,0,0,1-3.122-1.07,5.146,5.146,0,0,1-.7-.658.412.412,0,0,1,.617-.545,4.341,4.341,0,0,0,.588.552,4.312,4.312,0,0,0,6.029-.762.412.412,0,0,1,.651.505,5.086,5.086,0,0,1-3.406,1.935,5.191,5.191,0,0,1-.657.042" transform="translate(-53.99 -25.308)" fill="#25292b"/>
            <path id="Trazado_821006" data-name="Trazado 821006" d="M296.093,145.42h-.011a.412.412,0,0,1-.4-.422,11.849,11.849,0,0,0-.1-1.87.411.411,0,0,1,.353-.462.406.406,0,0,1,.462.353,12.612,12.612,0,0,1,.107,2,.412.412,0,0,1-.412.4" transform="translate(-52.313 -25.249)" fill="#25292b"/>
            <path id="Trazado_821007" data-name="Trazado 821007" d="M293.6,139.285a.411.411,0,0,1-.407-.357c-.8-6.007-6.135-8.878-6.189-8.906a.412.412,0,0,1,.295-.763l7.162,1.853a4.3,4.3,0,0,0,1.777-8.408l-13.849-2.957a.412.412,0,1,1,.172-.8l13.849,2.957a5.12,5.12,0,0,1-2.138,10.014l-4.95-1.282a12.906,12.906,0,0,1,4.687,8.187.41.41,0,0,1-.353.462.31.31,0,0,1-.055,0" transform="translate(-49.921 -21.05)" fill="#25292b"/>
            <path id="Trazado_821008" data-name="Trazado 821008" d="M294.675,120.773a.387.387,0,0,1-.117-.017.41.41,0,0,1-.277-.51l2.177-7.394a.411.411,0,0,1,.789.232l-2.178,7.394a.411.411,0,0,1-.394.3" transform="translate(-52.081 -19.921)" fill="#25292b"/>
            <path id="Trazado_821009" data-name="Trazado 821009" d="M302.872,124.219a.406.406,0,0,1-.145-.026.411.411,0,0,1-.24-.53l1.914-5.1a.412.412,0,0,1,.77.29l-1.914,5.1a.412.412,0,0,1-.385.267" transform="translate(-53.531 -20.937)" fill="#25292b"/>
            <path id="Trazado_821010" data-name="Trazado 821010" d="M305.467,141.37a.4.4,0,0,1-.151-.029.411.411,0,0,1-.232-.533l4.99-12.679a.411.411,0,1,1,.765.3L305.85,141.11a.411.411,0,0,1-.383.261" transform="translate(-53.991 -22.631)" fill="#25292b"/>
            <path id="Trazado_821011" data-name="Trazado 821011" d="M172.516,30.318c-3.475,6.843-11.063,10.53-18.546,10.263a21.38,21.38,0,0,1-1.8,5,21.735,21.735,0,0,1-11.848,10.461c-4.686,1.692-10.34,1.746-14.172-1.539a22.755,22.755,0,0,1-11.307-.922,21.7,21.7,0,0,1-14.354-20.237,18.926,18.926,0,0,1,4.22-12.579,12.009,12.009,0,0,1,10.081-4.2,11.49,11.49,0,0,1-.107-2.659c.4-5.029,4.511-8.793,9.288-9.753A12.791,12.791,0,0,1,135.4,8.016a15,15,0,0,1,1.318-2.362,13.616,13.616,0,0,1,24.541,5.966,11.351,11.351,0,0,1,5.265.549c7.284,2.507,9.2,11.84,5.989,18.149" transform="translate(-17.785 0)" fill="#273a89"/>
            <path id="Trazado_821012" data-name="Trazado 821012" d="M103.685,65.082c2.236,5.652,6.351,8.83,11.677,7.41l-3.344,20.835,25.7,25.7,11.944-22.114-.479-9.41,4.01-3.7a30.03,30.03,0,0,0,9.594-24.157l-1.382-19.817a.853.853,0,0,1-.143.046,29.262,29.262,0,0,1-10.734.621,36.338,36.338,0,0,1-12.06-2.97,5.028,5.028,0,0,1-1.349,3.139,8.574,8.574,0,0,1-5.613,2.27,16.287,16.287,0,0,1-8.421-1.637q-1.942,5.5-4.248,10.864l.006.091-.029-.026a11.307,11.307,0,0,0-7.067-2.762,10.126,10.126,0,0,0-3.944.713c-5.6,2.223-6.523,8.843-4.122,14.9" transform="translate(-18.131 -6.642)" fill="#edd2a6"/>
            <path id="Trazado_821013" data-name="Trazado 821013" d="M164.9,59.576a2.979,2.979,0,1,0,2.729-3.477,3.134,3.134,0,0,0-2.729,3.477" transform="translate(-29.182 -9.928)" fill="#25292b"/>
            <path id="Trazado_821014" data-name="Trazado 821014" d="M143.054,61.1a2.979,2.979,0,1,0,2.729-3.477,3.134,3.134,0,0,0-2.729,3.477" transform="translate(-25.317 -10.197)" fill="#25292b"/>
            <path id="Trazado_821015" data-name="Trazado 821015" d="M164.764,50.883a7.027,7.027,0,0,1,6.689.756.91.91,0,1,1-.965,1.542,5.873,5.873,0,0,0-.591-.381c-.1-.056-.2-.109-.305-.159l-.035-.016c-.054-.023-.108-.046-.163-.067a5.929,5.929,0,0,0-.668-.22c-.114-.03-.228-.056-.342-.081l-.055-.012-.19-.027a6.276,6.276,0,0,0-.7-.048c-.117,0-.235,0-.352.006-.058,0-.117.007-.175.011h0l-.016,0a6.59,6.59,0,0,0-.692.124c-.114.028-.227.058-.339.093l-.167.054-.029.009-.031.013a.934.934,0,0,1-1.234-.368.92.92,0,0,1,.368-1.233" transform="translate(-29.079 -8.915)" fill="#25292b"/>
            <path id="Trazado_821016" data-name="Trazado 821016" d="M148.027,53.229a.934.934,0,0,1-1.17.535l-.033-.008-.03,0c-.058-.01-.115-.021-.174-.03-.115-.019-.232-.034-.348-.045a6.689,6.689,0,0,0-.7-.027h-.02l-.175.014c-.117.012-.234.026-.35.043a6.175,6.175,0,0,0-.689.146c-.062.016-.123.035-.184.053l-.053.018c-.11.041-.22.082-.328.128a6.067,6.067,0,0,0-.631.311c-.051.029-.1.058-.151.089l-.033.02c-.095.065-.188.131-.28.2a6.024,6.024,0,0,0-.532.46.91.91,0,0,1-1.17-1.394,7.027,7.027,0,0,1,6.52-1.676.92.92,0,0,1,.535,1.17" transform="translate(-24.893 -9.177)" fill="#25292b"/>
            <path id="Trazado_821017" data-name="Trazado 821017" d="M165.133,73.038l-9.785-.579.049-.821,8.6.508-4.312-13.82.786-.245Z" transform="translate(-27.494 -10.28)" fill="#25292b"/>
            <path id="Trazado_821018" data-name="Trazado 821018" d="M113.577,73.074a5.853,5.853,0,0,1-4.738-9.321,4.262,4.262,0,0,1,2.711-1.781,3.058,3.058,0,0,1,2.16.459,10.287,10.287,0,0,0-.593-2.822,5.169,5.169,0,0,0-2.425-2.863,2.444,2.444,0,0,0-1.963-.187,3.875,3.875,0,0,0-1.7,2.114l-.742-.356A4.568,4.568,0,0,1,108.42,55.8a3.257,3.257,0,0,1,2.634.211,5.989,5.989,0,0,1,2.83,3.308,12.892,12.892,0,0,1,.709,4.206l.061,1.769-.835-1.561a2.079,2.079,0,0,0-2.144-.944,3.5,3.5,0,0,0-2.176,1.455,5.031,5.031,0,0,0,4.4,8l.058.821c-.129.009-.258.013-.387.013" transform="translate(-18.811 -9.842)" fill="#25292b"/>
            <path id="Trazado_821019" data-name="Trazado 821019" d="M149.22,100.814a11.166,11.166,0,0,1-4.894-1.261,28.948,28.948,0,0,1-5.172-3.6l.518-.638a28.336,28.336,0,0,0,5.021,3.5,9.582,9.582,0,0,0,5.764,1.07,12.685,12.685,0,0,0,5.343-2.719l.494.659a13.739,13.739,0,0,1-5.7,2.871,8.057,8.057,0,0,1-1.377.116" transform="translate(-24.628 -16.87)" fill="#25292b"/>
            <path id="Trazado_821020" data-name="Trazado 821020" d="M153.164,82.93a10.644,10.644,0,0,1-8.328-6.874l.778-.271a9.8,9.8,0,0,0,7.67,6.331Z" transform="translate(-25.634 -13.413)" fill="#25292b"/>
            <rect id="Rectángulo_382582" data-name="Rectángulo 382582" width="77.942" height="7.474" transform="translate(72.457 210.156)" fill="#2a507b"/>
            <path id="Trazado_821021" data-name="Trazado 821021" d="M219.8,250.064H108.386l16.46-66.807H236.258Z" transform="translate(-19.183 -32.434)" fill="#1682fb"/>
            <rect id="Rectángulo_382583" data-name="Rectángulo 382583" width="129.771" height="0.823" transform="translate(72.457 209.745)" fill="#25292b"/>
            <path id="Trazado_821022" data-name="Trazado 821022" d="M264.622,324.755a20.944,20.944,0,0,1-15.523,9.025,21.18,21.18,0,0,1-2.657.048L187.5,331.253l-7.164-6.114,4.036-21.4,8.161-.677,50.08-10.933a20.928,20.928,0,0,1,20.365,6.834l.271.314a20.941,20.941,0,0,1,1.369,25.476" transform="translate(-31.918 -51.618)" fill="#1682fb"/>
            <path id="Trazado_821023" data-name="Trazado 821023" d="M265.024,333.3l-.56-.6a27.778,27.778,0,0,0,8.134-13.386,22.746,22.746,0,0,0-1.5-15.432,19.22,19.22,0,0,0-11.684-9.918l.223-.793a20.062,20.062,0,0,1,12.2,10.345,23.586,23.586,0,0,1,1.559,16,28.611,28.611,0,0,1-8.373,13.79" transform="translate(-45.913 -51.886)" fill="#f2e9da"/>
            <path id="Trazado_821024" data-name="Trazado 821024" d="M192.958,329.7l-.823-.024a175.329,175.329,0,0,1,1.758-20.03l.815.119a174.282,174.282,0,0,0-1.75,19.935" transform="translate(-34.005 -54.803)" fill="#25292b"/>
            <path id="Trazado_821025" data-name="Trazado 821025" d="M212.178,328.541a37.9,37.9,0,0,1,.189-19.091l.794.215a37.067,37.067,0,0,0-.184,18.677Z" transform="translate(-37.353 -54.769)" fill="#f2e9da"/>
            <path id="Trazado_821026" data-name="Trazado 821026" d="M218.93,328.193a32.084,32.084,0,0,1,.652-18.185l.779.264a31.255,31.255,0,0,0-.635,17.714Z" transform="translate(-38.568 -54.867)" fill="#f2e9da"/>
            <path id="Trazado_821027" data-name="Trazado 821027" d="M224.915,327.861a29.9,29.9,0,0,1,1.82-17.786l.756.326a29.06,29.06,0,0,0-1.769,17.293Z" transform="translate(-39.699 -54.879)" fill="#f2e9da"/>
            <path id="Trazado_821028" data-name="Trazado 821028" d="M250.094,330.946a24.667,24.667,0,0,1,.356-30.521l.641.516a23.844,23.844,0,0,0-.345,29.5Z" transform="translate(-43.358 -53.171)" fill="#25292b"/>
            <path id="Trazado_821029" data-name="Trazado 821029" d="M143.647,283.927l-12.38,39.987L21.744,295.242a29.108,29.108,0,1,1,18.715-54.966Z" transform="translate(0 -42.116)" fill="#273a89"/>
            <path id="Trazado_821030" data-name="Trazado 821030" d="M118.525,300.842l11.859,33.439,129.146-51.8a29.108,29.108,0,1,0-27.514-51.132Z" transform="translate(-20.977 -40.142)" fill="#273a89"/>
            <rect id="Rectángulo_382584" data-name="Rectángulo 382584" width="88.139" height="0.823" transform="matrix(0.85, -0.527, 0.527, 0.85, 99.913, 260.168)" fill="#f2e9da"/>
            <rect id="Rectángulo_382585" data-name="Rectángulo 382585" width="0.823" height="45.742" transform="translate(93.792 221.168) rotate(-66.725)" fill="#f2e9da"/>
            <path id="Trazado_821031" data-name="Trazado 821031" d="M33.047,352.592a20.855,20.855,0,0,0,19.426,5.954L110.181,346.3l6.059-7.211-7.507-20.44-8.161.677-51.2-2.533a20.93,20.93,0,0,0-18.962,10.1l-.215.354a20.94,20.94,0,0,0,2.847,25.354" transform="translate(-4.811 -56.063)" fill="#1682fb"/>
            <path id="Trazado_821032" data-name="Trazado 821032" d="M49.554,358.788a28.6,28.6,0,0,1-10.53-12.222,23.591,23.591,0,0,1-1.1-16.037,20.06,20.06,0,0,1,10.327-12.212l.351.744a19.221,19.221,0,0,0-9.891,11.707,22.746,22.746,0,0,0,1.066,15.469A27.764,27.764,0,0,0,50.006,358.1Z" transform="translate(-6.549 -56.338)" fill="#f2e9da"/>
            <path id="Trazado_821033" data-name="Trazado 821033" d="M121.968,343.42a174.2,174.2,0,0,0-5.01-19.374l.783-.253a175.149,175.149,0,0,1,5.034,19.467Z" transform="translate(-20.7 -57.307)" fill="#25292b"/>
            <path id="Trazado_821034" data-name="Trazado 821034" d="M116.115,349a5.153,5.153,0,0,1-3.1-1.186c-2.027-1.627-3.276-4.277-3.817-8.1-.122-.864-.21-1.737-.3-2.607a26.2,26.2,0,0,0-1.089-6.049l.209-.073c0-.027-.009-.055-.014-.083l-.3-.244.221-.274c-.946-5.855-1.844-11.89-1.024-17.9.2-1.473.659-3.537,2.305-4.456a3.993,3.993,0,0,1,4.4.61,6.852,6.852,0,0,1,2.126,3.873,15.816,15.816,0,0,1-1.564,10.181,43,43,0,0,1-5.374,7.924c.013.084.027.168.04.252a18.289,18.289,0,0,1,10.331,12.481c.239,1.112.593,3.836-1.269,5.12a3.1,3.1,0,0,1-1.786.536m-7.208-17.2a32.18,32.18,0,0,1,.816,5.22c.086.861.173,1.722.294,2.574.511,3.607,1.662,6.085,3.518,7.575,1.065.854,2.739,1.414,3.9.613,1.453-1,1.136-3.318.932-4.267a17.429,17.429,0,0,0-9.458-11.715m1.965-23.374a2.577,2.577,0,0,0-1.262.313c-1.325.739-1.714,2.55-1.89,3.848-.77,5.643.012,11.358.9,16.924a39.636,39.636,0,0,0,4.811-7.187,15.018,15.018,0,0,0,1.5-9.641,6.063,6.063,0,0,0-1.853-3.423,3.487,3.487,0,0,0-2.209-.835" transform="translate(-18.863 -54.443)" fill="#f2e9da"/>
            <path id="Trazado_821035" data-name="Trazado 821035" d="M102.92,345.429l-.821-.066a37.059,37.059,0,0,0-3.259-18.389l.749-.344a37.9,37.9,0,0,1,3.331,18.8" transform="translate(-17.493 -57.809)" fill="#f2e9da"/>
            <path id="Trazado_821036" data-name="Trazado 821036" d="M96.135,346.212l-.82-.074a31.246,31.246,0,0,0-3.545-17.366l.725-.389a32.078,32.078,0,0,1,3.639,17.829" transform="translate(-16.242 -58.119)" fill="#f2e9da"/>
            <path id="Trazado_821037" data-name="Trazado 821037" d="M90.022,346.9l-.822-.032A29.063,29.063,0,0,0,84.606,330.1l.691-.447A29.886,29.886,0,0,1,90.022,346.9" transform="translate(-14.974 -58.344)" fill="#f2e9da"/>
            <path id="Trazado_821038" data-name="Trazado 821038" d="M65.083,354.195l-.727-.388a23.845,23.845,0,0,0-5.2-29.042l.546-.616a24.668,24.668,0,0,1,5.38,30.046" transform="translate(-10.47 -57.37)" fill="#25292b"/>
          </g>
        </g>
      </g>
      <g id="Grupo_1074225" data-name="Grupo 1074225" transform="translate(522.537 3831.996)">
        <g id="Grupo_1074224" data-name="Grupo 1074224" transform="translate(0 0)" clip-path="url(#clip-path-3)">
          <path id="Trazado_821091" data-name="Trazado 821091" d="M111.444,10.944V31.655A10.976,10.976,0,0,1,100.5,42.6H80.728L64.469,57.891,66.81,42.6H10.944A10.976,10.976,0,0,1,0,31.655V10.944A10.976,10.976,0,0,1,10.944,0H100.5a10.976,10.976,0,0,1,10.944,10.944" transform="translate(0 0)" fill="#1682fb"/>
          <path id="Trazado_821092" data-name="Trazado 821092" d="M38.7,21.628a6.96,6.96,0,0,1-1.113,3.9,7.294,7.294,0,0,1-3.211,2.646,11.894,11.894,0,0,1-4.921.944,19.933,19.933,0,0,1-3.953-.33,14.677,14.677,0,0,1-3.324-1.154V21.95a18.944,18.944,0,0,0,3.792,1.46,14.087,14.087,0,0,0,3.614.525,3.512,3.512,0,0,0,2.082-.493,1.514,1.514,0,0,0,.662-1.267,1.4,1.4,0,0,0-.266-.847,3.121,3.121,0,0,0-.856-.735q-.59-.37-3.138-1.516a15.035,15.035,0,0,1-3.461-2.033,6.233,6.233,0,0,1-1.71-2.259,7.487,7.487,0,0,1-.557-3.016,6.046,6.046,0,0,1,2.372-5.083A10.456,10.456,0,0,1,31.23,4.863,18.3,18.3,0,0,1,38.7,6.557l-1.952,4.921a14.155,14.155,0,0,0-5.712-1.516,2.979,2.979,0,0,0-1.807.435,1.319,1.319,0,0,0-.565,1.081,1.562,1.562,0,0,0,.717,1.243,27.422,27.422,0,0,0,3.9,2,10.787,10.787,0,0,1,4.236,2.945A6.4,6.4,0,0,1,38.7,21.628" transform="translate(5.939 2.765)" fill="#f2e9da"/>
          <path id="Trazado_821093" data-name="Trazado 821093" d="M70,16.955q0,8.02-5.1,10.811l5.76,6.632H62.725l-4.163-5.244-.016-.016v-.016l-.016-.016q-5.552,0-8.512-3.114t-2.961-9.068q0-5.889,2.945-9t8.559-3.106q5.631,0,8.536,3.082T70,16.955m-16.232,0q0,6.841,4.76,6.842a4.092,4.092,0,0,0,3.59-1.662,9.1,9.1,0,0,0,1.17-5.18A9.158,9.158,0,0,0,62.1,11.736a4.044,4.044,0,0,0-3.542-1.686q-4.792,0-4.792,6.906" transform="translate(0.357 2.774)" fill="#f2e9da"/>
          <path id="Trazado_821094" data-name="Trazado 821094" d="M82.131,28.89V5.3H88.5V23.743h9.084V28.89Z" transform="translate(-7.512 2.667)" fill="#f2e9da"/>
        </g>
      </g>
      <g id="Grupo_1074215" data-name="Grupo 1074215" transform="translate(584.423 4033.102)">
        <g id="Grupo_1074214" data-name="Grupo 1074214" transform="translate(0)" clip-path="url(#clip-path-4)">
          <path id="Trazado_821039" data-name="Trazado 821039" d="M64.7,146.384v16.857c0,2.412-14.484,4.366-32.349,4.366S0,165.653,0,163.241V146.384c0,2.412,14.484,4.366,32.349,4.366S64.7,148.8,64.7,146.384" transform="translate(0 -92.479)" fill="#ffce00"/>
          <path id="Trazado_821040" data-name="Trazado 821040" d="M64.7,138.894c0,2.412-14.484,4.366-32.349,4.366S0,141.306,0,138.894s14.484-4.366,32.349-4.366S64.7,136.482,64.7,138.894" transform="translate(0 -84.989)" fill="#1682fb"/>
          <path id="Trazado_821041" data-name="Trazado 821041" d="M69.2,119.9v8.117c0,1.161-11.67,2.1-26.066,2.1s-26.066-.941-26.066-2.1V119.9c0-1.161,11.67-2.1,26.066-2.1s26.066.941,26.066,2.1" transform="translate(-10.78 -74.419)" fill="#366985"/>
          <path id="Trazado_821042" data-name="Trazado 821042" d="M64.7,83.045V99.9c0,2.412-14.484,4.366-32.349,4.366S0,102.314,0,99.9V83.045c0,2.412,14.484,4.366,32.349,4.366S64.7,85.457,64.7,83.045" transform="translate(0 -52.464)" fill="#ffce00"/>
          <path id="Trazado_821043" data-name="Trazado 821043" d="M64.7,75.555c0,2.412-14.484,4.366-32.349,4.366S0,77.967,0,75.555s14.484-4.366,32.349-4.366S64.7,73.143,64.7,75.555" transform="translate(0 -44.974)" fill="#1682fb"/>
          <path id="Trazado_821044" data-name="Trazado 821044" d="M69.2,56.561v8.117c0,1.161-11.67,2.1-26.066,2.1s-26.066-.941-26.066-2.1V56.561c0-1.161,11.67-2.1,26.066-2.1S69.2,55.4,69.2,56.561" transform="translate(-10.78 -34.405)" fill="#273a89"/>
          <path id="Trazado_821045" data-name="Trazado 821045" d="M64.7,11.856V28.713c0,2.412-14.484,4.366-32.349,4.366S0,31.125,0,28.713V11.856c0,2.412,14.484,4.366,32.349,4.366S64.7,14.268,64.7,11.856" transform="translate(0 -7.49)" fill="#ffce00"/>
          <path id="Trazado_821046" data-name="Trazado 821046" d="M64.7,4.366c0,2.412-14.484,4.366-32.349,4.366S0,6.778,0,4.366,14.484,0,32.349,0,64.7,1.954,64.7,4.366" transform="translate(0)" fill="#1682fb"/>
          <path id="Trazado_821047" data-name="Trazado 821047" d="M10.265,36.866a4.144,4.144,0,1,1,4.144-4.144,4.148,4.148,0,0,1-4.144,4.144m0-7.919a3.775,3.775,0,1,0,3.775,3.775,3.78,3.78,0,0,0-3.775-3.775" transform="translate(-3.867 -18.055)" fill="#25292b"/>
          <path id="Trazado_821048" data-name="Trazado 821048" d="M14.231,105.069a3.959,3.959,0,1,1-3.959-3.959,3.959,3.959,0,0,1,3.959,3.959" transform="translate(-3.988 -63.877)" fill="#273a89"/>
          <path id="Trazado_821049" data-name="Trazado 821049" d="M9.956,172.235a4.144,4.144,0,1,1,4.144-4.143,4.148,4.148,0,0,1-4.144,4.143m0-7.919a3.775,3.775,0,1,0,3.775,3.776,3.78,3.78,0,0,0-3.775-3.776" transform="translate(-3.672 -103.575)" fill="#25292b"/>
          <path id="Trazado_821050" data-name="Trazado 821050" d="M82.562,38.434H47.7a.653.653,0,1,1,0-1.305H82.562a.653.653,0,1,1,0,1.305" transform="translate(-29.72 -23.456)" fill="#f2e9da"/>
          <path id="Trazado_821051" data-name="Trazado 821051" d="M82.562,48.344H47.7a.653.653,0,1,1,0-1.305H82.562a.653.653,0,1,1,0,1.305" transform="translate(-29.72 -29.717)" fill="#f2e9da"/>
          <path id="Trazado_821052" data-name="Trazado 821052" d="M81.311,110.465H46.446a.653.653,0,0,1,0-1.305H81.311a.653.653,0,0,1,0,1.305" transform="translate(-28.93 -68.962)" fill="#f2e9da"/>
          <path id="Trazado_821053" data-name="Trazado 821053" d="M81.311,120.375H46.446a.653.653,0,1,1,0-1.305H81.311a.653.653,0,0,1,0,1.305" transform="translate(-28.93 -75.223)" fill="#f2e9da"/>
          <path id="Trazado_821054" data-name="Trazado 821054" d="M81.311,173.142H46.446a.653.653,0,1,1,0-1.305H81.311a.653.653,0,0,1,0,1.305" transform="translate(-28.93 -108.559)" fill="#f2e9da"/>
          <path id="Trazado_821055" data-name="Trazado 821055" d="M81.311,183.052H46.446a.653.653,0,0,1,0-1.305H81.311a.653.653,0,0,1,0,1.305" transform="translate(-28.93 -114.819)" fill="#f2e9da"/>
        </g>
      </g>
      <g id="Grupo_1074217" data-name="Grupo 1074217" transform="translate(302.916 3865.418)">
        <g id="Grupo_1074216" data-name="Grupo 1074216" transform="translate(0)" clip-path="url(#clip-path-5)">
          <path id="Trazado_821056" data-name="Trazado 821056" d="M60.524,100.878v15.77c0,2.256-13.549,4.084-30.262,4.084S0,118.9,0,116.648v-15.77c0,2.256,13.549,4.084,30.262,4.084s30.262-1.828,30.262-4.084" transform="translate(0 -50.452)" fill="#ffce00"/>
          <path id="Trazado_821057" data-name="Trazado 821057" d="M60.524,96.791c0,2.256-13.549,4.084-30.262,4.084S0,99.048,0,96.791s13.549-4.084,30.262-4.084,30.262,1.828,30.262,4.084" transform="translate(0 -46.365)" fill="#1682fb"/>
          <path id="Trazado_821058" data-name="Trazado 821058" d="M60.527,83.146v7.593c0,1.087-10.917,1.966-24.384,1.966s-24.383-.88-24.383-1.966V83.146c0-1.086,10.917-1.967,24.383-1.967s24.384.88,24.384,1.967" transform="translate(-5.881 -40.6)" fill="#273a89"/>
          <path id="Trazado_821059" data-name="Trazado 821059" d="M60.524,57.229V73c0,2.256-13.549,4.084-30.262,4.084S0,75.255,0,73V57.229c0,2.256,13.549,4.084,30.262,4.084s30.262-1.828,30.262-4.084" transform="translate(0 -28.622)" fill="#ffce00"/>
          <path id="Trazado_821060" data-name="Trazado 821060" d="M60.524,53.142c0,2.256-13.549,4.084-30.262,4.084S0,55.4,0,53.142s13.549-4.084,30.262-4.084,30.262,1.828,30.262,4.084" transform="translate(0 -24.535)" fill="#1682fb"/>
          <path id="Trazado_821061" data-name="Trazado 821061" d="M60.527,39.5v7.593c0,1.087-10.917,1.967-24.384,1.967s-24.383-.88-24.383-1.967V39.5c0-1.086,10.917-1.967,24.383-1.967s24.384.88,24.384,1.967" transform="translate(-5.881 -18.769)" fill="#273a89"/>
          <path id="Trazado_821062" data-name="Trazado 821062" d="M60.524,8.17V23.94c0,2.256-13.549,4.084-30.262,4.084S0,26.2,0,23.94V8.17c0,2.256,13.549,4.084,30.262,4.084S60.524,10.426,60.524,8.17" transform="translate(0 -4.086)" fill="#ffce00"/>
          <path id="Trazado_821063" data-name="Trazado 821063" d="M60.524,4.083c0,2.256-13.549,4.084-30.262,4.084S0,6.34,0,4.083,13.549,0,30.262,0,60.524,1.827,60.524,4.083" transform="translate(0 0.001)" fill="#1682fb"/>
          <path id="Trazado_821064" data-name="Trazado 821064" d="M8.017,27.446a3.954,3.954,0,1,1,3.954-3.954,3.958,3.958,0,0,1-3.954,3.954m0-7.408a3.454,3.454,0,1,0,3.454,3.454,3.458,3.458,0,0,0-3.454-3.454" transform="translate(-2.032 -9.771)" fill="#25292b"/>
          <path id="Trazado_821065" data-name="Trazado 821065" d="M11.757,73.382a3.7,3.7,0,1,1-3.7-3.7,3.7,3.7,0,0,1,3.7,3.7" transform="translate(-2.175 -34.848)" fill="#273a89"/>
          <path id="Trazado_821066" data-name="Trazado 821066" d="M7.8,120.735a3.954,3.954,0,1,1,3.954-3.953A3.958,3.958,0,0,1,7.8,120.735m0-7.408a3.454,3.454,0,1,0,3.454,3.454A3.458,3.458,0,0,0,7.8,113.327" transform="translate(-1.925 -56.428)" fill="#25292b"/>
        </g>
      </g>
    </g>
    <rect id="Rectángulo_382627" data-name="Rectángulo 382627" width="505" height="309" transform="translate(285 3833)" fill="none"/>
  </g>
</svg>
