<svg xmlns="http://www.w3.org/2000/svg" width="451" height="198" viewBox="0 0 451 198">
  <g id="_72" data-name="72" transform="translate(-833 -4692)">
    <g id="Grupo_1074740" data-name="Grupo 1074740" transform="translate(0 9)">
      <g id="Elipse_9941" data-name="Elipse 9941" transform="translate(915 4696)" fill="none" stroke="#000" stroke-width="1.5">
        <circle cx="86" cy="86" r="86" stroke="none"/>
        <circle cx="86" cy="86" r="85.25" fill="none"/>
      </g>
      <g id="Trazado_824427" data-name="Trazado 824427" transform="translate(1038 4696)" fill="#3ee2a8">
        <path d="M 86 171.25 C 80.21541595458984 171.25 74.43467712402344 170.6672821044922 68.81836700439453 169.5180206298828 C 63.34517288208008 168.3980407714844 57.96156692504883 166.7268676757812 52.81708526611328 164.5509338378906 C 47.76582717895508 162.4144287109375 42.89384841918945 159.7700042724609 38.33643341064453 156.6910858154297 C 33.82215118408203 153.6412811279297 29.57706451416016 150.1387786865234 25.71915245056152 146.2808532714844 C 21.8612174987793 142.4229278564453 18.35871696472168 138.1778717041016 15.308913230896 133.6635589599609 C 12.22999954223633 129.1061706542969 9.585565567016602 124.2341766357422 7.449065208435059 119.1829147338867 C 5.273130416870117 114.0384368896484 3.601956605911255 108.6548461914062 2.481978178024292 103.1816558837891 C 1.332717418670654 97.56532287597656 0.75 91.78458404541016 0.75 86 C 0.75 80.21541595458984 1.332717418670654 74.43467712402344 2.481978178024292 68.81836700439453 C 3.601956605911255 63.34517288208008 5.273130416870117 57.96156692504883 7.449065208435059 52.81708526611328 C 9.585565567016602 47.76584625244141 12.22999954223633 42.89384841918945 15.308913230896 38.33643341064453 C 18.35871696472168 33.82215118408203 21.8612174987793 29.57706451416016 25.71915245056152 25.71915245056152 C 29.57706451416016 21.8612174987793 33.82215118408203 18.35871696472168 38.33643341064453 15.308913230896 C 42.89384841918945 12.22999954223633 47.76584625244141 9.585565567016602 52.81708526611328 7.449065208435059 C 57.96156692504883 5.273130416870117 63.34517288208008 3.601956605911255 68.81836700439453 2.481978178024292 C 74.43467712402344 1.332717418670654 80.21541595458984 0.75 86 0.75 C 91.78458404541016 0.75 97.56532287597656 1.332717418670654 103.1816558837891 2.481978178024292 C 108.6548461914062 3.601956605911255 114.0384368896484 5.273130416870117 119.1829147338867 7.449065208435059 C 124.2341766357422 9.585565567016602 129.1061706542969 12.22999954223633 133.6635589599609 15.308913230896 C 138.1778717041016 18.35871696472168 142.4229278564453 21.8612174987793 146.2808532714844 25.71915245056152 C 150.1387786865234 29.57706451416016 153.6412811279297 33.82215118408203 156.6910858154297 38.33643341064453 C 159.7700042724609 42.89384841918945 162.4144287109375 47.76582717895508 164.5509338378906 52.81708526611328 C 166.7268676757812 57.96156692504883 168.3980407714844 63.34517288208008 169.5180206298828 68.81836700439453 C 170.6672821044922 74.43467712402344 171.25 80.21541595458984 171.25 86 C 171.25 91.78458404541016 170.6672821044922 97.56532287597656 169.5180206298828 103.1816558837891 C 168.3980407714844 108.6548461914062 166.7268676757812 114.0384368896484 164.5509338378906 119.1829147338867 C 162.4144287109375 124.2341766357422 159.7700042724609 129.1061706542969 156.6910858154297 133.6635589599609 C 153.6412811279297 138.1778717041016 150.1387786865234 142.4229278564453 146.2808532714844 146.2808532714844 C 142.4229278564453 150.1387786865234 138.1778717041016 153.6412811279297 133.6635589599609 156.6910858154297 C 129.1061706542969 159.7700042724609 124.2341766357422 162.4144287109375 119.1829147338867 164.5509338378906 C 114.0384368896484 166.7268676757812 108.6548461914062 168.3980407714844 103.1816558837891 169.5180206298828 C 97.56532287597656 170.6672821044922 91.78458404541016 171.25 86 171.25 Z" stroke="none"/>
        <path d="M 86 1.5 C 80.26579284667969 1.5 74.53563690185547 2.077590942382812 68.96870422363281 3.216766357421875 C 63.54402160644531 4.326812744140625 58.20811462402344 5.983154296875 53.1092529296875 8.139816284179688 C 48.10259246826172 10.25746154785156 43.27357482910156 12.87857055664062 38.75630187988281 15.93038940429688 C 34.28153991699219 18.95346069335938 30.07363891601562 22.42529296875 26.24948120117188 26.24948120117188 C 22.42529296875 30.07363891601562 18.95346069335938 34.28153991699219 15.93038940429688 38.75630187988281 C 12.87857055664062 43.27357482910156 10.25746154785156 48.10259246826172 8.139816284179688 53.1092529296875 C 5.983154296875 58.20811462402344 4.326812744140625 63.54402160644531 3.216766357421875 68.96870422363281 C 2.077590942382812 74.53563690185547 1.5 80.26579284667969 1.5 86 C 1.5 91.73420715332031 2.077590942382812 97.46436309814453 3.216766357421875 103.0312957763672 C 4.326812744140625 108.4559783935547 5.983154296875 113.7918853759766 8.139816284179688 118.8907470703125 C 10.25746154785156 123.8974075317383 12.87857055664062 128.7264404296875 15.93038940429688 133.2437133789062 C 18.95346069335938 137.7184600830078 22.42529296875 141.9263610839844 26.24948120117188 145.7505187988281 C 30.07363891601562 149.57470703125 34.28153991699219 153.0465393066406 38.75630187988281 156.0696105957031 C 43.27357482910156 159.1214294433594 48.10259246826172 161.7425384521484 53.1092529296875 163.8601837158203 C 58.20811462402344 166.016845703125 63.54402160644531 167.6731872558594 68.96870422363281 168.7832336425781 C 74.53563690185547 169.9224090576172 80.26579284667969 170.5 86 170.5 C 91.73420715332031 170.5 97.46436309814453 169.9224090576172 103.0312957763672 168.7832336425781 C 108.4559783935547 167.6731872558594 113.7918853759766 166.016845703125 118.8907470703125 163.8601837158203 C 123.8974075317383 161.7425384521484 128.7264404296875 159.1214294433594 133.2437133789062 156.0696105957031 C 137.7184600830078 153.0465393066406 141.9263610839844 149.57470703125 145.7505187988281 145.7505187988281 C 149.57470703125 141.9263610839844 153.0465393066406 137.7184600830078 156.0696105957031 133.2437133789062 C 159.1214294433594 128.7264404296875 161.7425384521484 123.8974075317383 163.8601837158203 118.8907470703125 C 166.016845703125 113.7918853759766 167.6731872558594 108.4559783935547 168.7832336425781 103.0312957763672 C 169.9224090576172 97.46436309814453 170.5 91.73420715332031 170.5 86 C 170.5 80.26579284667969 169.9224090576172 74.53563690185547 168.7832336425781 68.96870422363281 C 167.6731872558594 63.54402160644531 166.016845703125 58.20811462402344 163.8601837158203 53.1092529296875 C 161.7425384521484 48.10259246826172 159.1214294433594 43.27357482910156 156.0696105957031 38.75630187988281 C 153.0465393066406 34.28153991699219 149.57470703125 30.07363891601562 145.7505187988281 26.24948120117188 C 141.9263610839844 22.42529296875 137.7184600830078 18.95346069335938 133.2437133789062 15.93038940429688 C 128.7264404296875 12.87857055664062 123.8974075317383 10.25746154785156 118.8907470703125 8.139816284179688 C 113.7918853759766 5.983154296875 108.4559783935547 4.326812744140625 103.0312957763672 3.216766357421875 C 97.46436309814453 2.077590942382812 91.73420715332031 1.5 86 1.5 M 86 0 C 133.4964904785156 0 172 38.50349426269531 172 86 C 172 133.4964904785156 133.4964904785156 172 86 172 C 38.50349426269531 172 0 133.4964904785156 0 86 C 0 38.50349426269531 38.50349426269531 0 86 0 Z" stroke="none" fill="#000"/>
      </g>
      <path id="Trazado_824470" data-name="Trazado 824470" d="M7.859-4.93h-4.5v3.047H8.641V0H1.016V-11.375H8.625v1.9H3.359v2.711h4.5Zm4.125-3.523.07.945a2.971,2.971,0,0,1,2.43-1.1A2.255,2.255,0,0,1,16.727-7.32a2.9,2.9,0,0,1,2.539-1.289,2.521,2.521,0,0,1,2.047.8,3.681,3.681,0,0,1,.672,2.41V0H19.719V-5.391a1.61,1.61,0,0,0-.281-1.051,1.246,1.246,0,0,0-.992-.332,1.409,1.409,0,0,0-1.406.969L17.047,0H14.789V-5.383A1.59,1.59,0,0,0,14.5-6.445a1.259,1.259,0,0,0-.984-.328,1.463,1.463,0,0,0-1.391.8V0H9.867V-8.453Zm19.344,4.3a5.07,5.07,0,0,1-.887,3.129A2.843,2.843,0,0,1,28.047.156a2.633,2.633,0,0,1-2.07-.891V3.25H23.719v-11.7h2.094l.078.828a2.654,2.654,0,0,1,2.141-.984,2.862,2.862,0,0,1,2.43,1.156,5.207,5.207,0,0,1,.867,3.188ZM29.07-4.312a3.327,3.327,0,0,0-.418-1.82,1.361,1.361,0,0,0-1.215-.641,1.478,1.478,0,0,0-1.461.813V-2.5a1.5,1.5,0,0,0,1.477.836Q29.07-1.664,29.07-4.312ZM35.109,0H32.844V-12h2.266Zm5.75.156A4.15,4.15,0,0,1,37.832-.984a4.054,4.054,0,0,1-1.168-3.039v-.219a5.106,5.106,0,0,1,.492-2.277,3.612,3.612,0,0,1,1.395-1.547,3.914,3.914,0,0,1,2.059-.543,3.508,3.508,0,0,1,2.73,1.094,4.444,4.444,0,0,1,1,3.1v.922H38.953a2.1,2.1,0,0,0,.66,1.328,2,2,0,0,0,1.395.5,2.437,2.437,0,0,0,2.039-.945l1.109,1.242A3.389,3.389,0,0,1,42.781-.246,4.511,4.511,0,0,1,40.859.156ZM40.6-6.789a1.411,1.411,0,0,0-1.09.455,2.357,2.357,0,0,0-.535,1.3h3.141v-.181a1.681,1.681,0,0,0-.406-1.165A1.456,1.456,0,0,0,40.6-6.789ZM50.516,0a2.507,2.507,0,0,1-.227-.758,2.732,2.732,0,0,1-2.133.914A3,3,0,0,1,46.1-.562a2.312,2.312,0,0,1-.816-1.812,2.389,2.389,0,0,1,1-2.062,4.915,4.915,0,0,1,2.879-.727H50.2v-.484a1.393,1.393,0,0,0-.3-.937,1.183,1.183,0,0,0-.949-.352,1.345,1.345,0,0,0-.895.273.929.929,0,0,0-.324.75H45.469a2.268,2.268,0,0,1,.453-1.359,3,3,0,0,1,1.281-.98,4.669,4.669,0,0,1,1.859-.355,3.689,3.689,0,0,1,2.48.785,2.747,2.747,0,0,1,.918,2.207v3.664A4.041,4.041,0,0,0,52.8-.133V0ZM48.648-1.57a1.945,1.945,0,0,0,.922-.223,1.462,1.462,0,0,0,.625-.6V-3.844h-.844q-1.7,0-1.8,1.172l-.008.133a.9.9,0,0,0,.3.7A1.153,1.153,0,0,0,48.648-1.57Zm5.2-2.719a5.094,5.094,0,0,1,.887-3.148,2.877,2.877,0,0,1,2.426-1.172,2.589,2.589,0,0,1,2.039.922V-12h2.266V0H59.422l-.109-.9A2.657,2.657,0,0,1,57.141.156,2.869,2.869,0,0,1,54.746-1.02,5.258,5.258,0,0,1,53.844-4.289Zm2.258.168A3.337,3.337,0,0,0,56.516-2.3a1.349,1.349,0,0,0,1.2.634A1.511,1.511,0,0,0,59.2-2.548V-5.889a1.489,1.489,0,0,0-1.461-.884Q56.1-6.773,56.1-4.121ZM62.859-4.3a5.013,5.013,0,0,1,.484-2.242A3.546,3.546,0,0,1,64.738-8.07a4.069,4.069,0,0,1,2.113-.539,3.849,3.849,0,0,1,2.793,1.047,4.2,4.2,0,0,1,1.207,2.844l.016.578A4.418,4.418,0,0,1,69.781-1.02,3.775,3.775,0,0,1,66.867.156a3.793,3.793,0,0,1-2.918-1.172A4.5,4.5,0,0,1,62.859-4.2Zm2.258.16A3.16,3.16,0,0,0,65.57-2.3a1.5,1.5,0,0,0,1.3.638,1.5,1.5,0,0,0,1.281-.63,3.457,3.457,0,0,0,.461-2.015,3.128,3.128,0,0,0-.461-1.831,1.5,1.5,0,0,0-1.3-.649,1.474,1.474,0,0,0-1.281.646A3.516,3.516,0,0,0,65.117-4.144ZM76.836-2.336a.727.727,0,0,0-.41-.652,4.659,4.659,0,0,0-1.316-.426q-3.016-.633-3.016-2.562a2.323,2.323,0,0,1,.934-1.879,3.766,3.766,0,0,1,2.441-.754,4.053,4.053,0,0,1,2.574.758,2.388,2.388,0,0,1,.965,1.969H76.75a1.092,1.092,0,0,0-.312-.8A1.322,1.322,0,0,0,75.461-7a1.351,1.351,0,0,0-.883.258.814.814,0,0,0-.312.656.7.7,0,0,0,.355.605,3.657,3.657,0,0,0,1.2.4,9.8,9.8,0,0,1,1.422.379A2.336,2.336,0,0,1,79.031-2.43a2.2,2.2,0,0,1-.992,1.871,4.28,4.28,0,0,1-2.562.715A4.47,4.47,0,0,1,73.59-.223,3.166,3.166,0,0,1,72.3-1.262a2.414,2.414,0,0,1-.469-1.426h2.141a1.179,1.179,0,0,0,.445.922,1.766,1.766,0,0,0,1.109.32,1.635,1.635,0,0,0,.98-.246A.766.766,0,0,0,76.836-2.336Z" transform="translate(934 4790)" fill="#12263f"/>
      <path id="Trazado_824469" data-name="Trazado 824469" d="M5.766,0a2.507,2.507,0,0,1-.227-.758A2.732,2.732,0,0,1,3.406.156,3,3,0,0,1,1.348-.562,2.312,2.312,0,0,1,.531-2.375a2.389,2.389,0,0,1,1-2.062,4.915,4.915,0,0,1,2.879-.727H5.445v-.484a1.393,1.393,0,0,0-.3-.937A1.183,1.183,0,0,0,4.2-6.937a1.345,1.345,0,0,0-.895.273.929.929,0,0,0-.324.75H.719a2.268,2.268,0,0,1,.453-1.359,3,3,0,0,1,1.281-.98,4.669,4.669,0,0,1,1.859-.355,3.689,3.689,0,0,1,2.48.785,2.747,2.747,0,0,1,.918,2.207v3.664a4.041,4.041,0,0,0,.336,1.82V0ZM3.9-1.57a1.945,1.945,0,0,0,.922-.223,1.462,1.462,0,0,0,.625-.6V-3.844H4.6q-1.7,0-1.8,1.172l-.008.133a.9.9,0,0,0,.3.7A1.153,1.153,0,0,0,3.9-1.57ZM14.2-6.336a6.134,6.134,0,0,0-.812-.062,1.654,1.654,0,0,0-1.68.867V0H9.445V-8.453h2.133l.063,1.008a2.092,2.092,0,0,1,1.883-1.164,2.366,2.366,0,0,1,.7.1ZM19.172.156A4.15,4.15,0,0,1,16.145-.984a4.054,4.054,0,0,1-1.168-3.039v-.219a5.106,5.106,0,0,1,.492-2.277,3.612,3.612,0,0,1,1.395-1.547,3.914,3.914,0,0,1,2.059-.543,3.508,3.508,0,0,1,2.73,1.094,4.444,4.444,0,0,1,1,3.1v.922H17.266a2.1,2.1,0,0,0,.66,1.328,2,2,0,0,0,1.395.5,2.437,2.437,0,0,0,2.039-.945l1.109,1.242A3.389,3.389,0,0,1,21.094-.246,4.511,4.511,0,0,1,19.172.156Zm-.258-6.945a1.411,1.411,0,0,0-1.09.455,2.357,2.357,0,0,0-.535,1.3H20.43v-.181a1.681,1.681,0,0,0-.406-1.165A1.456,1.456,0,0,0,18.914-6.789ZM28.828,0A2.507,2.507,0,0,1,28.6-.758a2.732,2.732,0,0,1-2.133.914A3,3,0,0,1,24.41-.562a2.312,2.312,0,0,1-.816-1.812,2.389,2.389,0,0,1,1-2.062,4.915,4.915,0,0,1,2.879-.727h1.039v-.484a1.393,1.393,0,0,0-.3-.937,1.183,1.183,0,0,0-.949-.352,1.345,1.345,0,0,0-.895.273.929.929,0,0,0-.324.75H23.781a2.268,2.268,0,0,1,.453-1.359,3,3,0,0,1,1.281-.98,4.669,4.669,0,0,1,1.859-.355,3.689,3.689,0,0,1,2.48.785,2.747,2.747,0,0,1,.918,2.207v3.664a4.041,4.041,0,0,0,.336,1.82V0ZM26.961-1.57a1.945,1.945,0,0,0,.922-.223,1.462,1.462,0,0,0,.625-.6V-3.844h-.844q-1.7,0-1.8,1.172l-.008.133a.9.9,0,0,0,.3.7A1.153,1.153,0,0,0,26.961-1.57Zm10.125-.766a.727.727,0,0,0-.41-.652,4.659,4.659,0,0,0-1.316-.426q-3.016-.633-3.016-2.562a2.323,2.323,0,0,1,.934-1.879,3.766,3.766,0,0,1,2.441-.754,4.053,4.053,0,0,1,2.574.758,2.388,2.388,0,0,1,.965,1.969H37a1.092,1.092,0,0,0-.312-.8A1.322,1.322,0,0,0,35.711-7a1.351,1.351,0,0,0-.883.258.814.814,0,0,0-.312.656.7.7,0,0,0,.355.605,3.657,3.657,0,0,0,1.2.4,9.8,9.8,0,0,1,1.422.379A2.336,2.336,0,0,1,39.281-2.43a2.2,2.2,0,0,1-.992,1.871,4.28,4.28,0,0,1-2.562.715A4.47,4.47,0,0,1,33.84-.223a3.166,3.166,0,0,1-1.293-1.039,2.414,2.414,0,0,1-.469-1.426h2.141a1.179,1.179,0,0,0,.445.922,1.766,1.766,0,0,0,1.109.32,1.635,1.635,0,0,0,.98-.246A.766.766,0,0,0,37.086-2.336Z" transform="translate(1115 4789)" fill="#12263f"/>
      <g id="Intersecci칩n_7" data-name="Intersecci칩n 7" transform="translate(1037.801 4722.348)" fill="#ff6c00">
        <path d="M 24.69920539855957 119.6421432495117 C 21.12268829345703 115.9387359619141 17.8681812286377 111.8977661132812 15.01882266998291 107.6214294433594 C 11.99894618988037 103.0891647338867 9.406038284301758 98.25010681152344 7.312130451202393 93.23869323730469 C 5.179699897766113 88.13504791259766 3.542207479476929 82.79764556884766 2.44516134262085 77.37478637695312 C 1.319684267044067 71.81141662597656 0.7490227818489075 66.08660125732422 0.7490227818489075 60.35936737060547 C 0.7490227818489075 54.63169097900391 1.319684267044067 48.90659713745117 2.44516134262085 43.34310531616211 C 3.542191982269287 37.92019653320312 5.179684162139893 32.58276748657227 7.312130451202393 27.47909164428711 C 9.405991554260254 22.4677677154541 11.99889945983887 17.62867546081543 15.01882266998291 13.09621429443359 C 17.86810684204102 8.819875717163086 21.12260627746582 4.778656959533691 24.69920539855957 1.07471239566803 C 28.27558898925781 4.778670310974121 31.52989959716797 8.819875717163086 34.3790397644043 13.09621429443359 C 37.39883804321289 17.62869071960449 39.99165344238281 22.46778297424316 42.0854377746582 27.47907447814941 C 44.21785354614258 32.58279800415039 45.85530090332031 37.92021560668945 46.95231628417969 43.34310531616211 C 48.07777786254883 48.90661239624023 48.6484375 54.63172149658203 48.6484375 60.35936737060547 C 48.6484375 66.08657073974609 48.07777786254883 71.81138610839844 46.95231628417969 77.37478637695312 C 45.85528564453125 82.79763031005859 44.21783828735352 88.13501739501953 42.0854377746582 93.23869323730469 C 39.99160766601562 98.25009155273438 37.39880752563477 103.0891494750977 34.3790397644043 107.6214447021484 C 31.52982711791992 111.8977661132812 28.2755069732666 115.9387283325195 24.69920539855957 119.6421432495117 Z" stroke="none"/>
        <path d="M 24.69918060302734 118.5573120117188 C 28.03256988525391 115.0411682128906 31.07445335388184 111.2285690307617 33.75487899780273 107.2055816650391 C 36.74808120727539 102.7131652832031 39.31804656982422 97.916748046875 41.39341354370117 92.94956207275391 C 43.50691223144531 87.89106750488281 45.12987899780273 82.60092926025391 46.21719741821289 77.22608184814453 C 47.33277893066406 71.71153259277344 47.89842987060547 66.03675079345703 47.89842987060547 60.35938262939453 C 47.89842987060547 49.06441497802734 45.70983123779297 38.09916687011719 41.39341354370117 27.76821517944336 C 39.31808090209961 22.80113220214844 36.74811553955078 18.00466537475586 33.75487899780273 13.51206493377686 C 31.07451438903809 9.489059448242188 28.03265953063965 5.67624044418335 24.69918060302734 2.159619569778442 C 21.36551094055176 5.676225662231445 18.32346725463867 9.48906135559082 15.64298057556152 13.51208209991455 C 12.64961338043213 18.00466537475586 10.07954692840576 22.80113220214844 8.00416374206543 27.76823234558105 C 3.68768048286438 38.09906387329102 1.499030470848083 49.06431579589844 1.499030470848083 60.35938262939453 C 1.499030470848083 66.03678131103516 2.064680576324463 71.7115478515625 3.180280447006226 77.22608184814453 C 4.267613887786865 82.6009521484375 5.890614032745361 87.89108276367188 8.00416374206543 92.94954681396484 C 10.07959747314453 97.916748046875 12.6496639251709 102.7131652832031 15.64296340942383 107.2055511474609 C 18.32352638244629 111.2285537719727 21.3656005859375 115.0411834716797 24.69918060302734 118.5573120117188 M 24.6992130279541 120.716796875 C 9.421880722045898 105.1796798706055 -0.0009695312473922968 83.86914825439453 -0.0009695312473922968 60.35938262939453 C -0.0009695312473922968 36.84766387939453 9.421880722045898 15.53906536102295 24.6992130279541 -1.56249996052793e-06 C 39.97558212280273 15.53906536102295 49.39842987060547 36.84766387939453 49.39842987060547 60.35938262939453 C 49.39842987060547 83.86914825439453 39.97558212280273 105.1796798706055 24.6992130279541 120.716796875 Z" stroke="none" fill="#000"/>
      </g>
    </g>
    <rect id="Rect치ngulo_382989" data-name="Rect치ngulo 382989" width="451" height="198" transform="translate(833 4692)" fill="none"/>
  </g>
</svg>
