<svg xmlns="http://www.w3.org/2000/svg" xmlns:xlink="http://www.w3.org/1999/xlink" width="1240" height="553" viewBox="0 0 1240 553">
  <defs>
    <clipPath id="clip-path">
      <rect id="Rectángulo_382257" data-name="Rectángulo 382257" width="1240" height="553" transform="translate(180 1494)" fill="#273a89"/>
    </clipPath>
    <clipPath id="clip-path-2">
      <path id="Trazado_819313" data-name="Trazado 819313" d="M17.313,54.7A43.765,43.765,0,1,0,61.078,10.939,43.765,43.765,0,0,0,17.313,54.7" transform="translate(-17.313 -10.939)" fill="none"/>
    </clipPath>
  </defs>
  <g id="bgSlyde" transform="translate(-180 -1494)">
    <path id="Trazado_819730" data-name="Trazado 819730" d="M0,0H1240V551.859H0Z" transform="translate(180 1494)" fill="#13215c"/>
    <g id="Enmascarar_grupo_117" data-name="Enmascarar grupo 117" clip-path="url(#clip-path)">
      <circle id="Elipse_9667" data-name="Elipse 9667" cx="86.5" cy="86.5" r="86.5" transform="translate(1291 1383)" fill="#ffce00"/>
      <g id="Grupo_1072917" data-name="Grupo 1072917">
        <circle id="Elipse_9668" data-name="Elipse 9668" cx="113.5" cy="113.5" r="113.5" transform="translate(612 1967)" fill="#1682fb"/>
        <g id="Grupo_1072914" data-name="Grupo 1072914" transform="translate(1297.687 1501.061)">
          <g id="Grupo_1072913" data-name="Grupo 1072913" transform="translate(17.313 10.939)" clip-path="url(#clip-path-2)">
            <path id="Trazado_819307" data-name="Trazado 819307" d="M96.806,21.352,80.362,4.908,64.881,20.39,49.311,4.821,33.043,21.089,16.949,5,2.411,19.534,0,17.124,16.949.175,33.043,16.268,49.311,0,64.881,15.568,80.362.087,96.806,16.531,112.219,1.118l2.411,2.409Z" transform="translate(-17.131 -10.824)" fill="#fff"/>
            <path id="Trazado_819308" data-name="Trazado 819308" d="M96.806,38.147,80.362,21.7,64.881,37.184,49.311,21.616,33.043,37.885,16.949,21.791,2.411,36.33,0,33.919,16.949,16.97,33.043,33.064,49.311,16.8,64.881,32.364,80.362,16.883,96.806,33.326l15.413-15.413,2.411,2.409Z" transform="translate(-17.131 -11.001)" fill="#fff"/>
            <path id="Trazado_819309" data-name="Trazado 819309" d="M96.806,54.942,80.362,38.5,64.881,53.98,49.311,38.412,33.043,54.68,16.949,38.586,2.411,53.125,0,50.714,16.949,33.766,33.043,49.859,49.311,33.59,64.881,49.16,80.362,33.678,96.806,50.121l15.413-15.413,2.411,2.41Z" transform="translate(-17.131 -11.178)" fill="#fff"/>
            <path id="Trazado_819310" data-name="Trazado 819310" d="M96.806,71.738,80.362,55.294,64.881,70.775,49.311,55.207,33.043,71.476,16.949,55.381,2.411,69.921,0,67.51,16.949,50.562,33.043,66.655,49.311,50.387,64.881,65.956,80.362,50.474,96.806,66.918,112.219,51.5l2.411,2.41Z" transform="translate(-17.131 -11.354)" fill="#fff"/>
            <path id="Trazado_819311" data-name="Trazado 819311" d="M96.806,88.533,80.362,72.089,64.881,87.571,49.311,72,33.043,88.271,16.949,72.178,2.411,86.717,0,84.306l16.949-16.95L33.043,83.451,49.311,67.182,64.881,82.751,80.362,67.27,96.806,83.714,112.219,68.3l2.411,2.41Z" transform="translate(-17.131 -11.531)" fill="#fff"/>
            <path id="Trazado_819312" data-name="Trazado 819312" d="M96.806,105.329,80.362,88.886,64.881,104.367,49.311,88.8,33.043,105.067,16.949,88.973,2.411,103.512,0,101.1,16.949,84.152l16.094,16.094L49.311,83.977,64.881,99.546,80.362,84.065l16.444,16.443L112.219,85.1l2.411,2.41Z" transform="translate(-17.131 -11.708)" fill="#fff"/>
          </g>
        </g>
      </g>
    </g>
  </g>
</svg>
