<svg xmlns="http://www.w3.org/2000/svg" width="820" height="184" viewBox="0 0 820 184">
  <g id="Grupo_1073296" data-name="Grupo 1073296" transform="translate(-390 -2281)">
    <g id="Grupo_1073292" data-name="Grupo 1073292" transform="translate(0 524)">
      <rect id="Rect치ngulo_382557" data-name="Rect치ngulo 382557" width="820" height="75" rx="8" transform="translate(390 1757)" fill="#273a89"/>
      <path id="Rect치ngulo_382556" data-name="Rect치ngulo 382556" d="M0,0H820a0,0,0,0,1,0,0V141a8,8,0,0,1-8,8H8a8,8,0,0,1-8-8V0A0,0,0,0,1,0,0Z" transform="translate(390 1792)"/>
      <circle id="Elipse_9768" data-name="Elipse 9768" cx="4.5" cy="4.5" r="4.5" transform="translate(411 1770)" fill="#ff1212"/>
      <circle id="Elipse_9769" data-name="Elipse 9769" cx="4.5" cy="4.5" r="4.5" transform="translate(424 1770)" fill="#ffce00"/>
      <ellipse id="Elipse_9770" data-name="Elipse 9770" cx="4" cy="4.5" rx="4" ry="4.5" transform="translate(438 1770)" fill="#3ee2a8"/>
    </g>
    <text id="ysql_QUIT_Bye_C:_mysql_bin_" data-name="ysql&gt; QUIT 
Bye 
C:\mysql\bin&gt; " transform="translate(427 2352)" fill="#fff" font-size="16" font-family="Roboto-Regular, Roboto"><tspan x="0" y="15">ysql&gt; QUIT </tspan><tspan x="0" y="39">Bye </tspan><tspan x="0" y="63">C:\mysql\bin&gt; </tspan></text>
  </g>
</svg>
