<svg xmlns="http://www.w3.org/2000/svg" width="41" height="41" viewBox="0 0 41 41">
  <g id="icon" transform="translate(-326 -3482.938)">
    <circle id="Elipse_9884" data-name="Elipse 9884" cx="20.5" cy="20.5" r="20.5" transform="translate(326 3482.938)" fill="#3ee2a8"/>
    <path id="Trazado_820988" data-name="Trazado 820988" d="M8.842,21.8c4.885,0,8.843-1,8.843-2.238V16.5c0,1.237-3.958,2.237-8.843,2.237S0,17.739,0,16.5v3.059C0,20.8,3.959,21.8,8.842,21.8" transform="translate(337.424 3487.792)" fill="#273a89"/>
    <path id="Trazado_820989" data-name="Trazado 820989" d="M8.842,15.149c4.885,0,8.843-1,8.843-2.237V9.852c0,1.236-3.958,2.237-8.843,2.237S0,11.088,0,9.852v3.06c0,1.236,3.959,2.237,8.842,2.237" transform="translate(337.424 3489.745)" fill="#273a89"/>
    <path id="Trazado_820990" data-name="Trazado 820990" d="M8.842,7.536c4.885,0,8.843-1,8.843-2.238V2.239C17.686,1,13.728,0,8.842,0S0,1,0,2.239V5.3C0,6.535,3.959,7.536,8.842,7.536m0-6.456c4.027,0,6.622.671,7.517,1.159-.9.487-3.49,1.157-7.517,1.157s-6.62-.67-7.516-1.157c.9-.488,3.488-1.159,7.516-1.159" transform="translate(337.424 3492.64)" fill="#273a89"/>
    <path id="Trazado_820991" data-name="Trazado 820991" d="M17.686,26.24V23.182c0,1.236-3.958,2.237-8.843,2.237S0,24.418,0,23.182V26.24c0,1.172,3.554,2.13,8.081,2.228H9.522c4.567-.086,8.164-1.049,8.164-2.229" transform="translate(337.424 3485.828)" fill="#273a89"/>
  </g>
</svg>
