<svg xmlns="http://www.w3.org/2000/svg" width="39.77" height="43.692" viewBox="0 0 39.77 43.692">
  <g id="titulo" transform="translate(-189 -1737)">
    <rect id="Rectángulo_382339" data-name="Rectángulo 382339" width="23" height="33" rx="3" transform="translate(189 1737)" fill="#ffce00"/>
    <g id="lista-de-quehaceres" transform="translate(157.511 1734.536)">
      <path id="Trazado_819829" data-name="Trazado 819829" d="M59.229,73.284l-.755,2.461,2.461-.755,1.9-.583,2.512-2.512v8.734a1.577,1.577,0,0,1-1.577,1.577H41.247a1.577,1.577,0,0,1-1.577-1.577V51.73H65.351V65.844l-5.536,5.536Z" transform="translate(-2.108 -36.444)" fill="#f2e1d7"/>
      <path id="Trazado_819830" data-name="Trazado 819830" d="M63.77,17.993H41.244a1.577,1.577,0,0,0-1.577,1.577v3.743h25.68V19.57a1.577,1.577,0,0,0-1.577-1.577Z" transform="translate(-2.106 -8.026)" fill="#fc5d3d"/>
      <path id="Trazado_819831" data-name="Trazado 819831" d="M160.744,132.76v8.725l-1.843,1.843a.944.944,0,0,1-.282.2.906.906,0,0,1-.109.041l-4.365,1.339a.932.932,0,0,1-.278.041.944.944,0,0,1-.9-1.224l1.339-4.365a.968.968,0,0,1,.235-.391Z" transform="translate(-97.502 -104.696)" fill="#d6c0b2"/>
      <g id="Grupo_1072997" data-name="Grupo 1072997" transform="translate(56.366 24.804)">
        <path id="Trazado_819832" data-name="Trazado 819832" d="M170.861,131.334,165.8,136.4l-2.512,2.512-1.9.583-2.461.755.755-2.461.585-1.9,5.536-5.536,2.039-2.039Z" transform="translate(-158.92 -125.752)" fill="#72c2e9"/>
        <path id="Trazado_819833" data-name="Trazado 819833" d="M163.287,179.379l-1.9.584-2.462.755.755-2.462.584-1.9Z" transform="translate(-158.922 -166.22)" fill="#ffb69f"/>
        <path id="Trazado_819834" data-name="Trazado 819834" d="M227.151,113.342l-.795-.795a1.577,1.577,0,0,0-2.23,0l-.868.868,3.025,3.025.868-.868A1.577,1.577,0,0,0,227.151,113.342Z" transform="translate(-213.114 -112.085)" fill="#fc5d3d"/>
        <path id="Trazado_819835" data-name="Trazado 819835" d="M161.384,190.127l-2.462.755.755-2.462Z" transform="translate(-158.922 -176.384)" fill="#878787"/>
        <path id="Trazado_819836" data-name="Trazado 819836" d="M0,0H4.278V1.738H0Z" transform="translate(10.144 1.324) rotate(45)" fill="#ffb69f"/>
      </g>
      <path id="Trazado_819837" data-name="Trazado 819837" d="M70.812,88.78h-1.1a.394.394,0,1,1,0-.788h1.1a.394.394,0,1,1,0,.788Zm-2.681,0H48.894a.394.394,0,0,1-.394-.394V61.894a.394.394,0,1,1,.788,0v26.1H68.132a.394.394,0,1,1,0,.788Z" transform="translate(-9.546 -44.673)" fill="#fff"/>
      <path id="Trazado_819838" data-name="Trazado 819838" d="M70.812,30.444h-.578a.394.394,0,1,1,0-.788h.578a.394.394,0,0,1,0,.788Zm-2.155,0H48.894a.394.394,0,0,1-.394-.394V27.894a.394.394,0,1,1,.788,0v1.761H68.657a.394.394,0,0,1,0,.788Z" transform="translate(-9.546 -16.034)" fill="#ffcbc3"/>
      <path id="Trazado_819839" data-name="Trazado 819839" d="M102.2,86.737h11.47a.394.394,0,0,0,0-.788H102.2a.394.394,0,0,0,0,.788Z" transform="translate(-54.448 -65.267)"/>
      <path id="Trazado_819840" data-name="Trazado 819840" d="M65.459,150.783a2.306,2.306,0,1,0,2.306,2.306A2.308,2.308,0,0,0,65.459,150.783Zm0,3.823a1.518,1.518,0,1,1,1.518-1.518A1.519,1.519,0,0,1,65.459,154.606Z" transform="translate(-21.888 -119.877)"/>
      <path id="Trazado_819841" data-name="Trazado 819841" d="M107.936,162.907H102.2a.394.394,0,1,0,0,.788h5.735a.394.394,0,1,0,0-.788Z" transform="translate(-54.447 -130.09)"/>
      <path id="Trazado_819842" data-name="Trazado 819842" d="M65.459,189.262a2.306,2.306,0,1,0,2.306,2.306A2.309,2.309,0,0,0,65.459,189.262Zm0,3.823a1.518,1.518,0,1,1,1.518-1.518A1.519,1.519,0,0,1,65.459,193.085Z" transform="translate(-21.888 -152.289)"/>
      <path id="Trazado_819843" data-name="Trazado 819843" d="M106.178,201.386H102.2a.394.394,0,1,0,0,.788h3.976a.394.394,0,1,0,0-.788Z" transform="translate(-54.448 -162.501)"/>
      <path id="Trazado_819844" data-name="Trazado 819844" d="M67.626,74.149l-.449.449a2.3,2.3,0,1,0,.426.689l.581-.581a.394.394,0,0,0-.558-.558Zm-2.167,3.5a1.518,1.518,0,1,1,1.16-2.494l-.959.959-.492-.492a.394.394,0,0,0-.558.558l.77.771a.394.394,0,0,0,.558,0l1.022-1.022A1.517,1.517,0,0,1,65.46,77.649Z" transform="translate(-21.889 -55.055)"/>
      <path id="Trazado_819845" data-name="Trazado 819845" d="M102.2,125.216h11.47a.394.394,0,0,0,0-.788H102.2a.394.394,0,0,0,0,.788Z" transform="translate(-54.448 -97.678)"/>
      <path id="Trazado_819846" data-name="Trazado 819846" d="M67.626,112.628l-.449.449a2.3,2.3,0,1,0,.426.689l.581-.581a.394.394,0,0,0-.558-.558Zm-2.167,3.5a1.517,1.517,0,1,1,1.16-2.494l-.959.959-.492-.492a.394.394,0,0,0-.557.557l.77.77a.394.394,0,0,0,.557,0l1.022-1.022A1.516,1.516,0,0,1,65.46,116.128Z" transform="translate(-21.889 -87.467)"/>
      <path id="Trazado_819847" data-name="Trazado 819847" d="M196.5,161.7a.394.394,0,1,0,.558,0A.4.4,0,0,0,196.5,161.7Z" transform="translate(-134.115 -128.978)"/>
      <path id="Trazado_819848" data-name="Trazado 819848" d="M70.682,25.782a0,0,0,0,0,0,0l-.793-.793a1.968,1.968,0,0,0-2.788,0L63.637,28.45c0-8.582,0-16.539,0-16.907a1.973,1.973,0,0,0-1.971-1.971H59.9V8.858a.394.394,0,1,0-.788,0v.714H55.366V8.858a.394.394,0,0,0-.788,0v.714H50.836V8.858a.394.394,0,0,0-.788,0v.714H46.306V8.858a.394.394,0,1,0-.788,0v.714H41.776V8.858a.394.394,0,1,0-.788,0v.714H39.138a1.973,1.973,0,0,0-1.971,1.971c0,.414,0,28.706,0,32.642a1.973,1.973,0,0,0,1.971,1.971H61.665a1.973,1.973,0,0,0,1.971-1.971V35.614l7.045-7.046a1.969,1.969,0,0,0,0-2.786Zm-2.374,4.047-2.469-2.467.672-.672,2.467,2.468Zm-10.74,6.9.322-1.049,2.1,2.1-1.05.322Zm.518,1.633-1.125.345.345-1.125ZM60.73,37.4l-.954-.954,2.056-2.058a.394.394,0,0,0,0-.557.4.4,0,0,0-.558,0l-2.056,2.056-.955-.955c7.992-7.992,3.035-3.036,7.017-7.018l.957.956-2.731,2.731a.394.394,0,1,0,.557.557l2.732-2.732.955.954ZM37.955,11.543a1.184,1.184,0,0,1,1.183-1.183h1.849v.825a.394.394,0,1,0,.788,0v-.825h3.742v.825a.394.394,0,1,0,.788,0v-.825h3.741v.825a.394.394,0,1,0,.788,0v-.825h3.742v.825a.394.394,0,1,0,.788,0v-.825h3.742v.825a.394.394,0,1,0,.788,0v-.825h1.769a1.184,1.184,0,0,1,1.183,1.183v3.348H37.955ZM62.848,44.185a1.184,1.184,0,0,1-1.183,1.183H39.139a1.184,1.184,0,0,1-1.183-1.183v-28.5H62.848V29.238l-5.421,5.421a.433.433,0,0,0-.1.163c-.779,2.536-.391,1.27-1.34,4.365a.4.4,0,0,0,.49.493h0l4.365-1.339a.428.428,0,0,0,.164-.1L62.848,36.4v7.782Zm7.277-16.174-.59.588-.011-.011-2.456-2.456.589-.589a1.185,1.185,0,0,1,1.673,0l.793.793s0,0,0,0a1.185,1.185,0,0,1,0,1.673Z" transform="translate(0 0)"/>
    </g>
  </g>
</svg>
